<svg width="209" height="56" fill="none" xmlns="http://www.w3.org/2000/svg"><g clip-path="url(#clip0_400_5211)"><path fill-rule="evenodd" clip-rule="evenodd" d="M116.93 5.765c.796.017 2.749-.451 2.749-3.002C119.679.69 118.033 0 116.998 0c-.616 0-2.58.227-2.58 2.878 0 1.385.748 2.847 2.512 2.887zm.159-5.013c.736 0 1.542.556 1.512 2.251-.024 1.203-.523 1.906-1.555 1.919-1.227.008-1.655-.96-1.674-2.04-.032-1.801 1.093-2.135 1.72-2.13h-.003zm26.983 4.773c.755.427 2.331.384 3.11-.48.159.173.281.377.358.6h.956c-.214-.867-.269-2.239-.239-3.358.03-1.12-.134-1.561-.597-1.92-.464-.357-1.803-.449-2.632-.244-.616.16-1.158.502-1.433 1.56h.836c1.083-1.582 2.752-.698 2.752-.244v.721c-1.897.224-3.122.287-3.708 1.44-.194.537-.08 1.541.597 1.925zm.598-1.92c.357-.408 1.703-.504 2.512-.6 0 .652 0 1.253-.241 1.439-.24.185-1.935.908-2.271.353-.336-.555-.367-.774 0-1.193v.002zm-60.982.48a1.424 1.424 0 00-.838-1.32c.251-.224.648-.592.637-1.267a1.46 1.46 0 00-.46-.985 1.448 1.448 0 00-1.014-.39h-2.867v5.522h2.867a1.596 1.596 0 001.533-.943c.087-.194.136-.404.142-.618v.002zM80.1.844c2.2 0 2.4.185 2.4.742 0 .705-.444.818-2.4.818V.843zm0 2.282c2.648 0 2.63.489 2.63.96 0 .524-.159.839-2.63.839v-1.8zm27.502 0c1.016.17 1.618 1.616 2.034 2.52h.956c-.246-.952-1.116-2.461-2.033-2.762.613-.45.98-1.439 1.314-2.04h.599v-.72h-.956l-1.433 2.399h-.478v-2.4h-.956v5.522h.956l-.003-2.52zm17.338-2.042l1.434 4.562h.956l1.674-4.318v4.318h.955V.123h-1.433l-1.555 4.318-1.433-4.318h-1.553v5.522h.955V1.083zm10.642-.24h2.512V5.64h.956V.123h-4.423v5.522h.955V.843zm18.292 2.402h2.631v2.398h.956V.123h-.956V2.4h-2.631V.123h-.956v5.522h.956v-2.4zm11.957-1.681v4.08h.956V.125h-1.077c-.796 1.318-1.833 2.877-2.63 4.2v-4.2h-.955v5.52h1.077c1.153-1.74 1.643-2.706 2.633-4.08h-.004zm6.213 4.08c.707-.89.737-1.346 1.672-2.04.236-.16.781-.136 1.196-.12v2.16h.956V.125c-2.23-.023-4.086-.111-4.425.719-.451 1.108.014 2.214 1.316 2.521v.12c-.926.307-1.179 1.41-1.794 2.04v.12c.485.004.782 0 1.088 0h-.009zm.368-3.245c-.258-.43-.37-.78 0-1.321.616-.253 1.575-.262 2.51-.24v1.805h-1.314c-.62-.008-.789-.118-1.196-.244zm36.23 30.014c-.956.651-1.888 1.21-2.63 1.681-1.612 1.022-2.612 1.76-4.544 2.52-.778.306-2.649.848-3.346.48-1.256-.884-.183-3.273.36-4.2 2.178-3.727 3.833-4.158 6.098-8.043-.018-1.375-1.424-4.268-2.271-4.682-.741-.294-.993 1.05-1.675.84-.24-.072-.726-.574-.955-.72a7.224 7.224 0 00-2.39-.84c-.979-.137-3.612-.16-4.544.12-1.593.493-3.122 1.473-4.301 2.4-2.448 1.918-4.619 3.687-5.5 7.195-.814 3.25 1.593 5.117 4.065 5.277.758.05 1.983.03 3.707-.96-.923 1.016-2.93 3.005-4.903 4.203-1.87 1.134-3.419 1.008-4.301.96-.319-.746.009-1.979-.359-2.76a1.645 1.645 0 00-.837-.842c-.478-.21-1.552-.292-2.63.242.358-.3.976-.89 1.315-1.201.126-.817-.14-2.119-.477-2.642-.655.363-2.807 2.193-3.468 2.642-2.278 1.55-4.833 3.62-6.456 3.121-1.623-.499-2.206-3.422 5.978-11.404.409-.4 1.274-1.182 1.555-1.681.685-1.25.277-3.859-.478-4.56-.507-.48-1.177-.215-1.912.24-3.077 1.897-8.609 7.309-12.075 10.563-.956.897-2.269 2.103-3.346 2.878a22.24 22.24 0 01-4.066 2.399c-.425.192-1.085.588-1.673.36-.271-.106-.449-1.09-.119-2.28.463-1.68 2.012-3.024 4.901-5.163 1.165-.861 3.041-2.772 3.793-3.677.334-.4 1.362-1.584 1.593-2.572.094-.41-.04-.75-.598-1.2-.557-.448-3.566-.356-4.664 0a9.755 9.755 0 00-2.629 1.44c-2.199 1.674-3.706 4.012-5.023 6.483-.318.588-.812 1.522-1.077 2.398-1.312 1.105-3.052 2.08-5.14 3.482-.685.459-3.289 2.371-4.544 1.68-.252-.137-1.901-.542.239-4.2 1.083-1.852 2.916-3.224 4.184-4.922.537-.718 1.37-1.465 1.676-2.4.478-1.482-1.354-3.96-2.273-5.041-1.106.507-2.759 1.759-3.587 2.399C133.164 27.2 129.3 30.4 126.401 32.63c.288-.905.999-1.759 1.555-2.52 1.561-2.127 2.894-4.213 3.823-6.236.34-.744.449-1.974-.239-3.242-1.41-2.596-5.281.01-6.339.722-3.504 2.353-7.204 5.791-10.164 8.763-.922.925-3.262 3.406-3.945 3.96-.319.264-.717.581-.956.36-.239-.22-.604-1.042 2.357-4.38 1.459-1.643 3.4-3.541 4.578-5.342.263-.351.427-.765.478-1.201.089-.93-.436-1.471-1.433-1.68-2.356-.496-3.887.596-5.142 1.56-1.485 1.14-3.787 4.207-4.779 5.757a5.74 5.74 0 00-.838 1.8c-.145.1-2.321 1.964-3.467 3.002-1.697 1.53-3.4 3.06-5.042 4.586-1.563 1.44-3.157 2.68-4.423 3.838a40.345 40.345 0 012.51-3.838c1.859-2.559 4.356-6.481 5.381-8.042.925-1.409 2.708-3.77 3.587-6.003.527-1.346-.478-3.48-1.075-4.317-1.936.225-4.819 3.45-6.1 4.682a334.085 334.085 0 01-8.249 7.675c-.999.902-2.063 1.89-3.167 2.466-1.029.54-1.93.766-3.171.896.134-1.212-.072-2.487 1.674-3.961 2.668-2.255 6.553-6.154 6.936-6.716.965-1.44 1.34-2.111 1.433-2.879-.011-1.586-1.652-2.763-2.512-3.241-1.857.364-3.675 2.103-4.901 3.241-2.186 2.028-4.38 4.393-5.735 6.963a13.464 13.464 0 00-.98 2.465c-.823.677-3.132 2.559-3.802 3.056-2.367 1.76-3.267 2.74-6.457 3.601-2.483.672-3.504-.8-4.3-1.919-.823-1.167-2.67-3.332-4.302-3.6.478-.928 1.534-1.859 2.272-2.4a34.56 34.56 0 013.587-2.398c1.051-.603 2.485-1.562 3.44-1.695.956-.133 1.549.216 2.035.96 2.61-.291 4.318-1.547 5.02-2.64a4.965 4.965 0 00-.431-2.491 4.944 4.944 0 00-1.601-1.952c-1.344-1.006-5.295 1.457-6.212 2.04-3.796 2.4-6.84 4.822-10.404 7.684-1.449 1.17-3.634 3.088-5.02 4.56.035-.524.12-1.064.12-1.8 1.347-1.353 3.153-3.09 4.064-3.838.911-.746 2.028-1.7 4.425-3.96.743-.7 2.549-2.455 1.434-3.722-.492-.56-2.738-.48-4.664-.12-1.09.199-2.616 1.128-3.345 1.8-2.052 1.885-2.945 3.409-4.424 5.756a9.445 9.445 0 00-1.076 2.16c-.257.336-.762.843-1.675 1.561-1.592 1.25-2.198 1.636-3.945 2.76-.83.534-2.346 1.12-3.11 1.321-.762.202-.985-.18-1.075-.72-.035-.204.416-1.758 1.079-3.068 1.545-3.038 4.162-7.175 5.377-8.816 1.058-1.426 2.407-2.864 2.99-5.162.478-1.89.172-3.658-.478-4.797-.575-1.007-1.844-1.79-2.75-2.28-1.434.7-4.364 3.546-5.5 4.562-3.22 2.878-6.597 5.26-11.001 6.962-1.818.702-6.213 2.284-7.893-.361-1.05-1.885 1.674-6.001 1.674-6.001s1.026-1.775 3.468-3.601c4.71-3.519 10.126-6.28 17.338-5.278-.678 1.988-.546 2.4 0 2.879 1.017.892 6.04-2.621 7.533-3.961.677-.61 1.593-1.702.718-3.122-.38-.617-3.32-3.25-8.012-3.358-1.578-.038-5.041 0-6.456.36-10.363 2.575-18.61 7.775-22.123 16.92-1.89 4.916 1.804 10.828 5.5 11.283 3.493.43 7.55-1.386 9.342-2.3a47.013 47.013 0 004.887-2.862c-1.497 1.838-4.21 3.69-5.62 4.561-4.104 2.54-8.88 5.597-11.599 6.003-2.333.344-3.197-2.616-6.212-1.919-3.527.812-5.156 2.15-7.533 4.08-1.227.992-3.9 3.893-3.234 5.041.666 1.148 1.412 1.64 2.51 2.16 3.145 1.51 7.833-.37 10.165-1.438 5.367-2.462 9.545-5.13 14.11-8.402 2.244-1.609 8.694-7.255 9.685-8.283-.768 1.834-1.57 3.081-2.51 4.442-1.302 1.88-2.39 3.596-3.11 6.001-.53 1.778-.67 4.853.358 6.237 1.082 1.456 3.639 1.75 5.86.96a32.309 32.309 0 006.817-3.482 19.819 19.819 0 003.466-3.002c.348 1.735.645 3.14 1.196 4.682.293.82.745.987 1.555.96 1.42-.046 1.7-1.006 3.822-4.2a8.258 8.258 0 011.563-1.797c.405.717.843 1.364 1.316 2.04 1.368 1.96 3.101 4.38 5.5 5.278 1.348.507 3.485.32 4.543-.12 3.834-1.612 8.812-6.85 10.642-8.282.234 1.59.564 3.3 2.751 5.52.41.416.894.66 1.555.841 1.056.291 2.662-1.068 3.823-1.919 2.11-1.546 6.883-5.467 7.168-5.756a54.475 54.475 0 01-2.63 4.68c-1.689 2.682-3.125 5.261-4.779 8.044-1.546 2.593-3.084 4.404-2.306 7.132.175.617.51 1.62 1.349 2.11.575.336 1.886-.791 3.468-2.76 1.725-2.147 4.323-4.875 5.141-5.756 7.449-8.077 10.294-11.303 11.24-12.484.271 3.107.449 4.247 1.674 6.482.269.49 1.176 1.267 2.034 1.201 2.021-.16 3.567-2.485 5.021-4.202 3.267-3.854 7.805-8.627 8.371-9.115 1.025-.894 1.057-1.186 1.674-.84.554.312-.924 2.057-1.434 2.879-1.242 2.008-2.241 3.454-3.345 5.642-.478.959-1.254 3.621-.358 4.797 1.323 1.747 4.036.96 5.022 0 .986-.96 5.62-5.101 7.413-6.843 1.794-1.741 3.172-2.963 5.501-5.16-.77 1.3-1.104 1.83-1.434 2.399-1.348 2.318-4.69 6.876-2.63 10.082.804 1.252 2.63 1.931 4.779.96 2.934-1.323 5.17-3.252 7.646-5.043a38.555 38.555 0 003.467-2.761c-.399 4.818 3.302 8.176 6.098 6.842 2.332-1.11 4.181-3.01 5.98-4.797.661-.659 2.123-1.977 2.51-2.878-1.512 3.628-1.418 6.796-.597 7.921.955 1.307 2.23 1.875 3.587 1.683 2.365-.336 4.199-1.547 6.577-3.603s3.345-2.878 4.901-4.56c-.623 1.371-1.115 2.614-1.075 3.358.139 2.975 2.619 4.762 6.576 3.837 2.736-.64 4.353-2.238 6.212-3.837.932-.8 2.144-1.76 2.99-2.522-.637 1.381-.813 1.882-.956 2.641-.406 2.129.478 3.824 2.152 4.561 1.674.737 4.151-.64 5.142-1.2a85.493 85.493 0 008.37-5.401c.864-.624 1.678-1.366 2.75-2.16-.015-1.623-.12-2.142-.349-2.892zm-12.316-5.641c-.903 1.783-2.122 2.96-3.345 3.601-.681.355-3.027 1.545-3.823 1.08-.797-.466-.907-1.198-.837-2.16.131-1.834.967-3.722 3.11-5.043 1.046-.64 2.689-1.394 3.466-1.56 1.386-.295 2.044.254 2.152 1.08.052.443.035 1.504-.723 3.002zm-93.981-8.883l.599-5.162 4.903-.96-5.022-.48-.838-5.041-.598 5.042-5.385.84 5.381.6.96 5.161zm11.241 2.04c1.274-.64 2.867-1.279 4.185-1.56.868-.181 7.797-1.08 13.273-1.201 6.69-.149 10.869-.291 14.228-.36 1.454-.03 3.377-.096 4.067-.36.318-.12.538-.15.597-.6-.18-.64-3.504-3.532-5.5-4.202-1.652-.555-10.513.075-13.632.48-4.397.57-8.885 1.306-12.675 2.878a36.189 36.189 0 00-5.859 3.122c-.419.84-.297 1.2 0 1.8l1.316.003zm58.353 23.528v4.922l-4.779 1.56 5.021.12 1.554 4.683v-4.798l4.779-1.8h-5.022l-1.553-4.687zm-135 1.08L34.55 48.74l-4.901-.842 4.184 2.4-.838 5.041 2.39-4.442 5.022.96-4.425-2.523.957-4.795zM70.3 5.52c.755.427 2.332.384 3.11-.48.16.173.282.377.358.6h.956c-.215-.867-.271-2.239-.24-3.358.033-1.12-.135-1.56-.598-1.919-.464-.358-1.806-.445-2.633-.24-.617.16-1.158.502-1.434 1.56h.838c1.083-1.582 2.75-.698 2.75-.24v.72c-1.898.224-3.123.287-3.707 1.44-.195.534-.081 1.538.596 1.922l.004-.005zm.6-1.919c.356-.41 1.7-.505 2.51-.601 0 .652 0 1.254-.24 1.44-.238.185-1.94.912-2.275.357-.337-.555-.367-.774 0-1.193l.004-.003zm26.903 1.92c.755.426 2.331.383 3.11-.48a1.7 1.7 0 01.358.599h.956c-.214-.867-.271-2.239-.239-3.358.032-1.12-.134-1.56-.598-1.919-.463-.358-1.808-.445-2.63-.24-.616.16-1.157.502-1.433 1.56h.838c1.073-1.582 2.743-.698 2.743-.244v.721c-1.897.224-3.122.287-3.709 1.44-.19.537-.078 1.541.606 1.925l-.002-.005zM98.4 3.6c.357-.41 1.702-.505 2.513-.601 0 .652 0 1.254-.241 1.44-.241.185-1.94.912-2.276.357-.336-.555-.367-.774 0-1.193l.005-.003zm-6.581-2.037v4.08h.955V.125h-1.076c-.797 1.318-1.834 2.877-2.63 4.2v-4.2h-.956v5.52h1.077c1.15-1.74 1.64-2.706 2.63-4.08z" fill="#283273"/></g><defs><clipPath id="clip0_400_5211"><path fill="#fff" d="M0 0h209v56H0z"/></clipPath></defs></svg>