<svg width="69" height="89" fill="none" xmlns="http://www.w3.org/2000/svg"><g clip-path="url(#clip0_400_5206)" fill-rule="evenodd" clip-rule="evenodd"><path d="M65.69 0h.334c-1.4 1.022-2.924 1.854-4.356 2.83-6.474 4.316-12.551 9.314-17.64 15.23-3.194 3.758-6.017 7.9-7.863 12.51-1.983 4.791-2.713 10.138-1.865 15.272.257 1.691.798 3.327 1.234 4.966A11317.5 11317.5 0 0112.008 28.28c-2.5-2.443-5.086-4.798-7.534-7.287C24.43 14.15 44.44 7.449 64.409.643c.447-.17.876-.386 1.28-.642z" fill="#2AABE8"/><path d="M57.037 54.75c1.446-.151 3.002-.237 4.344.436 2.227 1.019 3.842 3.384 3.767 5.884a6.455 6.455 0 01-.53 2.888 6.397 6.397 0 01-1.754 2.344c-2.61 2.263-6.98 1.994-9.234-.663-2.343-2.473-2.143-6.746.257-9.113a6.324 6.324 0 013.162-1.775h-.012zm.47 1.189a5.395 5.395 0 00-2.245 1.095 5.46 5.46 0 00-1.521 1.994c-.5 1.046-.528 2.248-.37 3.377.16.715.463 1.39.89 1.982a5.34 5.34 0 001.597 1.463 5.287 5.287 0 004.19.53 5.305 5.305 0 001.905-1.018 5.364 5.364 0 001.349-1.698 5.409 5.409 0 00.269-4.253c-.794-2.462-3.56-4.04-6.06-3.482l-.003.01zM4.87 54.896l1.194.023c0 4.207-.017 8.415 0 12.622l-1.203.035a555.229 555.229 0 010-12.68h.009zm4.156.038a83.929 83.929 0 014.165-.02c.942.012 1.919.238 2.634.866 1.554 1.314 1.385 4.149-.336 5.242-.831.528-1.832.556-2.774.784 1.35 1.968 2.967 3.74 4.271 5.742a37.53 37.53 0 01-1.462.028c-1.427-1.834-2.809-3.71-4.252-5.527-.205-.35-.624-.29-.966-.354-.077 1.944-.032 3.892-.018 5.836a5.25 5.25 0 01-1.265-.014 694.01 694.01 0 000-12.579l.003-.004zm1.271 1.188a58.833 58.833 0 000 4.228c1.354.061 2.771.237 4.083-.179 1.452-.606 1.598-2.851.254-3.66-1.358-.634-2.9-.365-4.346-.39h.01zM24.37 55.01l.303-.112c1.505 2.968 2.812 6.04 4.253 9.045.527 1.21 1.163 2.376 1.589 3.624-.426-.012-.871.078-1.286-.06-.727-1.326-1.28-2.744-1.956-4.099-1.804-.083-3.61-.024-5.415-.036-.747 1.381-1.288 2.852-2.06 4.233-.427-.02-.853-.036-1.282-.06.497-1.316 1.142-2.569 1.731-3.845 1.399-2.885 2.7-5.82 4.123-8.69zm.174 2.678c-.763 1.483-1.434 3.008-2.145 4.515 1.413-.019 2.825 0 4.238-.019a36.318 36.318 0 00-2.086-4.496h-.007zm8.066-2.792c2.367.023 4.735-.034 7.104.033v1.114c-1.964.1-3.932.02-5.898.048-.042 1.328-.061 2.657.014 3.985 1.95.031 3.906-.095 5.853.072v1.086c-1.954.054-3.91-.02-5.862.04-.06 1.633-.04 3.268-.012 4.903 1.938.07 3.875 0 5.813.033.028.423.054.846.08 1.271-2.355.202-4.735.062-7.101.074a504.928 504.928 0 010-12.66h.01zm9.345.021c1.399-.024 2.8-.033 4.198 0 .982.012 2.035.261 2.743.993 1.413 1.305 1.236 3.886-.315 4.99-.848.633-1.945.642-2.934.88 1.347 1.98 2.976 3.748 4.295 5.749a46.98 46.98 0 01-1.453.043c-1.441-1.826-2.825-3.689-4.266-5.52-.194-.374-.627-.312-.973-.379-.073 1.944-.035 3.89-.014 5.834a8.975 8.975 0 01-1.288.031c.026-4.208.012-8.417 0-12.626l.007.005zm1.288 1.188a58.305 58.305 0 000 4.256c1.361.024 2.786.238 4.097-.209 1.427-.591 1.56-2.851.235-3.636-1.349-.663-2.903-.366-4.348-.41h.016zm19.406 21.367c.76-1.664 3.009-2.156 4.523-1.276a4.06 4.06 0 011.57 1.644c-.316.207-.631.414-.942.616-.624-.578-1.208-1.393-2.119-1.426a1.675 1.675 0 00-1.075.18 1.69 1.69 0 00-.742.806c-.4.867.174 1.81.838 2.36 1.495 1.302 3.532 2.284 4.177 4.306.635 1.956-.956 4.106-2.932 4.278-1.848.28-3.767-1.032-4.238-2.852.344-.06.72-.414 1.06-.238.548.551.93 1.307 1.662 1.647 1.262.694 3.103-.27 3.202-1.74.073-.656-.261-1.269-.666-1.753-1.123-1.336-2.757-2.11-3.871-3.458-.72-.834-.808-2.096-.426-3.09l-.021-.004zm-56.88-1.05a.336.336 0 01.337-.302.336.336 0 01.325.313c1.848 4.085 3.83 8.113 5.594 12.237l-1.231.052c-.789-1.352-1.314-2.838-2.067-4.206-1.733 0-3.47-.06-5.201.02-.942 1.232-1.373 2.81-2.134 4.167-.47 0-.927 0-1.391-.017a2358.13 2358.13 0 015.768-12.265zm-1.765 6.896H8.21c-.662-1.478-1.32-2.961-2.103-4.38a38.006 38.006 0 00-2.119 4.382l.015-.002zm9.768-7.206a67.23 67.23 0 011.345-.064c.042 4.222.042 8.447 0 12.674a21.226 21.226 0 01-1.342-.114c.051-4.164.051-8.329 0-12.496h-.003zm4.304-.035c1.507-.02 3.014-.057 4.518.035a3.746 3.746 0 012.355.901c1.448 1.262 1.328 3.852-.188 5.01-.862.713-2.028.758-3.087.836 1.391 1.985 3.025 3.788 4.36 5.815-.574-.035-1.356.278-1.735-.323a410.81 410.81 0 01-3.388-4.408c-.41-.509-.789-1.252-1.559-1.1-.016 1.953.022 3.904-.016 5.858l-1.253-.012a603.88 603.88 0 010-12.612h-.007zm1.276 1.219a198.68 198.68 0 000 4.277c1.397 0 2.878.257 4.208-.29 1.443-.712 1.412-3.11-.106-3.711-1.314-.45-2.734-.198-4.097-.269l-.005-.007zm9.296-1.25l1.205.03c.038 3.78-.11 7.563.078 11.336 1.596.179 3.204.038 4.805.107v1.103c-2.024.18-4.066.064-6.098.064a612.16 612.16 0 010-12.64h.01zm7.72.066c.449-.028.899-.051 1.35-.069a622.81 622.81 0 010 12.676c-.451-.023-.9-.062-1.348-.116a486.95 486.95 0 000-12.49h-.002zm4.306-.13c.733.563 1.284 1.314 1.884 2.003a2257.6 2257.6 0 004.944 5.704c.532.63 1.036 1.297 1.71 1.787.115-3.137.023-6.279.047-9.416.421 0 .843 0 1.267.017-.038 4.204 0 8.408-.022 12.61a2.114 2.114 0 01-.69-.436c-2.63-2.97-5.144-6.05-7.854-8.945-.057 3.125.016 6.255-.035 9.38H40.63c-.019-4.237-.096-8.481.04-12.714l.002.01zm12.929.076c2.394 0 4.789-.029 7.183.021v1.188c-1.97.098-3.946.017-5.919.043a24.307 24.307 0 000 3.905c1.943.047 3.887-.086 5.825.073v1.12c-1.938.069-3.885-.093-5.818.116a37.793 37.793 0 000 4.898c1.933.19 3.878.03 5.816.102 0 .376 0 .754.014 1.134-2.355.123-4.723.052-7.085.038-.055-4.213-.06-8.425-.016-12.636v-.002z" fill="#000"/></g><defs><clipPath id="clip0_400_5206"><path fill="#fff" d="M0 0h69v89H0z"/></clipPath></defs></svg>