<svg width="180" height="94" fill="none" xmlns="http://www.w3.org/2000/svg"><path d="M71.238 54.025c0 1.978-.245 5.045-4.21 5.045h-4.684c-3.947 0-4.192-3.067-4.192-5.045V35.868c0-1.98.245-5.046 4.192-5.046h4.684c3.965 0 4.21 3.067 4.21 5.046v3.994h-5.665v-4.605c0-.483-.36-.927-.887-.927-.322 0-.888.2-.888.927V54.52c0 .726.565.927.888.927.528 0 .887-.442.887-.927v-6.184h-.85v-3.108h6.515v8.797zm8.499-5.568l.963-14.118h.32l.982 14.118h-2.265zM73.485 59.07h5.533l.51-7.505h2.664l.529 7.505h5.532l-2.944-28.25h-8.876l-2.948 28.25zm16.864-3.55l5.42-21.181h-4.853V30.82h10.647v3.51l-5.396 21.117h5.739v3.622H90.349v-3.55zm19.865-9.581V34.324h.718c.625 0 1.059.523 1.059 1.414v8.79c0 .887-.434 1.412-1.059 1.412l-.718-.001zm-5.664 13.13h5.664v-9.603h3.231c3.943 0 4.191-3.067 4.191-5.045v-8.554c0-1.98-.248-5.046-4.191-5.046h-8.896l.001 28.249zm21.643-13.973v-10.77h.734c.604 0 1.038.524 1.038 1.412v7.946c0 .888-.434 1.412-1.038 1.412h-.734zm8.157 13.974l-2.775-11.018c2.001-.807 2.041-2.664 2.041-3.431v-8.755c0-1.98-.229-5.046-4.195-5.046h-8.874v28.25h5.647V48.617h.412l1.927 10.453h5.817zm10.461-4.55c0 .484-.358.929-.891.929-.318 0-.886-.203-.886-.93V35.257c0-.728.567-.927.886-.927.531 0 .891.443.891.927V54.52zm-7.422-.495c0 1.978.246 5.045 4.213 5.045h4.664c3.967 0 4.209-3.067 4.209-5.045V35.868c0-1.98-.242-5.046-4.209-5.046h-4.664c-3.967 0-4.213 3.067-4.213 5.046v18.157zm30.819-23.205h7.347v28.25h-5.646V41.353h-.209l-2.907 17.717h-4.514l-2.908-17.717h-.208V59.07h-5.646V30.82h7.344l3.664 19.855 3.683-19.854zM51.058 19.576C49.253 11.702 44.742 5.3 44.134 4.255c-.98 1.47-4.57 7.12-6.414 13.396-1.98 6.988-2.274 13.193-1.588 19.303.687 6.108 3.255 12.38 3.255 12.38 1.373 3.298 3.433 6.826 4.766 8.56 1.962-2.55 6.473-10.157 7.884-20.091.786-5.522.804-10.357-.979-18.227zM44.134 55.93c-.882-1.666-2.255-4.838-2.394-9.735-.039-4.736 1.864-8.787 2.413-9.635.491.849 2.138 4.375 2.334 9.21.117 4.738-1.451 8.46-2.353 10.16zm6.394-22.997c-.059 3-.412 6.17-.882 8.065.177-3.265-.216-7.871-.98-11.465-.745-3.591-2.864-9.602-4.569-12.378-1.57 2.646-3.492 7.842-4.511 12.345-1.001 4.513-1.04 9.963-1.04 11.602-.276-1.38-.942-6.295-.746-11.238.157-4.078 1.1-8.266 1.628-10.192 2-6.436 4.255-10.55 4.668-11.201.43.652 3.274 5.714 4.746 11.039 1.47 5.322 1.764 10.418 1.686 13.423z" fill="#0F79BF"/><path d="M47.174 59.726h-13.67v9.17c.021-.012.04-.021.04-.034 3.216-3.221 8.452-3.221 11.668 0a8.258 8.258 0 010 11.667c-.02.012-.02.02-.038.034v.007c-.02.013-.04.024-.06.04-3.196 3.19-7.413 4.786-11.61 4.786a16.42 16.42 0 01-11.65-4.825c-5.667-5.668-6.334-14.438-2.02-20.845a16.732 16.732 0 012.02-2.453 16.407 16.407 0 0111.65-4.828v-22.06c-16.199 0-29.34 13.138-29.34 29.34 0 16.2 13.141 29.338 29.34 29.338 8.454 0 16.063-3.573 21.417-9.284V59.726h-7.747zm128.381 9.397H58.152v19.939h117.403V69.123z" fill="#0F79BF"/><path d="M64.213 72.273h4.4l1.376 13.439h-2.784l-.288-3.584H65.83l-.256 3.584h-2.768l1.407-13.44zm2.593 8.385l-.448-6.48-.448 6.48h.896zm30.731-8.385h2.863l.769 8.145.656-8.145h2.895l-1.713 13.456h-3.712l-1.758-13.456zm35.179 0h2.847v13.439h-2.848l.001-13.44zm32.251 0h4.399l1.376 13.439h-2.784l-.288-3.584h-1.088l-.256 3.584h-2.767l1.408-13.44zm2.592 8.385l-.447-6.48-.448 6.48h.895z" fill="#fff"/></svg>