<svg width="198" height="47" fill="none" xmlns="http://www.w3.org/2000/svg"><g clip-path="url(#clip0_400_5367)" fill="#B98D51"><path d="M13.83 12.983C5.398 16.247-.074 24.153 0 33.073L.074 47h17.97c10.722 0 20.04-7.253 22.48-17.553L47.476 0 13.83 12.983zm24.402 7.76l-15.53 6.02 14.79-2.756-1.404 6.02a24.956 24.956 0 01-1.48 4.133l-10.131 1.814h9.021a19.286 19.286 0 01-15.974 8.486H2.736l-.074-11.532C2.588 25.602 7.1 19.002 14.051 16.39L41.782 5.73l-3.55 15.014zM55.538 3.7h21.298l-.222 1.232h-9.392l-3.92 21.831h-2.514l3.92-21.831h-9.393l.222-1.233h.001zm23.516 21.105c3.772 0 5.62-1.088 7.765-3.916L78.98 3.699h2.81l6.804 14.652L99.316 3.699h1.48l-12.94 17.77c-2.885 3.99-5.25 5.513-9.245 5.513l.443-2.176zm18.266-.507s.591.145 1.034.145c2.145 0 4.586-4.134 6.582-12.33l2.071-8.486h15.012l-4.141 23.065h-2.515l3.92-21.831h-11.167l-1.775 7.253c-2.441 10.082-5.25 14.797-9.392 14.797l.369-2.612h.001zm27.065 2.467l4.141-23.066h20.854l-4.141 23.066h-2.515l3.92-21.832h-15.751l-3.92 21.832h-2.588zm25.07 0l15.012-23.066h1.48l6.656 23.066h-2.663l-1.996-6.818h-12.572l-4.437 6.818h-1.48zm6.582-7.906h11.61l-3.624-12.33-7.986 12.33zM180.883 3.7h9.171c5.472 0 8.578 2.755 7.838 6.817-.74 4.134-4.88 6.89-10.279 6.89h-6.656l-1.701 9.284h-2.515l4.141-22.992h.001zm.296 12.547h6.434c3.993 0 7.025-2.248 7.617-5.658.592-3.337-1.628-5.657-5.621-5.657h-6.508l-1.922 11.315zM54.354 37.86h.961l-1.48 8.052 7.618-8.051h.96l-1.626 8.994h-.962l1.48-8.051-7.617 8.051h-.961l1.627-8.994zm10.426 8.995l1.628-8.994h.961l-.74 4.134h6.138l.74-4.134h.961l-1.627 8.994h-.962l.814-4.352h-6.137l-.814 4.352h-.961zm12.869-8.995h8.283l-.074.51H82.16l-1.553 8.485h-.888l1.554-8.486h-3.624v-.508zm11.463 0h6.803l-.074.51h-5.842l-.666 3.626h5.102l-.074.508H89.26l-.666 3.844h5.842l-.074.508h-6.803l1.553-8.994v-.001zm10.204 0h3.55c2.144 0 3.327 1.089 3.031 2.685-.295 1.596-1.922 2.683-3.993 2.683h-2.588l-.666 3.627h-.962l1.628-8.994zm.074 4.86h2.514c1.554 0 2.737-.87 2.958-2.175.222-1.305-.666-2.176-2.144-2.176h-2.515l-.813 4.352zm8.652 4.135l1.627-8.994h.961l-.666 3.771h2.589c2.144 0 3.327 1.016 3.032 2.612-.296 1.523-1.923 2.611-3.994 2.611h-3.549zm3.549-.508c1.554 0 2.737-.87 2.958-2.103.222-1.233-.666-2.103-2.218-2.103h-2.515l-.739 4.206h2.514zm8.505-8.487h6.804l-.074.51h-5.842l-.666 3.626h5.102l-.074.508h-5.102l-.666 3.844h5.842l-.074.508h-6.803l1.553-8.994v-.001zm10.206 0h3.55c2.144 0 3.327 1.089 3.031 2.685-.295 1.596-1.922 2.683-3.993 2.683h-2.588l-.666 3.627h-.962l1.628-8.994zm.147 4.86h2.515c1.554 0 2.736-.87 2.958-2.175.222-1.305-.666-2.176-2.144-2.176h-2.515l-.814 4.352zm13.829 4.135l1.627-8.994h6.064l-.074.508h-5.029l-1.553 8.486h-1.035zm10.796-8.995h3.55c2.144 0 3.327 1.089 3.032 2.685-.296 1.596-1.923 2.683-3.993 2.683h-2.589l-.666 3.627h-.961l1.627-8.994zm.074 4.86h2.515c1.553 0 2.736-.87 2.958-2.175.221-1.305-.666-2.176-2.145-2.176h-2.514l-.814 4.352zm9.244 3.337c1.48 0 2.218-.434 3.032-1.523l-3.032-6.673h1.109l2.663 5.73 4.141-5.73h.592l-5.029 6.89c-1.109 1.596-2.07 2.103-3.623 2.103l.147-.798v.001zm9.91.798l1.628-8.994h8.133l-1.627 8.994h-.961l1.553-8.486h-6.137l-1.554 8.486h-1.035zm12.053 0l1.628-8.994h8.135l-1.627 8.994h-.962l1.554-8.486h-6.138l-1.553 8.486h-1.037z"/></g><defs><clipPath id="clip0_400_5367"><path fill="#fff" d="M0 0h198v47H0z"/></clipPath></defs></svg>