<svg width="186" height="86" viewBox="0 0 186 86" fill="none" xmlns="http://www.w3.org/2000/svg">
<g clip-path="url(#clip0_400_5215)">
<path fill-rule="evenodd" clip-rule="evenodd" d="M6.80899 24.9555C9.50945 23.5643 12.669 23.2475 15.6819 23.5952C16.9065 23.7275 18.0978 24.0769 19.2002 24.627V29.3415C17.9328 28.5641 16.5179 28.0588 15.0454 27.8576C13.2322 27.6528 11.3149 27.7841 9.67147 28.6304C8.15742 29.4423 6.99741 30.7874 6.41549 32.4059C5.69496 34.4035 5.53615 36.561 5.95641 38.6428C6.34219 40.575 7.27192 42.4646 8.85362 43.6664C10.2956 44.7499 12.0975 45.2381 13.8881 45.0305C15.5853 44.8887 17.2312 44.377 18.7103 43.5312C19.1617 44.7755 19.64 46.0121 20.0875 47.2602C18.2744 48.4397 16.2182 49.1927 14.0732 49.4629C11.925 49.7303 9.74425 49.5165 7.68856 48.8369C5.70328 48.1514 3.96049 46.9012 2.67342 45.2392C1.27544 43.3691 0.398127 41.1608 0.131133 38.8399C-0.230867 36.2465 0.0909918 33.6033 1.06472 31.1731C2.1745 28.4785 4.21278 26.2722 6.80899 24.9555ZM158.887 31.6871C160.631 31.1615 162.359 30.6167 164.111 30.095C164.111 32.3402 164.111 34.593 164.111 36.8382C165.801 36.8807 167.506 36.73 169.18 37.0198C170.746 37.2826 172.347 37.8468 173.47 39.0177C174.281 39.8549 174.778 40.9469 174.878 42.1091C175.027 43.3452 174.822 44.5982 174.288 45.7222C173.601 47.0863 172.258 47.9906 170.85 48.4775C168.536 49.289 166.063 49.2503 163.656 49.2156H158.887C158.887 43.3779 158.887 37.5389 158.887 31.6987V31.6871ZM164.103 40.4822C164.103 42.1787 164.103 43.8751 164.103 45.5715C165.068 45.5715 166.032 45.5986 167.004 45.502C167.705 45.4508 168.376 45.1941 168.933 44.7639C169.674 44.1147 169.809 42.9863 169.535 42.0821C169.383 41.7094 169.137 41.3827 168.822 41.134C168.506 40.8853 168.131 40.7233 167.733 40.6639C166.537 40.405 165.303 40.4784 164.084 40.4822H164.103ZM22.2865 32.7536C20.7301 34.345 19.7683 36.4246 19.5629 38.6428C19.2652 40.8935 19.6482 43.1818 20.6623 45.2121C21.4363 46.7019 22.6686 47.9024 24.1768 48.6359C26.0247 49.5402 28.1503 49.7025 30.1718 49.4977C32.2026 49.2684 34.1543 48.5771 35.8775 47.4766C35.4917 46.3598 35.1059 45.2547 34.7202 44.1379C33.3372 44.8692 31.8196 45.3097 30.2606 45.4324C28.8039 45.6045 27.3376 45.2027 26.1713 44.3118C25.7416 43.9731 25.3887 43.5468 25.1359 43.0611C24.8832 42.5754 24.7364 42.0415 24.7053 41.4947C28.6326 41.4947 32.5598 41.4947 36.487 41.4947C36.5186 40.4364 36.4903 39.3772 36.4022 38.3221C36.1128 35.7253 34.8012 33.1478 32.5444 31.7528C30.8191 30.7212 28.7934 30.3121 26.804 30.5935C25.1069 30.7908 23.5227 31.5449 22.2981 32.7382L22.2865 32.7536ZM26.0015 34.9872C26.6024 34.5359 27.3443 34.314 28.0938 34.3614C28.8434 34.4089 29.5515 34.7226 30.0908 35.2461C30.7351 35.9735 31.1133 36.8988 31.1633 37.87C28.972 37.87 26.7847 37.87 24.605 37.87C24.6098 37.3128 24.7383 36.7637 24.9812 36.2624C25.2241 35.7611 25.5752 35.3203 26.0093 34.9717L26.0015 34.9872ZM62.288 30.6631C64.1672 30.3281 66.1041 30.5987 67.8201 31.4359C69.2615 32.1721 70.4376 33.3406 71.1841 34.7785C71.9542 36.2961 72.351 37.9761 72.3414 39.6785C72.3762 40.2736 72.3414 40.8725 72.3646 41.4676C68.4296 41.4676 64.4947 41.4676 60.5636 41.4676C60.5926 42.0001 60.7312 42.5208 60.9709 42.997C61.2106 43.4732 61.5461 43.8945 61.9562 44.2345C63.1236 45.1597 64.6089 45.5848 66.0879 45.417C67.6613 45.3015 69.1952 44.8691 70.5977 44.1456C70.9835 45.2546 71.3693 46.3598 71.7551 47.465C69.9628 48.6215 67.9179 49.3268 65.7948 49.5208C63.9619 49.7253 62.107 49.4745 60.3938 48.7905C58.8966 48.1498 57.6387 47.0534 56.7984 45.6565C55.6564 43.6566 55.1706 41.3478 55.4096 39.0563C55.5403 36.9317 56.3383 34.9029 57.6895 33.2599C58.8789 31.8749 60.5185 30.9552 62.3189 30.6631H62.288ZM61.8791 34.9717C61.4372 35.3183 61.0801 35.7612 60.8348 36.2667C60.5894 36.7723 60.4624 37.3272 60.4633 37.8893C62.6468 37.8893 64.8303 37.8893 67.0215 37.8893C66.9734 36.9084 66.5876 35.9744 65.9298 35.2461C65.3942 34.7333 64.6954 34.4259 63.956 34.3778C63.2167 34.3298 62.4841 34.5442 61.8868 34.9833L61.8791 34.9717ZM82.9041 30.609C83.8599 30.4655 84.8349 30.518 85.7699 30.7631C86.7048 31.0082 87.5804 31.4408 88.3436 32.0349C89.5153 33.0039 90.3766 34.2967 90.8203 35.7523C91.3 37.3356 91.4715 38.9964 91.3257 40.6445C91.1987 42.4324 90.6471 44.164 89.717 45.6952C88.8747 47.0804 87.6389 48.1824 86.1678 48.86C84.7018 49.5001 83.0881 49.7234 81.5037 49.5054C80.7113 49.4153 79.9409 49.1864 79.2276 48.8291V56.5307C77.4839 57.0601 75.7556 57.6088 74.0003 58.1228C74.0003 49.0468 74.0003 39.9683 74.0003 30.8872H78.3905C78.5872 31.4359 78.7763 31.9924 78.973 32.545C80.1303 31.6291 81.442 30.8292 82.9195 30.6128L82.9041 30.609ZM81.361 34.7051C80.4987 35.0756 79.7533 35.674 79.2045 36.4363C79.2045 39.3114 79.2045 42.1864 79.2045 45.0576C80.0272 45.6213 81.0242 45.8712 82.015 45.762C83.0057 45.6528 83.9247 45.1918 84.6054 44.4625C85.5351 43.4152 85.9248 42.0048 86.0675 40.6368C86.1872 39.4767 86.1391 38.3053 85.9248 37.1589C85.7357 36.274 85.3615 35.3505 84.5861 34.8404C84.1053 34.5522 83.5602 34.3888 83.0003 34.3652C82.4405 34.3416 81.8836 34.4584 81.3803 34.7051H81.361ZM99.1454 30.9142C100.457 30.564 101.822 30.4527 103.173 30.5858C104.304 30.6516 105.407 30.9712 106.398 31.5209C106.556 31.5828 106.487 31.7837 106.506 31.9074C106.506 33.1903 106.506 34.4694 106.506 35.7717C105.323 34.845 103.838 34.3919 102.34 34.5003C101.697 34.5271 101.068 34.6913 100.495 34.9819C99.9212 35.2725 99.4164 35.6828 99.0143 36.1851C98.0382 37.4372 97.7566 39.1065 97.9109 40.6561C97.9889 42.0569 98.5715 43.3819 99.5505 44.3852C100.066 44.8378 100.677 45.1683 101.337 45.3522C101.998 45.5362 102.691 45.5689 103.366 45.4479C104.351 45.2602 105.302 44.9226 106.186 44.447C106.572 45.6063 107.015 46.7154 107.42 47.8553C106.374 48.5084 105.227 48.9825 104.026 49.2581C101.56 49.8957 98.7905 49.6445 96.6031 48.2881C94.865 47.1504 93.61 45.4072 93.081 43.3959C92.267 40.4088 92.5255 37.0005 94.2923 34.396C95.447 32.696 97.1669 31.4621 99.1454 30.9142ZM123.492 32.5372C125.383 31.3012 127.581 30.6174 129.838 30.5626C131.856 30.493 134.028 30.5626 135.798 31.66C136.426 32.0792 136.957 32.6276 137.356 33.2687C137.755 33.9097 138.013 34.6286 138.113 35.3775C138.352 36.6643 138.248 37.982 138.271 39.2843V49.2233C136.921 49.2233 135.571 49.2233 134.217 49.2233C133.916 48.69 133.657 48.1336 133.372 47.5887C132.562 48.3762 131.577 48.9591 130.498 49.289C128.6 49.8068 126.436 49.6754 124.761 48.5625C124.132 48.1436 123.595 47.5995 123.184 46.964C122.773 46.3284 122.497 45.6151 122.373 44.8682C122.115 43.5346 122.295 42.1531 122.886 40.9305C123.658 39.4659 125.151 38.5424 126.698 38.0902C128.762 37.4526 130.941 37.6149 133.075 37.4758C133.147 36.7887 132.96 36.0994 132.55 35.5437C131.917 34.7708 130.887 34.5274 129.938 34.4887C128.234 34.4488 126.553 34.8922 125.089 35.7678C124.554 34.6935 124.019 33.6205 123.484 32.5488L123.492 32.5372ZM129.761 41.1276C128.959 41.2551 128.052 41.5797 127.685 42.3719C127.506 42.7854 127.456 43.2438 127.543 43.6863C127.63 44.1287 127.849 44.5342 128.172 44.8489C128.739 45.2943 129.446 45.5231 130.166 45.4942C131.194 45.5446 132.209 45.2539 133.055 44.6673C133.055 43.4307 133.055 42.1941 133.055 40.9614C131.956 41.0194 130.853 40.9614 129.761 41.1276ZM38.1498 30.9142C40.5647 30.9142 42.9759 30.9142 45.387 30.9142C47.3159 30.8485 49.3258 30.8369 51.1274 31.6175C51.6815 31.8252 52.1794 32.1597 52.5813 32.5945C52.9832 33.0293 53.278 33.5523 53.4421 34.1216C53.6955 35.1392 53.6018 36.2125 53.1759 37.1705C52.9394 37.6328 52.6054 38.0381 52.1971 38.3584C51.7887 38.6787 51.3158 38.9062 50.8111 39.0254C50.6799 39.0795 50.5024 39.0756 50.4253 39.2147C51.5286 39.4273 52.6744 39.8214 53.4228 40.7102C54.2908 41.7304 54.4297 43.1641 54.2715 44.447C54.1858 45.1064 53.9596 45.7395 53.6081 46.3036C53.2567 46.8677 52.7882 47.3494 52.2346 47.7162C50.4831 48.8755 48.3035 49.1808 46.2396 49.2156C43.5391 49.2156 40.8386 49.2156 38.1382 49.2156C38.1382 43.1048 38.1382 36.9979 38.1382 30.8949L38.1498 30.9142ZM43.5237 34.4192V37.9975C44.2952 37.9975 45.1015 37.9975 45.8885 37.9975C46.6176 37.9357 47.4085 37.8545 48.0103 37.3908C48.2855 37.1447 48.4695 36.8126 48.5325 36.4486C48.5956 36.0845 48.5339 35.7098 48.3575 35.3852C48.018 34.7863 47.2927 34.5815 46.6562 34.4887C45.6185 34.3728 44.5691 34.4539 43.5237 34.4307V34.4192ZM43.4157 41.2628C43.4157 42.7506 43.4157 44.2383 43.4157 45.73C44.52 45.77 45.6258 45.7364 46.7256 45.6295C47.4156 45.5564 48.0637 45.2623 48.5735 44.7909C48.8887 44.4394 49.0713 43.9886 49.0896 43.5165C49.1079 43.0443 48.9608 42.5807 48.6738 42.2057C48.1956 41.7294 47.5669 41.4343 46.8954 41.371C45.7422 41.2505 44.5818 41.2143 43.4234 41.2628H43.4157ZM107.42 30.8833C107.401 32.2629 107.42 33.6463 107.42 35.0258C109.114 35.0645 110.808 35.0258 112.501 35.0258V49.2001H117.725C117.725 44.4741 117.725 39.748 117.725 35.0181C119.191 35.0181 120.659 35.0181 122.13 35.0181C122.562 33.6347 122.997 32.2513 123.434 30.8679C118.099 30.8679 112.763 30.8679 107.428 30.8679L107.42 30.8833ZM142.685 30.8833H156.731C156.731 36.9915 156.731 43.1022 156.731 49.2156C154.991 49.2156 153.259 49.2156 151.511 49.2156C151.488 44.4895 151.511 39.7596 151.511 35.0297H147.464C147.476 37.5701 147.315 40.1084 146.982 42.6269C146.724 44.3968 146.118 46.1859 144.868 47.5075C144.277 48.1371 143.569 48.6437 142.782 48.9985C141.996 49.3533 141.147 49.5491 140.285 49.5749C139.818 48.2727 139.321 46.982 138.838 45.6836C139.385 45.5997 139.906 45.3975 140.367 45.0912C140.827 44.7849 141.215 44.3818 141.504 43.9099C141.946 43.0212 142.225 42.0607 142.33 41.0735C142.766 37.6961 142.654 34.2839 142.673 30.8872L142.685 30.8833ZM4.7875 70.1446C4.87237 69.9437 5.00739 69.6925 5.25043 69.6886C5.85611 69.6886 6.46178 69.6886 7.0636 69.6886C7.28735 69.6886 7.41466 69.8934 7.48024 70.075C9.02336 73.8981 10.5665 77.7186 12.1096 81.5366C12.1868 81.7143 12.2215 82.0312 11.9746 82.0776C11.311 82.0969 10.6398 82.0776 9.97624 82.0776C9.85408 82.0813 9.73432 82.0431 9.6368 81.9693C9.53928 81.8955 9.46984 81.7905 9.44001 81.6718C9.08895 80.7908 8.78032 79.8981 8.4254 79.0209C6.82056 79.0441 5.21571 79.0016 3.61473 79.0441C3.31768 79.929 2.96662 80.7946 2.65413 81.6757C2.58855 81.8689 2.45739 82.0892 2.22206 82.0621C1.55466 82.0621 0.887262 82.0853 0.223721 82.0621C0.166726 81.9872 0.134274 81.8965 0.13082 81.8024C0.127366 81.7083 0.15308 81.6154 0.204432 81.5366C1.74755 77.7392 3.27524 73.9368 4.7875 70.1291V70.1446ZM6.04514 72.3357C5.50891 73.9973 4.8878 75.6165 4.2937 77.2626C5.45104 77.2626 6.60838 77.2626 7.79273 77.2626C7.20634 75.6242 6.58909 73.9935 6.04514 72.3395V72.3357ZM38.4198 74.5808C39.7006 72.9385 42.4666 72.5675 43.9596 74.121C44.002 73.8621 43.921 73.4718 44.2258 73.3481C44.7582 73.3249 45.2944 73.3481 45.8268 73.3481C45.869 73.3435 45.9116 73.3482 45.9518 73.3619C45.992 73.3756 46.0286 73.398 46.0592 73.4275C46.0898 73.457 46.1135 73.4929 46.1286 73.5326C46.1438 73.5723 46.1501 73.6149 46.147 73.6573C46.1701 75.8329 46.1238 78.0085 46.147 80.1802C46.147 80.6478 46.7372 80.3618 46.9417 80.6169C46.9764 81.0309 46.9764 81.4471 46.9417 81.8612C46.8954 82.1162 46.5906 82.0776 46.4016 82.0814C45.8152 82.0467 45.1594 82.1935 44.6347 81.8573C44.3399 81.6476 44.1347 81.3345 44.0599 80.9801C43.5022 81.6335 42.7413 82.08 41.8995 82.2476C40.9288 82.4186 39.9292 82.226 39.0911 81.7066C38.6408 81.3976 38.2607 80.997 37.9755 80.5309C37.6904 80.0648 37.5065 79.5437 37.4361 79.0016C37.1776 77.4829 37.3821 75.7865 38.3812 74.5576L38.4198 74.5808ZM40.9389 75.2184C40.0979 75.7053 39.7816 76.7642 39.7816 77.6684C39.7816 78.5726 39.9899 79.6237 40.8001 80.1531C41.8108 80.7869 43.2382 80.2343 43.7899 79.2412C43.8169 78.0819 43.7899 76.9496 43.7899 75.8058C43.0955 75.0329 41.861 74.6658 40.9197 75.2184H40.9389ZM63.7733 74.1751C64.5096 73.5046 65.469 73.1332 66.4641 73.1332C67.4592 73.1332 68.4185 73.5046 69.1549 74.1751C69.9891 75.0681 70.4418 76.2524 70.4164 77.4752C70.4769 78.6689 70.127 79.8474 69.4249 80.8139C69.0577 81.2938 68.5827 81.68 68.0383 81.9412C67.494 82.2024 66.8958 82.3312 66.2924 82.3172C65.427 82.3598 64.5785 82.0664 63.9237 81.4979C63.9237 82.862 63.9237 84.2029 63.9237 85.5825C63.9309 85.6332 63.9272 85.6849 63.9126 85.734C63.898 85.7831 63.873 85.8285 63.8393 85.867C63.8056 85.9056 63.764 85.9363 63.7173 85.9573C63.6706 85.9782 63.6199 85.9888 63.5688 85.9882C63.0364 85.9882 62.504 85.9882 61.9717 85.9882C61.9191 85.9884 61.8671 85.977 61.8193 85.955C61.7716 85.933 61.7291 85.9008 61.695 85.8608C61.6609 85.8207 61.6359 85.7737 61.6217 85.7229C61.6075 85.6722 61.6045 85.619 61.6129 85.567V73.808C61.6006 73.756 61.6008 73.7019 61.6133 73.65C61.6258 73.5981 61.6503 73.5499 61.6849 73.5093C61.7194 73.4686 61.763 73.4367 61.8122 73.4161C61.8614 73.3955 61.9147 73.3868 61.9678 73.3906C62.49 73.3713 63.0127 73.379 63.5341 73.4138C63.8504 73.5413 63.7385 73.9432 63.7694 74.1867L63.7733 74.1751ZM65.3974 75.002C64.8506 75.1139 64.3481 75.3824 63.9507 75.7749C63.9083 77.054 63.9237 78.3485 63.9507 79.6392C64.3091 80.057 64.8011 80.3374 65.3428 80.4325C65.8845 80.5276 66.4423 80.4316 66.9212 80.1609C67.6928 79.674 67.9706 78.7311 67.9821 77.8732C67.9937 77.0153 67.8934 76.1265 67.3032 75.4928C67.0552 75.2547 66.7511 75.0834 66.4192 74.9949C66.0873 74.9063 65.7384 74.9035 65.4051 74.9866L65.3974 75.002ZM73.8846 74.7624C74.344 74.2239 74.9205 73.7979 75.5699 73.5172C76.2192 73.2366 76.9241 73.1086 77.6305 73.1433C78.1869 73.114 78.7429 73.2079 79.259 73.4183C79.7751 73.6287 80.2386 73.9504 80.6164 74.3606C81.4921 75.2571 81.6194 76.598 81.5924 77.7882C81.5924 77.8907 81.5518 77.989 81.4795 78.0614C81.4071 78.1339 81.309 78.1746 81.2067 78.1746C79.2546 78.1746 77.3064 78.1746 75.3544 78.1746C75.4032 78.6853 75.6061 79.1689 75.9363 79.561C76.2664 79.9531 76.708 80.2352 77.2023 80.3695C78.3982 80.6671 79.6134 80.2961 80.7592 79.9831C80.9764 80.3756 81.1276 80.8012 81.2067 81.2429C81.2199 81.2926 81.2232 81.3445 81.2161 81.3955C81.2091 81.4465 81.192 81.4956 81.1657 81.5399C81.1395 81.5842 81.1047 81.6228 81.0634 81.6534C81.022 81.684 80.975 81.706 80.925 81.7182C79.7384 82.1807 78.4651 82.3772 77.1946 82.294C76.0616 82.2651 74.9786 81.821 74.1507 81.0458C73.4302 80.3065 72.9978 79.3332 72.9317 78.3021C72.8495 77.678 72.8911 77.0437 73.0539 76.4357C73.2167 75.8276 73.4977 75.2577 73.8807 74.7586L73.8846 74.7624ZM76.2687 75.2609C75.7897 75.6529 75.4768 76.2122 75.393 76.826C76.693 76.826 77.9931 76.826 79.2932 76.826C79.3101 76.5363 79.2648 76.2463 79.1603 75.9757C79.0559 75.705 78.8946 75.46 78.6875 75.2571C78.3414 74.9885 77.9159 74.8428 77.4781 74.8428C77.0403 74.8428 76.6148 74.9885 76.2687 75.2571V75.2609ZM110.831 74.1944C111.558 73.5305 112.503 73.1576 113.487 73.147C114.471 73.1363 115.425 73.4885 116.166 74.1364C116.863 74.8333 117.303 75.7459 117.416 76.7255C117.617 77.9823 117.393 79.2705 116.779 80.385C116.318 81.1923 115.581 81.8056 114.704 82.1123C113.473 82.4988 111.976 82.4099 110.981 81.5056C110.981 82.8311 110.981 84.1566 110.981 85.482C110.981 85.6791 110.95 85.9457 110.715 85.9844C110.152 86.023 109.588 85.9844 109.025 85.9844C108.973 85.9846 108.921 85.9733 108.873 85.9512C108.826 85.9292 108.783 85.897 108.75 85.8568C108.716 85.8166 108.691 85.7695 108.677 85.7188C108.664 85.6681 108.661 85.6149 108.67 85.5632C108.67 81.6396 108.67 77.7135 108.67 73.7848C108.658 73.7323 108.658 73.6777 108.671 73.6254C108.684 73.573 108.709 73.5244 108.744 73.4834C108.778 73.4424 108.822 73.4102 108.872 73.3894C108.922 73.3686 108.975 73.3597 109.029 73.3636C109.523 73.3636 110.017 73.3636 110.511 73.3636C110.896 73.4177 110.804 73.893 110.823 74.1712L110.831 74.1944ZM112.451 75.0214C111.907 75.1348 111.407 75.4032 111.012 75.7942C110.966 77.0733 110.981 78.3678 111.012 79.6585C111.733 80.4932 113.099 80.8178 114.037 80.1416C114.781 79.6199 115.055 78.6538 115.047 77.7843C115.04 76.9149 114.916 76.0531 114.307 75.4657C114.058 75.2484 113.76 75.0943 113.439 75.0163C113.118 74.9383 112.783 74.9387 112.463 75.0175L112.451 75.0214ZM166.707 74.1055C167.621 73.4368 168.737 73.1038 169.867 73.1626C170.405 73.1476 170.941 73.2485 171.437 73.4585C171.934 73.6685 172.38 73.9827 172.745 74.3799C173.62 75.2725 173.748 76.6134 173.721 77.8036C173.723 77.856 173.715 77.9083 173.697 77.9575C173.679 78.0066 173.651 78.0515 173.615 78.0895C173.579 78.1274 173.535 78.1576 173.487 78.1782C173.439 78.1989 173.387 78.2095 173.335 78.2094C171.383 78.2094 169.431 78.2094 167.479 78.2094C167.528 78.7188 167.732 79.201 168.062 79.5917C168.392 79.9825 168.833 80.2632 169.327 80.3966C170.522 80.698 171.734 80.3309 172.883 80.0102C173.101 80.4013 173.252 80.8256 173.331 81.2661C173.345 81.3168 173.349 81.37 173.342 81.4224C173.335 81.4747 173.318 81.525 173.291 81.5703C173.263 81.6155 173.227 81.6548 173.185 81.6855C173.142 81.7163 173.093 81.7379 173.042 81.7491C171.869 82.2008 170.611 82.392 169.357 82.3094C168.528 82.2746 167.72 82.0372 167.004 81.6177C166.117 81.0667 165.48 80.1903 165.23 79.1755C164.747 77.3902 165.187 75.2416 166.723 74.0978L166.707 74.1055ZM168.462 75.2339C168.206 75.4263 167.991 75.6679 167.83 75.9446C167.668 76.2213 167.563 76.5275 167.521 76.8453C168.821 76.8453 170.121 76.8453 171.421 76.8453C171.439 76.5561 171.394 76.2665 171.289 75.9964C171.185 75.7263 171.023 75.482 170.816 75.2803C170.482 75.0177 170.071 74.8712 169.647 74.8628C169.222 74.8545 168.807 74.9847 168.462 75.2339ZM14.7445 73.893C14.7175 73.6495 14.8371 73.352 15.1303 73.3713C16.3956 73.3713 17.6571 73.3713 18.9225 73.3713C19.9255 73.3713 21.0173 73.495 21.8351 74.1442C22.0385 74.3225 22.201 74.5427 22.3117 74.7897C22.4223 75.0367 22.4784 75.3047 22.4762 75.5754C22.4741 75.8461 22.4136 76.1132 22.2989 76.3583C22.1843 76.6035 22.0182 76.821 21.812 76.996C21.5266 77.1904 21.2093 77.333 20.8745 77.4172C21.238 77.4281 21.5948 77.5176 21.9205 77.6797C22.2461 77.8418 22.5328 78.0726 22.761 78.3562C23.0498 78.855 23.1342 79.4465 22.9963 80.0063C22.9247 80.3458 22.7757 80.6641 22.5608 80.9362C22.346 81.2084 22.0712 81.4271 21.758 81.5752C20.8622 81.9772 19.8831 82.1575 18.9032 82.1008C17.6378 82.1008 16.3725 82.1008 15.1071 82.1008C14.8255 82.1201 14.7213 81.8264 14.7213 81.5868C14.7213 79.0261 14.7213 76.4627 14.7213 73.8968L14.7445 73.893ZM17.0823 74.7354C17.0823 75.4387 17.0823 76.1381 17.0823 76.8376C17.9272 76.8144 18.8183 76.9187 19.613 76.5864C19.7314 76.5231 19.835 76.4354 19.9172 76.3292C19.9994 76.2229 20.0582 76.1005 20.0899 75.9699C20.1216 75.8393 20.1254 75.7035 20.1011 75.5713C20.0767 75.4392 20.0248 75.3136 19.9487 75.203C19.6931 74.9624 19.3579 74.8248 19.0074 74.8165C18.3662 74.7564 17.7222 74.7331 17.0785 74.747L17.0823 74.7354ZM17.0823 78.2133C17.0823 79.0557 17.0823 79.8942 17.0823 80.7366C17.9096 80.769 18.7381 80.7316 19.559 80.6246C20.1184 80.5203 20.7164 80.099 20.6855 79.4653C20.6546 78.8316 20.1608 78.4799 19.6439 78.3601C18.7995 78.2152 17.9417 78.1647 17.0862 78.2094L17.0823 78.2133ZM25.9861 73.8852C25.9591 73.6495 26.0903 73.3636 26.3719 73.3713C26.9043 73.3713 27.4366 73.3713 27.969 73.3713C28.0214 73.3701 28.0733 73.3805 28.1213 73.4016C28.1692 73.4226 28.212 73.454 28.2465 73.4934C28.2811 73.5328 28.3066 73.5793 28.3213 73.6296C28.336 73.68 28.3395 73.7329 28.3317 73.7848C28.3317 75.3034 28.3317 76.8221 28.3317 78.3408C29.5623 77.1544 30.7312 75.8985 31.9811 74.7315C31.9811 74.3876 31.9618 74.0398 31.9811 73.6959C31.99 73.6019 32.0354 73.5151 32.1076 73.4544C32.1798 73.3936 32.2729 73.3638 32.3669 73.3713C32.8993 73.3713 33.4317 73.3713 33.964 73.3713C34.0158 73.3747 34.0664 73.3885 34.1127 73.4118C34.159 73.4352 34.2002 73.4677 34.2337 73.5074C34.2671 73.5471 34.2923 73.5932 34.3076 73.6428C34.3229 73.6924 34.3281 73.7447 34.3228 73.7964V81.6757C34.3281 81.7274 34.3229 81.7796 34.3076 81.8293C34.2923 81.8789 34.2671 81.9249 34.2337 81.9646C34.2002 82.0043 34.159 82.0368 34.1127 82.0602C34.0664 82.0836 34.0158 82.0974 33.964 82.1008H32.3515C32.2981 82.1009 32.2453 82.09 32.1964 82.0687C32.1474 82.0474 32.1034 82.0161 32.0672 81.9769C32.0309 81.9376 32.0032 81.8913 31.9857 81.8408C31.9682 81.7903 31.9614 81.7367 31.9657 81.6834C31.9657 80.157 31.9657 78.6267 31.9657 77.1003C30.7505 78.3021 29.5314 79.5001 28.3239 80.7135C28.3239 81.069 28.3239 81.4284 28.3239 81.7877C28.3171 81.8728 28.2782 81.9521 28.2152 82.0095C28.1521 82.0669 28.0696 82.0981 27.9845 82.0969C27.5254 82.0969 27.0624 82.0969 26.6034 82.0969C26.449 82.0969 26.2754 82.1162 26.152 82.0119C26.0285 81.9075 26.0054 81.6486 25.9938 81.4631C25.9938 78.9359 25.9938 76.4086 25.9938 73.8775L25.9861 73.8852ZM49.8273 73.8852C49.8003 73.6418 49.9238 73.3442 50.2131 73.3674C52.6319 73.3674 55.0546 73.3674 57.4773 73.3674C57.5374 73.3547 57.5997 73.3565 57.659 73.3727C57.7182 73.3889 57.7728 73.419 57.818 73.4606C57.8633 73.5022 57.898 73.554 57.9193 73.6117C57.9406 73.6694 57.9478 73.7314 57.9403 73.7925V81.6834C57.9477 81.7853 57.9146 81.8861 57.848 81.9636C57.7815 82.041 57.6871 82.089 57.5854 82.0969C57.0221 82.0969 56.4627 82.0969 55.8995 82.0969C55.6565 82.066 55.5947 81.7877 55.6024 81.5829V74.8397C54.4451 74.8397 53.3071 74.8397 52.1613 74.8397C52.1613 77.1158 52.1613 79.3957 52.1613 81.6679C52.1696 81.7196 52.1667 81.7725 52.1528 81.8229C52.1388 81.8734 52.1141 81.9202 52.0804 81.9602C52.0467 82.0002 52.0048 82.0325 51.9575 82.0547C51.9102 82.077 51.8586 82.0887 51.8064 82.0892C51.2431 82.0892 50.6799 82.1085 50.1205 82.0892C50.0194 82.0525 49.9344 81.9812 49.8807 81.8878C49.8271 81.7945 49.8082 81.6851 49.8273 81.5791C49.8273 79.0158 49.8273 76.4524 49.8273 73.8891V73.8852ZM86.0906 73.6804C86.099 73.6293 86.1175 73.5804 86.1451 73.5366C86.1727 73.4928 86.2088 73.455 86.2512 73.4254C86.2937 73.3958 86.3417 73.3751 86.3923 73.3645C86.4429 73.3539 86.4951 73.3536 86.5459 73.3636H92.3326C92.3896 73.3559 92.4477 73.3611 92.5024 73.3788C92.5572 73.3965 92.6074 73.4263 92.6492 73.466C92.691 73.5056 92.7234 73.5541 92.744 73.608C92.7647 73.6618 92.773 73.7196 92.7685 73.777C92.7685 76.057 92.7685 78.3382 92.7685 80.6207C93.0694 80.6207 93.378 80.6207 93.6828 80.6207C93.8178 80.6632 93.9644 80.7714 93.9451 80.9376C93.9451 82.0969 93.9451 83.2562 93.9451 84.3923C93.9721 84.5932 93.7677 84.7169 93.5902 84.7092C93.1311 84.7092 92.6682 84.7285 92.2091 84.7092C92.0471 84.7092 91.858 84.5932 91.8812 84.4077C91.8812 83.6349 91.8812 82.862 91.8812 82.0892C89.852 82.0892 87.8189 82.0892 85.7897 82.0892C85.7897 82.8852 85.7897 83.6813 85.7897 84.4734C85.755 84.7014 85.4772 84.7207 85.2998 84.7207C84.8508 84.7375 84.4012 84.7272 83.9534 84.6898C83.6757 84.628 83.7258 84.3034 83.722 84.087C83.7412 83.005 83.6949 81.9191 83.7451 80.841C83.8608 80.4739 84.3662 80.7676 84.5167 80.4546C85.2371 79.4884 85.7279 78.3703 85.9518 77.1854C86.1794 76.0261 86.0405 74.8397 86.0945 73.6727L86.0906 73.6804ZM88.3397 74.8397C88.4444 76.8714 87.9145 78.8853 86.8236 80.6014C88.0273 80.6014 89.2347 80.6014 90.4384 80.6014C90.4384 78.6693 90.4384 76.7603 90.4384 74.8397H88.3397ZM96.8732 73.8891C96.85 73.6457 96.9696 73.3481 97.259 73.3713C99.6817 73.3713 102.104 73.3713 104.527 73.3713C104.587 73.3585 104.649 73.3603 104.709 73.3765C104.768 73.3927 104.822 73.4229 104.868 73.4645C104.913 73.506 104.948 73.5579 104.969 73.6156C104.99 73.6733 104.997 73.7353 104.99 73.7964C104.99 76.4241 104.99 79.0544 104.99 81.6873C104.994 81.738 104.987 81.789 104.971 81.8373C104.955 81.8856 104.93 81.9303 104.896 81.9687C104.863 82.0071 104.822 82.0386 104.777 82.0612C104.731 82.0839 104.682 82.0973 104.631 82.1008C104.072 82.1008 103.509 82.1008 102.953 82.1008C102.71 82.0698 102.648 81.7993 102.656 81.5945C102.656 79.3455 102.656 77.1003 102.656 74.8513C101.499 74.8513 100.341 74.8513 99.211 74.8513C99.211 77.1274 99.211 79.4073 99.211 81.6834C99.2158 81.7351 99.2101 81.7872 99.1942 81.8367C99.1784 81.8861 99.1529 81.9318 99.119 81.9712C99.0852 82.0105 99.0438 82.0425 98.9973 82.0655C98.9508 82.0884 98.9001 82.1017 98.8484 82.1046C98.289 82.1046 97.7296 82.1046 97.1741 82.1046C97.0714 82.0709 96.9843 82.001 96.929 81.908C96.8736 81.8149 96.8538 81.7049 96.8732 81.5984V73.8891ZM120.51 73.8891C120.491 73.7836 120.51 73.6748 120.564 73.5821C120.617 73.4893 120.702 73.4188 120.803 73.3829C121.366 73.3558 121.93 73.3829 122.489 73.3829C122.542 73.3832 122.594 73.3951 122.641 73.4176C122.689 73.44 122.731 73.4726 122.765 73.5131C122.799 73.5535 122.823 73.6009 122.837 73.6518C122.85 73.7027 122.853 73.756 122.844 73.808C122.844 75.3189 122.844 76.8337 122.844 78.3447C124.082 77.166 125.247 75.9063 126.497 74.7431C126.48 74.3968 126.48 74.0499 126.497 73.7036C126.507 73.6145 126.549 73.5322 126.616 73.4728C126.684 73.4135 126.77 73.3814 126.86 73.3829C127.388 73.3829 127.921 73.3829 128.453 73.3829C128.508 73.381 128.563 73.3909 128.614 73.4119C128.665 73.433 128.711 73.4647 128.748 73.505C128.786 73.5452 128.815 73.5931 128.832 73.6454C128.85 73.6976 128.856 73.7531 128.85 73.808C128.85 76.4408 128.85 79.0737 128.85 81.7066C128.857 81.8079 128.823 81.9076 128.757 81.9843C128.69 82.0609 128.597 82.1083 128.496 82.1162C127.932 82.1162 127.365 82.1162 126.806 82.1162C126.571 82.066 126.505 81.8148 126.517 81.6061C126.517 80.1145 126.517 78.6229 126.517 77.1313C125.297 78.3266 124.084 79.5271 122.875 80.7328C122.852 81.1192 122.898 81.525 122.844 81.9153C122.801 81.9924 122.735 82.0544 122.656 82.0925C122.576 82.1306 122.487 82.1429 122.4 82.1278C121.876 82.1278 121.347 82.1278 120.826 82.1278C120.724 82.0918 120.638 82.02 120.584 81.9256C120.53 81.8312 120.512 81.7205 120.533 81.6138C120.533 79.0531 120.533 76.4898 120.533 73.9239L120.51 73.8891ZM133.21 74.2292C133.885 73.6147 134.826 73.4563 135.702 73.3983C137.033 73.3365 138.368 73.3983 139.702 73.3713C139.907 73.3442 140.219 73.4138 140.223 73.6727C140.223 76.3429 140.223 79.017 140.223 81.6873C140.232 81.7347 140.231 81.7835 140.22 81.8305C140.209 81.8775 140.188 81.9216 140.159 81.9602C140.13 81.9987 140.093 82.0307 140.051 82.0543C140.009 82.0778 139.963 82.0923 139.915 82.0969C139.382 82.1162 138.854 82.0969 138.321 82.0969C138.264 82.103 138.206 82.0962 138.152 82.077C138.098 82.0577 138.049 82.0266 138.008 81.9859C137.967 81.9451 137.936 81.8958 137.917 81.8414C137.898 81.7871 137.891 81.7291 137.897 81.6718C137.874 80.6941 137.897 79.7126 137.897 78.7311C137.187 78.7504 136.311 78.6152 135.791 79.2257C135.361 79.8721 134.975 80.546 134.633 81.2429C134.444 81.5791 134.286 82.0776 133.827 82.093C133.194 82.093 132.558 82.1162 131.925 82.093C131.705 82.0273 131.779 81.7723 131.871 81.6293C132.284 80.9221 132.712 80.2266 133.129 79.5233C133.367 79.0898 133.712 78.7251 134.132 78.4644C133.776 78.3722 133.448 78.1965 133.173 77.9519C132.899 77.7073 132.687 77.4009 132.554 77.0578C132.387 76.5738 132.358 76.0524 132.472 75.553C132.586 75.0536 132.838 74.5963 133.198 74.233L133.21 74.2292ZM135.451 75.002C134.556 75.2841 134.602 76.8067 135.49 77.0656C136.261 77.3361 137.095 77.224 137.893 77.2472V74.832C137.079 74.832 136.238 74.7547 135.451 75.002ZM142.812 73.5684C142.832 73.4945 142.88 73.4312 142.945 73.3917C143.01 73.3521 143.088 73.3393 143.163 73.3558H150.632C150.778 73.3365 151.017 73.3868 151.017 73.5761C151.035 73.9224 151.035 74.2693 151.017 74.6156C151.017 74.7431 150.871 74.8359 150.759 74.8281C149.868 74.8281 148.977 74.8281 148.085 74.8281C148.085 77.1119 148.085 79.3919 148.085 81.6757C148.089 81.7287 148.082 81.7818 148.064 81.8319C148.047 81.8819 148.019 81.9278 147.983 81.9666C147.946 82.0054 147.903 82.0363 147.854 82.0574C147.805 82.0785 147.753 82.0893 147.7 82.0892C147.275 82.0892 146.855 82.0892 146.43 82.0892C146.226 82.0892 145.979 82.1278 145.833 81.9539C145.75 81.7672 145.718 81.5619 145.74 81.3588C145.74 79.1832 145.74 77.0115 145.74 74.8359C144.845 74.8088 143.95 74.8359 143.039 74.8359C142.881 74.8359 142.762 74.6697 142.777 74.5267C142.777 74.2099 142.777 73.893 142.777 73.58L142.812 73.5684ZM153.702 73.8852C153.681 73.7775 153.699 73.6655 153.753 73.5702C153.808 73.4749 153.896 73.4028 153.999 73.3674C154.559 73.3404 155.122 73.3674 155.682 73.3674C155.733 73.3674 155.784 73.3786 155.831 73.4001C155.878 73.4217 155.92 73.4532 155.954 73.4925C155.987 73.5318 156.012 73.5779 156.027 73.6277C156.041 73.6774 156.044 73.7297 156.036 73.7809C156.036 75.2957 156.036 76.8144 156.036 78.3292C157.279 77.1506 158.44 75.8908 159.69 74.7277C159.671 74.3603 159.681 73.9921 159.721 73.6263C159.749 73.5314 159.813 73.4511 159.9 73.4022C159.986 73.3533 160.087 73.3395 160.184 73.3636C160.677 73.3636 161.175 73.3636 161.673 73.3636C161.726 73.3672 161.778 73.3819 161.825 73.4067C161.873 73.4315 161.914 73.4659 161.948 73.5077C161.981 73.5495 162.005 73.5977 162.019 73.6494C162.033 73.7011 162.036 73.7551 162.028 73.808C162.028 76.4408 162.028 79.0724 162.028 81.7027C162.035 81.8046 162.002 81.9054 161.935 81.9829C161.869 82.0604 161.774 82.1083 161.673 82.1162C161.109 82.1162 160.546 82.1355 159.987 82.1162C159.748 82.0698 159.682 81.8148 159.694 81.6061C159.694 80.1145 159.694 78.619 159.694 77.1274C158.478 78.3292 157.255 79.5271 156.052 80.7405C156.052 81.0999 156.052 81.4554 156.052 81.8148C156.052 82.0466 155.79 82.151 155.597 82.1278C155.072 82.1278 154.543 82.1278 154.019 82.1278C153.917 82.0926 153.832 82.0221 153.778 81.9292C153.725 81.8363 153.706 81.7271 153.726 81.6216C153.715 79.0351 153.711 76.4602 153.714 73.8968L153.702 73.8852Z" fill="#00579C"/>
<path fill-rule="evenodd" clip-rule="evenodd" d="M177.679 0.123535C177.493 0.123535 175.858 0.270379 175.673 0.2897C170.183 0.848902 164.944 2.87482 160.504 6.15571C159.755 6.70512 159.247 7.52358 159.088 8.43951C158.956 9.31295 159.09 10.2059 159.474 11.0015C160.171 12.3616 160.966 13.6698 161.85 14.9161C163.609 9.28193 174.658 6.80105 181.116 6.75081L180.645 3.24975L177.679 0.123535Z" fill="url(#paint0_linear_400_5215)"/>
<path fill-rule="evenodd" clip-rule="evenodd" d="M182.13 21.1877C182.208 21.0177 183.215 19.642 183.288 19.4526C185.549 14.41 186.417 8.85126 185.799 3.35784C185.699 2.43406 185.246 1.58507 184.534 0.989021C183.847 0.436761 183.009 0.105406 182.13 0.0384034C180.606 -0.0366344 179.079 -0.00305925 177.559 0.138875C181.548 4.48621 178.18 15.314 174.986 20.9365L182.13 21.1877Z" fill="url(#paint1_linear_400_5215)"/>
<path fill-rule="evenodd" clip-rule="evenodd" d="M161.842 14.9162C165.295 19.7865 170.095 23.5394 175.649 25.713C176.46 26.0311 177.354 26.0665 178.188 25.8135C178.981 25.5396 179.678 25.0433 180.198 24.3837C181.438 22.8506 182.486 21.1713 183.319 19.3833C180.024 23.0273 169.269 14.1704 166.869 9.93896C164.396 11.2065 162.49 12.8449 161.842 14.9162Z" fill="url(#paint2_linear_400_5215)"/>
</g>
<defs>
<linearGradient id="paint0_linear_400_5215" x1="180.36" y1="6.15571" x2="159.627" y2="8.73237" gradientUnits="userSpaceOnUse">
<stop stop-color="#851112"/>
<stop offset="0.62" stop-color="#E30F15"/>
<stop offset="1" stop-color="#E40F17"/>
</linearGradient>
<linearGradient id="paint1_linear_400_5215" x1="180.572" y1="19.3792" x2="180.324" y2="1.91647" gradientUnits="userSpaceOnUse">
<stop stop-color="#221F5C"/>
<stop offset="0.6" stop-color="#0072BA"/>
<stop offset="1" stop-color="#0274BB"/>
</linearGradient>
<linearGradient id="paint2_linear_400_5215" x1="166.236" y1="11.9832" x2="178.793" y2="23.1918" gradientUnits="userSpaceOnUse">
<stop stop-color="#867C8E"/>
<stop offset="0.63" stop-color="#DDDEDF"/>
<stop offset="1" stop-color="#DFE0E2"/>
</linearGradient>
<clipPath id="clip0_400_5215">
<rect width="186" height="86" fill="white"/>
</clipPath>
</defs>
</svg>
