<svg width="205" height="66" viewBox="0 0 205 66" fill="none" xmlns="http://www.w3.org/2000/svg">
<g clip-path="url(#clip0_400_5255)">
<path d="M91.1832 60.2133C94.9776 60.8417 102.236 61.8171 111.099 62.0141C119.962 62.2485 130.402 61.6952 140.228 60.1851C150.082 58.6938 159.332 56.2178 165.854 53.5072C172.471 50.9373 176.162 47.7859 176.152 47.7578C176.199 47.7766 172.358 51.425 165.354 54.567C158.417 57.8122 148.647 60.9167 138.368 62.9332C128.08 64.9966 117.291 65.9345 108.532 66.0002C99.7537 66.1033 92.9388 65.2686 90.5413 64.9028C82.3106 63.6085 76.3075 61.3481 72.6452 59.1909C68.9262 57.0056 67.7275 55.0266 68.0956 54.6327C68.4921 54.1825 70.3421 55.111 74.061 56.3022C77.8083 57.5027 83.4622 59.0315 91.1832 60.2133Z" fill="#EA7624"/>
<path d="M149.176 32.5633L140.822 17.4535H135.395L127.872 32.5633H130.657L136.339 20.8675H136.443L142.71 32.5633H149.176ZM41.4872 25.9698L50.3881 25.8478C50.2843 27.9675 49.1422 29.1587 48.5475 29.6464C47.0656 30.8188 44.9796 30.9313 43.9791 30.9313C42.4972 30.9313 41.2229 30.7156 39.9298 29.9278C39.1086 29.4588 38.1553 28.5959 37.6833 27.9019L37.268 27.2641L34.3797 28.9617C35.2198 29.9653 36.5601 30.9595 37.9476 31.6723C40.0997 32.7509 42.0819 33.0229 44.4699 33.0229C47.0184 33.0229 51.0016 32.6477 53.8805 30.453C55.8721 28.9617 56.7877 26.8702 56.7877 25.0225C56.7877 23.1936 55.8721 21.0739 53.8805 19.5826C51.3886 17.6974 47.7735 17.0127 44.536 17.0127C42.4594 17.0127 40.5339 17.2285 38.58 17.9788C36.9565 18.5415 35.6823 19.3575 34.3797 20.4924L37.268 22.1525L37.9854 21.3928C38.5328 20.7456 39.5145 20.1172 40.4017 19.7702C41.5722 19.2262 42.8087 19.0761 44.0829 19.0761C46.6503 19.0761 48.1228 19.9296 48.9534 20.7362C49.5009 21.2521 50.2276 22.2463 50.3975 23.7751L41.4967 23.6625L41.4872 25.9698ZM159.408 33.0135C162.116 33.0135 165.892 32.3757 168.393 30.453C170.394 28.9523 171.348 26.8327 171.348 25.0131C171.348 23.2123 170.404 21.0739 168.393 19.5732C165.892 17.6599 162.116 17.0034 159.408 17.0034C156.727 17.0034 152.932 17.6599 150.384 19.5732C148.383 21.0645 147.467 23.2123 147.467 25.0131C147.467 26.8233 148.373 28.9523 150.384 30.453C152.932 32.3757 156.727 33.0135 159.408 33.0135ZM159.408 18.851C160.852 18.851 162.513 19.1699 163.768 20.8394C164.816 22.1431 164.976 23.6813 164.976 25.0131C164.976 26.3449 164.816 27.8644 163.768 29.1868C162.513 30.8469 160.852 31.147 159.408 31.147C157.954 31.147 156.302 30.8469 155.028 29.1868C154.018 27.855 153.82 26.3449 153.82 25.0131C153.82 23.6813 154.018 22.1431 155.028 20.8394C156.293 19.1699 157.954 18.851 159.408 18.851ZM121.246 21.2615C121.746 21.4303 122.199 21.6366 122.549 21.9461C123.228 22.4995 123.785 23.4093 123.785 24.8912C123.785 26.3918 123.228 27.311 122.549 27.8644C122.199 28.1739 121.746 28.3896 121.246 28.549C120.68 28.7179 120.047 28.8398 119.368 28.8398H118.745V20.9707H119.368C120.047 20.9707 120.68 21.0739 121.246 21.2615ZM121.246 30.7531C124.474 30.5468 126.183 29.7496 127.079 29.1774C128.778 28.0988 129.552 26.5513 129.552 24.8912C129.552 22.6871 128.174 21.3459 127.079 20.6331C125.55 19.6201 123.417 19.1793 121.246 19.0386C120.68 19.0011 120.094 19.0011 119.538 19.0011H118.905V16.9189H113.129V19.0011H112.524C111.949 19.0011 111.373 19.0011 110.807 19.0386C108.626 19.1699 106.484 19.6201 104.973 20.6331C103.878 21.3459 102.5 22.6871 102.5 24.8912C102.5 26.5513 103.284 28.0988 104.973 29.1774C105.861 29.7402 107.56 30.5374 110.807 30.7531C111.335 30.7625 111.892 30.8 112.524 30.8H113.129V33.0229H118.905V30.8H119.538C120.161 30.7906 120.717 30.7531 121.246 30.7531ZM110.807 21.2615C111.354 21.0739 112.005 20.9707 112.647 20.9707H113.327V28.8398H112.647C112.005 28.8398 111.345 28.7179 110.807 28.549C110.316 28.3896 109.863 28.1739 109.504 27.8644C108.853 27.3016 108.268 26.3918 108.268 24.8912C108.268 23.4093 108.853 22.4995 109.504 21.9461C109.863 21.6366 110.316 21.4209 110.807 21.2615ZM89.3236 33.0135C92.0043 33.0135 95.7893 32.3757 98.2906 30.453C100.282 28.9523 101.198 26.8327 101.198 25.0131C101.198 23.2123 100.273 21.0739 98.2906 19.5732C95.7798 17.6599 92.0043 17.0034 89.3236 17.0034C86.6052 17.0034 82.8202 17.6599 80.3095 19.5732C78.299 21.0645 77.3645 23.2123 77.3645 25.0131C77.3645 26.8233 78.299 28.9523 80.3095 30.453C82.8202 32.3757 86.6052 33.0135 89.3236 33.0135ZM89.3236 18.851C90.7489 18.851 92.4196 19.1699 93.6938 20.8394C94.7132 22.1431 94.902 23.6813 94.902 25.0131C94.902 26.3449 94.7132 27.8644 93.6938 29.1868C92.4196 30.8469 90.7489 31.147 89.3236 31.147C87.87 31.147 86.1805 30.8469 84.9156 29.1868C83.9057 27.855 83.7547 26.3449 83.7547 25.0131C83.7547 23.6813 83.8962 22.1431 84.9156 20.8394C86.1805 19.1699 87.87 18.851 89.3236 18.851ZM67.5292 19.7702C68.2465 19.7983 69.1243 19.9296 69.7851 20.3423C70.6629 20.9238 70.7856 21.6929 70.7856 22.1806C70.7856 22.659 70.6723 23.5031 69.7284 24.094C69.096 24.5535 68.2843 24.6755 67.5292 24.7317H64.2444V19.7327H66.9345L67.5292 19.7702ZM67.5292 27.0109H68.6146C71.3897 27.0109 73.3247 26.692 74.6933 25.8478C76.3923 24.7786 76.7887 23.2967 76.7887 22.1431C76.7887 21.0082 76.3923 19.5639 74.6933 18.5134C73.3152 17.7068 71.4558 17.4348 68.3504 17.4348H58.4867V32.5445H64.2444V27.0015H67.5292V27.0109ZM26.9041 28.2208L29.3771 32.5633H35.8239L27.0929 17.4535H21.7221L13.8029 32.5633H16.6534L18.9188 28.2208H26.9041ZM22.8548 20.9895L25.7337 26.1574H19.9759L22.6943 20.8957H22.7887L22.8548 20.9895ZM182.401 19.7327H188.63V17.4442H170.442V19.7327H176.634V32.5633H182.401V19.7327ZM26.3944 45.347L26.2151 44.8124L16.9272 45.347L18.8055 46.3131L26.3944 45.347ZM27.6687 47.0821L27.4421 46.9039L27.0457 46.4444L22.3829 47.3823L24.365 48.0763L27.6687 47.0821ZM31.3404 46.6976C31.5575 46.6601 31.8878 46.5288 32.1616 46.3224L30.7929 43.5087L32.1993 42.8146L31.0195 41.7454L30.5286 41.9705L28.5087 42.9366L29.1034 44.3716L30.0661 43.912L31.3404 46.6976ZM33.634 40.8169C34.1532 41.4734 34.5307 42.2613 34.7384 43.1804H33.8606C33.8134 42.8991 33.7473 42.6552 33.6246 42.3926C33.0488 40.8169 31.8784 39.682 30.5286 38.7535L30.0378 38.4158L30.5286 38.6034C31.7746 39.1287 32.8695 39.8415 33.634 40.8169ZM33.634 49.3331L33.8889 49.8302L33.634 49.9803L32.9544 50.2992L32.171 48.6485C31.6708 48.836 31.1139 48.9392 30.5475 48.9486C29.9623 48.9767 29.3677 48.9017 28.8202 48.7047L28.15 50.2898L27.4421 50.1491L27.2061 49.8208L27.4421 49.4082L28.0085 48.3202L27.5082 47.945L27.9896 47.3354C28.8013 47.8794 29.7075 48.1514 30.5475 48.1514C31.4348 48.1795 32.3032 47.8887 33.1149 47.2979L33.6435 47.4385L33.8606 47.5417L33.6435 47.7199L33.096 48.1983L33.634 49.3331ZM44.7436 45.0844L47.1978 43.4431H33.8889C33.8889 44.0339 33.8228 44.5498 33.634 44.9718C33.1243 46.3599 31.8501 47.0071 30.5381 47.0071C29.2827 46.9508 27.999 46.2755 27.4327 45.0094C27.2345 44.5592 27.1118 44.0621 27.1118 43.4431H13.7935L16.2193 45.0844L26.3944 44.5498C26.6021 45.2907 26.9513 45.966 27.4327 46.4537C28.2444 47.3448 29.396 47.87 30.5381 47.87C31.6896 47.8887 32.8317 47.4479 33.634 46.4913C34.0871 45.9942 34.3986 45.347 34.6063 44.5685L44.7436 45.0844ZM44.0452 45.347L42.1763 46.2755L34.644 45.347L34.8328 44.8124L44.0452 45.347ZM38.6367 47.3916L36.579 48.0951L33.634 47.1666L33.3792 47.0821L33.634 46.8289L33.9738 46.4631L38.6367 47.3916ZM39.5994 47.2697L41.2701 46.4631L34.493 45.6096L34.1343 46.2099L39.5994 47.2697ZM21.3635 47.2697L19.7211 46.5288L26.5171 45.6284L26.9041 46.2099L21.3635 47.2697ZM64.2822 44.5685H65.9246C66.4626 44.5685 66.8968 44.381 67.161 44.184C67.5292 43.8839 67.8784 43.3399 67.9162 42.8615C67.9728 42.3926 67.8029 42.1675 67.7368 42.0737C67.5386 41.8674 67.1705 41.7548 66.7929 41.7548H65.1411L64.2822 44.5685ZM66.9345 40.8357C67.397 40.8357 68.2371 40.8638 68.7657 41.389C69.096 41.7736 69.181 42.2425 69.096 42.7021C68.9922 43.4993 68.558 44.3059 67.8784 44.8124C67.331 45.2157 66.5003 45.5065 65.6414 45.5065H63.9801L62.8758 49.0893H61.7903L64.3294 40.845H66.9345V40.8357ZM73.0792 45.9566C73.2303 45.5065 73.4285 44.7843 73.1831 44.381C73.0509 44.1465 72.7394 43.987 72.343 43.987C71.9088 43.987 71.5029 44.2028 71.2198 44.4654C70.7856 44.8499 70.5685 45.4502 70.408 45.9473L70.2381 46.4537C70.106 46.8946 69.8795 47.5886 70.1437 48.0576C70.2381 48.2076 70.4836 48.4327 70.9649 48.4327C71.3991 48.4327 71.7484 48.2733 72.041 48.0576C72.5601 47.6074 72.7489 47.0071 72.9377 46.4537L73.0792 45.9566ZM74.127 43.9777C74.3157 44.3059 74.3724 44.7561 74.3063 45.347C74.193 46.238 73.7211 47.6261 72.73 48.4515C72.1354 48.9392 71.418 49.2018 70.7384 49.2018C69.6907 49.2018 69.2848 48.6203 69.181 48.4515C68.9167 48.02 68.9639 47.5042 68.9828 47.129C69.1055 46.1724 69.568 44.8124 70.5685 43.9777C71.1537 43.4993 71.8899 43.2461 72.5695 43.2461C73.3907 43.2461 73.9099 43.5837 74.127 43.9777ZM79.1201 48.6203C78.9314 48.7141 78.6388 48.8642 78.365 48.958C77.9686 49.108 77.525 49.2018 77.0153 49.2018C76.3357 49.2018 75.8165 48.958 75.5522 48.6297C75.2785 48.2639 75.1841 47.6261 75.2596 47.1478C75.3918 46.1067 75.9864 44.4654 77.138 43.7338C77.676 43.4149 78.365 43.2648 78.8936 43.2648C79.2617 43.2648 79.7337 43.3586 80.0168 43.5556C80.3094 43.7713 80.4227 44.0621 80.3755 44.4372L80.1584 45.1125L79.1957 45.2157C79.3467 44.878 79.4411 44.5216 79.29 44.3153C79.2051 44.1465 78.9691 44.0246 78.5538 44.0246C78.2895 44.0246 78.0064 44.0715 77.7326 44.259C77.0813 44.6248 76.8548 45.2438 76.6849 45.8253L76.4489 46.585C76.279 47.0446 76.2224 47.5886 76.3829 47.9263C76.4961 48.1232 76.751 48.4046 77.3928 48.4046C77.7232 48.4046 77.9497 48.3577 78.2895 48.2452L79.0163 47.9825L79.1201 48.6203ZM84.8873 48.6203C84.6985 48.7141 84.3871 48.8642 84.1133 48.958C83.698 49.108 83.2638 49.2018 82.7636 49.2018C82.084 49.2018 81.5743 48.958 81.31 48.6297C81.0174 48.2639 80.9419 47.6261 80.9985 47.1478C81.1212 46.1067 81.7536 44.4654 82.8768 43.7338C83.3865 43.4149 84.0945 43.2648 84.623 43.2648C85.01 43.2648 85.4725 43.3586 85.7557 43.5556C86.0577 43.7713 86.1616 44.0621 86.1049 44.4372L85.8973 45.1125L84.9345 45.2157C85.095 44.878 85.1799 44.5216 85.0383 44.3153C84.9817 44.1465 84.708 44.0246 84.3021 44.0246C84.0378 44.0246 83.7641 44.0715 83.4809 44.259C82.8391 44.6248 82.622 45.2438 82.4143 45.8253L82.1972 46.585C82.0368 47.0446 81.9707 47.5886 82.15 47.9263C82.2728 48.1232 82.4993 48.4046 83.16 48.4046C83.4809 48.4046 83.7169 48.3577 84.0378 48.2452C84.321 48.1795 84.5286 48.1045 84.7646 47.9825L84.8873 48.6203ZM91.5323 44.6061L87.5302 49.0893H86.3504L88.1249 43.3399H89.1348L87.7568 47.8231L91.7494 43.3399H92.9198L91.1453 49.0893H90.1542L91.5323 44.6061ZM99.6875 40.9388L99.6026 41.2952C99.4893 41.6235 99.3289 41.9612 98.8192 42.2238C98.4416 42.402 98.0924 42.4864 97.7242 42.4864C97.46 42.4864 97.0446 42.477 96.7709 42.2238C96.6482 42.1112 96.4594 41.8955 96.4877 41.5391L96.7237 40.9388H97.4883L97.4599 41.0795L97.4883 41.6047L97.9413 41.7736L98.4888 41.6047L98.8569 41.0889L98.8947 40.9388H99.6875ZM98.064 49.0893H97.073L98.4605 44.6061L94.4489 49.0893H93.288L95.053 43.3399H96.0347L94.6566 47.8231L98.6492 43.3399H99.8197L98.064 49.0893ZM104.322 48.6203C104.124 48.7141 103.822 48.8642 103.539 48.958C103.142 49.108 102.689 49.2018 102.179 49.2018C101.519 49.2018 100.99 48.958 100.726 48.6297C100.452 48.2639 100.367 47.6261 100.433 47.1478C100.565 46.1067 101.179 44.4654 102.312 43.7338C102.821 43.4149 103.52 43.2648 104.048 43.2648C104.426 43.2648 104.907 43.3586 105.2 43.5556C105.474 43.7713 105.606 44.0621 105.549 44.4372L105.313 45.1125L104.379 45.2157C104.511 44.878 104.605 44.5216 104.454 44.3153C104.379 44.1465 104.152 44.0246 103.727 44.0246C103.454 44.0246 103.18 44.0715 102.906 44.259C102.283 44.6248 102.038 45.2438 101.849 45.8253L101.613 46.585C101.471 47.0446 101.405 47.5886 101.566 47.9263C101.689 48.1232 101.934 48.4046 102.585 48.4046C102.906 48.4046 103.133 48.3577 103.482 48.2452L104.209 47.9825L104.322 48.6203ZM109.391 49.0893L109.136 47.2697L108.909 46.6319L108.381 46.4631H107.588L106.786 49.0893H105.776L107.56 43.3399H108.551L107.843 45.6284H108.551L109.268 45.4314L109.721 44.8687L110.136 44.2403C110.382 43.8745 110.571 43.5087 111.052 43.3399L111.514 43.2555L112.005 43.3399L111.656 44.0902L111.212 44.1559L110.882 44.5685L110.561 45.0563C110.42 45.2907 110.325 45.5065 110.023 45.7128L109.466 46.0035L109.438 46.0504L109.938 46.3693L110.165 46.9508L110.457 49.0986L109.391 49.0893ZM116.923 44.6061L112.921 49.0893H111.76L113.525 43.3399H114.507L113.129 47.8231L117.14 43.3399H118.32L116.536 49.0893H115.535L116.923 44.6061ZM122.756 45.7034L122.794 45.4689C122.907 45.0844 123.03 44.6623 122.851 44.3528C122.718 44.0433 122.407 43.9964 122.209 43.9964C121.803 43.9964 121.473 44.1277 121.189 44.3903C120.925 44.6342 120.642 45.0281 120.463 45.5721L120.425 45.7128L122.756 45.7034ZM120.142 46.6226C120.028 47.0071 119.915 47.5511 120.113 47.8887C120.264 48.1701 120.68 48.3671 121.218 48.3671C121.557 48.3671 121.822 48.3108 122.096 48.2076L122.813 47.9356L122.926 48.6203C122.728 48.7141 122.426 48.8642 122.162 48.958C121.737 49.108 121.284 49.2018 120.812 49.2018C119.764 49.2018 119.302 48.6766 119.141 48.3765C118.603 47.4104 119.264 45.0563 120.472 43.9964C121.029 43.4993 121.718 43.2555 122.388 43.2555C123.172 43.2555 123.596 43.6119 123.785 43.9308C124.134 44.5685 123.898 45.3564 123.634 46.2099L123.549 46.4725H120.179L120.142 46.6226ZM134.036 46.4162H133.158C132.592 46.4162 132.214 46.5288 131.921 46.6976C131.591 46.9415 131.402 47.3072 131.346 47.6449L131.459 48.1701L132.129 48.4234C132.478 48.4234 132.714 48.3483 133.026 48.142L133.668 47.6355L134.036 46.4162ZM133.526 48.3765H133.469C133.262 48.5734 133.016 48.7891 132.695 48.958C132.337 49.1362 132.054 49.2018 131.648 49.2018C131.308 49.2018 130.893 49.1643 130.591 48.9111C130.392 48.7235 130.156 48.4046 130.251 47.8794C130.307 47.3354 130.591 46.6601 131.317 46.1911C131.695 45.9473 132.318 45.7128 133.394 45.7128H134.253L134.498 44.9906C134.545 44.8218 134.659 44.4279 134.366 44.2028C134.281 44.1277 134.083 44.0058 133.668 44.0058C133.46 44.0058 133.101 44.0339 132.809 44.2028C132.554 44.3247 132.431 44.5216 132.299 44.8781L131.402 44.8312C131.44 44.3997 131.685 43.9401 132.214 43.6212C132.799 43.293 133.611 43.2648 133.96 43.2648C134.564 43.2648 135.168 43.4055 135.423 43.7713C135.537 43.9589 135.593 44.2215 135.555 44.6061C135.518 44.8874 135.442 45.1032 135.338 45.3845L134.206 49.108H133.299L133.526 48.3765ZM138.113 45.7878H139.378C139.567 45.7878 139.897 45.7409 140.18 45.5627C140.454 45.3564 140.615 45.0563 140.671 44.728L140.464 44.2497L139.926 44.1183H138.614L138.113 45.7878ZM137.32 48.3296H138.651C139.048 48.3296 139.303 48.2076 139.501 48.0857C139.793 47.8887 139.954 47.5605 140.02 47.1759L139.831 46.6882L139.284 46.5288H137.877L137.32 48.3296ZM137.868 43.3399H140.369C140.803 43.3399 141.228 43.3962 141.53 43.7807C141.662 43.9495 141.728 44.2121 141.681 44.5685C141.653 44.9437 141.464 45.3001 141.172 45.6096C140.879 45.8722 140.605 45.9848 140.398 46.0411V46.0692C140.709 46.1442 140.879 46.3412 140.936 46.4537C141.021 46.6226 141.105 46.8195 141.068 47.129C141.021 47.5136 140.813 48.1045 140.171 48.5922C139.633 48.9767 139.142 49.0893 138.566 49.0893H136.122L137.868 43.3399ZM147.345 44.6061L143.371 49.0893H142.21L143.975 43.3399H144.966L143.597 47.8231L147.552 43.3399H148.713L146.948 49.0893H145.948L147.345 44.6061ZM152.838 46.4162H151.941C151.384 46.4162 150.997 46.5288 150.724 46.6976C150.374 46.9415 150.167 47.3072 150.129 47.6449L150.252 48.1701L150.922 48.4234C151.281 48.4234 151.488 48.3483 151.828 48.142L152.451 47.6355L152.838 46.4162ZM152.347 48.3765H152.291C152.073 48.5734 151.828 48.7891 151.488 48.958C151.13 49.1362 150.875 49.2018 150.478 49.2018C150.11 49.2018 149.704 49.1643 149.402 48.9111C149.195 48.7235 148.987 48.4046 149.062 47.8794C149.129 47.3354 149.402 46.6601 150.11 46.1911C150.516 45.9473 151.12 45.7128 152.206 45.7128H153.055L153.291 44.9906C153.338 44.8218 153.461 44.4279 153.178 44.2028C153.074 44.1277 152.914 44.0058 152.489 44.0058C152.272 44.0058 151.913 44.0339 151.62 44.2028C151.356 44.3247 151.224 44.5216 151.092 44.8781L150.223 44.8312C150.242 44.3997 150.488 43.9401 151.016 43.6212C151.602 43.293 152.413 43.2648 152.763 43.2648C153.338 43.2648 153.942 43.4055 154.207 43.7713C154.311 43.9589 154.377 44.2215 154.339 44.6061C154.292 44.8874 154.226 45.1032 154.131 45.3845L152.989 49.108H152.111L152.347 48.3765ZM158.728 49.0893H157.737L159.257 44.1934H157.671L157.473 44.8124C157.218 45.5627 156.944 46.3131 156.651 47.054C156.387 47.6449 156.076 48.3296 155.396 48.7891C155.018 49.0518 154.537 49.1831 154.15 49.2393V48.414C154.414 48.3577 154.782 48.2076 155.037 48.0294C155.443 47.7387 155.679 47.2791 155.83 46.857C156.076 46.2943 156.548 45.0187 156.746 44.3059L157.067 43.3493H160.474L158.728 49.0893ZM165.854 44.6061L161.881 49.0893H160.729L162.485 43.3399H163.466L162.098 47.8231L166.071 43.3399H167.232L165.467 49.0893H164.486L165.854 44.6061ZM168.422 49.0893H167.44L169.215 43.3399H170.187L169.479 45.6659H171.952L172.669 43.3399H173.632L171.886 49.0893H170.923L171.697 46.4913H169.243L168.422 49.0893ZM179.012 44.6061L175.029 49.0893H173.887L175.633 43.3399H176.615L175.246 47.8231L179.201 43.3399H180.381L178.625 49.0893H177.643L179.012 44.6061Z" fill="#0E4D92"/>
<path d="M185.742 44.606L181.759 49.0892H180.607L182.354 43.3398H183.354L181.976 47.8231L185.94 43.3398H187.101L185.336 49.0892H184.345L185.742 44.606Z" fill="#0E4D92"/>
</g>
<defs>
<clipPath id="clip0_400_5255">
<rect width="205" height="66" fill="white"/>
</clipPath>
</defs>
</svg>
