<svg width="213" height="51" fill="none" xmlns="http://www.w3.org/2000/svg"><g clip-path="url(#clip0_400_5355)" fill-rule="evenodd" clip-rule="evenodd"><path d="M105.576 0c-1.792.014-3.721.534-4.412 2.094a3.396 3.396 0 00.44 3.627c.902 1.105 2.454 1.657 4.067 1.657a7.002 7.002 0 003.106-.768 3.44 3.44 0 001.211-4.738c-.747-1.3-2.624-1.886-4.412-1.872zm3.633 4.847c-.348.94-1.326 2.092-3.633 2.092-.702 0-2.22-.375-2.759-.881a3.395 3.395 0 01-.44-4.406c.493-.711 1.944-1.209 3.199-1.209s2.543.216 3.419 1.542c.823 1.24.512 2.068.222 2.862h-.008zm8.383 1.872L114.51.11h-1.875v7.158h.985V.221l3.419 7.054h.993l3.431-7.054v7.054h.881V.111h-1.543l-3.209 6.608zM56.049.11v.33l2.095 4.075h-4.191L55.938.441v-.33h-.55l-3.752 6.942v.22h.993l1.104-2.311h4.742l1.211 2.311h.993v-.22L56.709.111h-.66zM67.52 3.525v-.1c.872-.189 1.986-.79 1.986-1.652 0-.862-.833-1.65-3.154-1.65-1.903 0-4.016-.012-4.016-.012v7.158h3.75c3.394 0 3.86-1.376 3.86-2.092 0-.715-.702-1.483-2.426-1.652zM63.44.55h2.976c1.744 0 2.097.772 2.097 1.322s-.672 1.322-1.324 1.322h-3.75V.55zm3.75 6.169h-3.75V3.746h3.418c1.425 0 2.097.893 2.097 1.431 0 .5-.418 1.542-1.766 1.542zm29.12-4.635c-.248.37-.958 1.342-1.66 1.342h-.882V.11h-.993v7.158h.993V3.746h.882c1.035 0 3.081 2.654 3.632 3.523h1.211c-.647-.905-1.996-2.531-2.978-3.194-.473-.319-1.17-.403-1.655-.44.589-.157 1.826-.356 2.421-1.541.56-1.109.636-1.552 2.422-1.544V.11c-2.329-.04-2.492.64-3.392 1.984v-.01zm28.79 5.185h.882V.55h6.069v6.72h.882V.111H125.1v7.158zm27.356-4.075H146.5V.111h-.993v7.158h.993V3.627h5.956v3.628h.993V.111h-.993v3.083zM170.077.086c-2.472 0-3.282.865-3.282 1.677 0 1.79 2.277 2.092 3.633 2.092-.959.308-1.911.806-2.422 1.322a42.222 42.222 0 00-1.763 1.872v.22h1.101s1.197-1.485 2.097-2.418c.287-.299 1.235-.992 1.984-.992h2.317v3.41h.993V.111s-2.481-.025-4.658-.025zm3.667 3.34h-3.75c-1.269 0-2.206-.403-2.206-1.433 0-.373 0-1.433 1.764-1.433h4.192v2.866zM86.376.11v.33l2.094 4.075h-4.183L86.273.441v-.33h-.553l-3.75 6.942v.22h.993l1.104-2.311h4.742l1.211 2.311h.997v-.22L87.044.111h-.668zm52.733 0v.33l2.095 4.075h-4.192L138.998.44V.11h-.555l-3.748 6.942v.22h.993l1.104-2.311h4.743l1.211 2.311h.99v-.22L139.771.111h-.662zm17.868 6.277V.111h-.775v7.158h1.102l5.853-6.278V7.27h.884V.111h-1.211l-5.853 6.277zm-83.83 0V.111h-.773v7.158h1.104L79.33.991V7.27h.884V.111h-1.21l-5.857 6.277z" fill="#231F20"/><path d="M0 18.835l5.957 4.186 201.308-.22L213 18.836H0zm12.575 8.813l188.181-.33 5.736-3.966-199.653.227 5.736 4.07zm6.508 4.517h174.725l6.175-4.297-186.635.33 5.735 3.967z" fill="#178ACB"/><path d="M40.16 38.51l11.805 8.372h3.196l1.324-1.209 1.546 1.433 1.544-1.433-4.527-4.299 1.433-1.322 1.546 1.431 1.544-1.43 1.433 1.43-1.544 1.322 1.544 1.433 1.544-1.433-1.433-1.322 1.433-1.43 1.546 1.43 1.543-1.43 1.433 1.322-4.522 4.185 1.546 1.542 1.543-1.433 1.544 1.433 1.435-1.322 1.544 1.322 1.433-1.433 1.546 1.433 1.544-1.433-4.412-4.294 1.433-1.322 1.435 1.43 1.544-1.43 1.432 1.43-1.432 1.322 1.543 1.433 1.435-1.433-1.435-1.322 1.544-1.43 1.435 1.43 1.655-1.43 1.433 1.322-4.632 4.185 1.655 1.542 1.433-1.433 1.544 1.433 1.435-1.433 1.544 1.433 1.543-1.433 1.435 1.433 1.655-1.542-4.522-4.186 1.432-1.322 1.544 1.431 1.435-1.43 1.435 1.43-1.435 1.322 1.544 1.433 1.435-1.433-1.435-1.322 1.544-1.43 1.435 1.43 1.544-1.43 1.434 1.322-4.522 4.185 1.544 1.542 1.544-1.433 1.434 1.433 1.544-1.433 1.544 1.433 1.435-1.433 1.544 1.433 1.544-1.433-4.404-4.186 1.433-1.43 1.546 1.43 1.433-1.43 1.435 1.43-1.435 1.322 1.435 1.433 1.544-1.433-1.435-1.322 1.544-1.43 1.435 1.43 1.543-1.43 1.429 1.322-4.522 4.294 1.543 1.433 1.544-1.433 1.435 1.433 1.544-1.433 1.544 1.433 1.435-1.433 1.544 1.433 1.544-1.433-4.525-4.294 1.435-1.322 1.544 1.43 1.543-1.43 1.435 1.43-1.543 1.443 1.543 1.322 1.544-1.432-1.435-1.323 1.546-1.43 1.433 1.43 1.544-1.43 1.435 1.43-4.523 4.186 1.544 1.433 1.544-1.433 1.435 1.433 1.544-1.433 1.435 1.433 1.543-1.433 1.544 1.433 1.544-1.433-4.411-4.186 1.434-1.322 1.433 1.322 1.544-1.43 1.435 1.43-1.435 1.433 1.544 1.322 1.435-1.322-1.435-1.433 1.435-1.43 1.544 1.43 1.544-1.43 1.434 1.43-4.522 4.186 1.655 1.542 1.433-1.43 1.545 1.43 1.433-1.43 1.544 1.43 1.546-1.43 1.433 1.321 1.546-1.433-4.414-4.196 1.435-1.322 1.544 1.433 1.544-1.433 1.435 1.433-1.437 1.332 1.435 1.431 1.433-1.43-1.324-1.323 1.324-1.433 1.654 1.322 1.433-1.322 1.546 1.322-4.523 4.186 1.544 1.542 1.324-1.32 1.544 1.21h2.868l11.804-8.372-132.251-.228zm28.456 7.16l-1.435-1.323 1.435-1.42 1.433 1.43-1.433 1.312zm15.112-.11l-1.435-1.322 1.435-1.322 1.433 1.322-1.433 1.322zm15.111 0l-1.434-1.322 1.434-1.433 1.433 1.433-1.433 1.322zm15.112 0l-1.433-1.322 1.433-1.322 1.435 1.322-1.435 1.322zm15.112 0l-1.433-1.322 1.433-1.322 1.435 1.322-1.435 1.322zm15.111.11l-1.544-1.323 1.544-1.32 1.435 1.32-1.435 1.322z" fill="#184895"/><path d="M53.61 47.812h105.78l-1.322.991H55.042l-1.433-.991z" fill="#E21E26"/><path d="M56.531 49.9h99.937l-1.435 1.1H58.075l-1.544-1.1z" fill="#174896"/><path d="M106.317 32.386c.183-1.731 1.798-4.978 2.316-6.058.458-.953 6.509-13.43 6.509-13.43h-9.376L93.641 23.579l-2.422-10.681h-9.485S74.82 28.732 73.79 30.852c-.707 1.456-1.952 1.905-3.633 1.984-.12.39-.662 2.753-.662 2.753h13.457l1.21-2.864H82.29l5.852-13.658 3.28 11.777 9.927-8.813s-2.868 7.367-3.31 8.814c-.421 1.384-1.31 2.17-3.632 2.202-.162.371-1.211 2.534-1.211 2.534h13.237s.678-1.921.771-2.314c-.408-.123-.943-.343-.886-.88zm65.627.33c-.606-.165-.636-.604-.553-1.321.082-.718 2.874-18.497 2.874-18.497h-8.493s-11.184 11.054-17.87 17.396c-.553.524-2.458 2.773-5.853 2.753-.113.528-.44 2.534-.44 2.534h9.817l.222-2.534s-1.01-.016-1.104-.44c-.067-.307.151-.402.662-.882.589-.554 13.236-12.557 13.236-12.557s-1.729 12.696-1.543 11.235a3.69 3.69 0 01-.773 1.764c-.473.568-1.294.604-2.206.77-.111.624-.442 2.644-.442 2.644h14.01l.111-2.864s-1.211.12-1.655 0zM75.431 12.899H57.563c-4.545 0-7.586 1.56-8.494 3.628-.761 1.737-3.104 7.805-3.75 9.363-.646 1.558.476 3.08 3.419 3.966-1.322.965-2.184 1.574-3.86 2.864h-4.303l-.994 2.864h12.246l.991-2.645h-1.21l2.205-2.863h4.965l-1.766 3.085h-1.986l-.882 2.419h13.118l1.104-2.753h-2.422l9.487-19.928zM60.094 25.564h-5.07s1.02-3.246 1.766-4.955c.545-1.25 1.766-2.975 1.766-2.975h5.513l-3.975 7.93zm81.301-12.666h-8.603s-19.146 18.567-19.854 19.166c-.708.598-1.134.88-1.435.88h-2.648l-.773 2.645h10.696V33.05s-.71.057-.883-.22c-.174-.276.173-.548.441-.882a26.108 26.108 0 011.986-2.092h9.596s-.337 1.008-.661 1.872c-.229.605-.235.86-.771.992-.43.105-1.655.33-1.655.33l-.111 2.533h13.788s-.037-2.055 0-2.644c-.973-.052-1.857 0-2.095-.55-.238-.55-.043-.564.551-4.736.847-5.937 2.431-14.756 2.431-14.756zm-10.48 12.219h-5.295l6.728-5.95-1.433 5.95z" fill="#fff"/><path d="M107.969 26.274l6.178-12.888h-8.275L93.297 24.29l-2.534-11.016h-8.604S75.175 28.84 74.146 30.96c-.707 1.456-1.99 2.284-3.677 2.362-.12.391-.553 1.873-.553 1.873H82.49l.881-2.092h-1.874l6.508-15.424 3.633 12.227 10.589-9.363s-3.421 8.908-3.861 10.355c-.422 1.384-1.31 2.392-3.633 2.418a114.34 114.34 0 01-.881 1.873h12.132s.567-1.482.662-1.873c-.403-.125-.938-.453-.882-.991.186-1.725 1.688-4.974 2.204-6.052zm63.537 6.83c-.606-.167-.856-1.048-.773-1.764.082-.715 2.978-18.065 2.978-18.065h-7.719s-10.97 10.731-17.648 17.074c-.553.524-2.68 2.995-6.067 2.974-.115.528-.331 1.873-.331 1.873h8.823l.222-1.764s-.902-.127-.993-.55c-.066-.306.041-.84.551-1.322l14.45-13.658s-1.953 13.954-1.768 12.495a4.302 4.302 0 01-.769 1.929c-.472.568-1.293.834-2.205.991l-.331 1.873h13.027l.109-1.983s-1.119.016-1.554-.103h-.002zm-96.957-19.83H57.452c-4.148 0-7.233 1.583-7.944 3.306-.72 1.753-3.212 7.695-3.858 9.252-.646 1.558 1.027 2.969 3.97 3.856-1.322.965-2.955 2.124-4.642 3.416h-4.182l-.662 2.092h11.251l.662-1.873h-1.435l2.98-3.855h5.955l-2.315 4.075h-1.986l-.553 1.653h12.135l.779-1.983h-2.422l9.364-19.938zm-14.23 12.67h-5.955s1.01-3.689 1.764-5.4c.545-1.247 1.986-3.525 1.986-3.525h6.617l-4.411 8.924zm80.414-12.67h-7.612s-19.576 18.79-20.296 19.388c-.721.599-1.023.55-1.324.55h-2.321l-.551 1.984h9.376l.111-1.873s-.605-.054-.773-.33c-.167-.276-.048-.66.22-.992.763-.945 2.422-2.644 2.422-2.644h10.478s-.555 1.637-.882 2.507c-.228.605-.676 1.109-1.211 1.24-.43.102-.993.22-.993.22l-.222 1.872h12.7s.075-1.286.111-1.873c-.972-.054-1.856-.225-2.096-.771-.241-.547-.041-.784.553-4.956.837-5.935 2.31-14.321 2.31-14.321zm-9.485 12.228h-6.841l8.605-7.71-1.764 7.71z" fill="#E21E26"/></g><defs><clipPath id="clip0_400_5355"><path fill="#fff" d="M0 0h213v51H0z"/></clipPath></defs></svg>