<svg width="201" height="55" fill="none" xmlns="http://www.w3.org/2000/svg"><g clip-path="url(#clip0_400_5349)" fill-rule="evenodd" clip-rule="evenodd"><path d="M201 0a16.37 16.37 0 01-2.021 2.305c-9.794 9.245-21.543 16.5-33.608 22.401-.431-.168-.672-.366-1.107-.534a35.052 35.052 0 00-20.785-1.83c17.39-6.812 34.857-13.42 52.277-20.158C196.256 1.982 200.991 0 201 0zM.862 29.294c3.985-.896 8.255-1.576 12.258-.43 2.408.671 3.723 3.157 3.804 5.522.173 4.308.03 8.616.078 12.954-4.14 1.383-8.643 1.952-12.956 1.142-1.724-.315-3.31-1.516-3.697-3.274-.478-2.154-.556-4.618.46-6.656.863-1.667 2.806-2.34 4.572-2.477a24.053 24.053 0 017.114.405c-.065-1.426-.138-3.352-1.784-3.877-2.956-.754-6.1-.224-8.988.569a138.93 138.93 0 00-.861-3.878zm5.01 10.486c-1.322 1.103-1.133 3.446-.305 4.799 2.06 1.215 4.692.547 6.893 0v-4.885c-2.154-.285-4.49-.698-6.592.064l.005.022zm14.753-10.723a32.323 32.323 0 0111.492-.478c1.624.254 3.477.892 4.158 2.533a6.495 6.495 0 01-.168 4.86c-.685 1.404-2.327 1.788-3.723 2.085 1.822.116 3.878.943 4.425 2.847.564 1.978.556 4.433-.91 6.031-1.486 1.44-3.679 1.637-5.635 1.827a36.26 36.26 0 01-9.79-.625c.328-1.404.66-2.808.974-4.217 2.956.805 6.119 1.344 9.143.637 2.013-.43 2.086-3.877.104-4.394-1.866-.53-3.83-.28-5.744-.331v-3.559c1.879-.064 3.805.185 5.64-.297 1.134-.293 1.362-1.77.884-2.684-.431-.646-1.237-.861-1.948-.94a19.258 19.258 0 00-7.889.82 336.63 336.63 0 01-1.013-4.106v-.009zm93.878.862c4.429-1.344 9.639-2.774 13.96-.392 3.447-1.09 7.325-1.883 10.862-.608 2.706 1.06 3.447 4.244 3.559 6.85.108 4.183.022 8.37.048 12.558h-4.671c-.133-4.05.073-8.103-.116-12.153-.073-1.292-.431-2.938-1.827-3.382-1.887-.538-3.878-.15-5.748.237.297 1.299.462 2.624.491 3.955.026 3.77 0 7.548 0 11.321h-4.7c-.035-3.903.056-7.806-.052-11.709-.065-1.361-.263-3.166-1.724-3.748-1.723-.599-3.619-.22-5.373.13V48.31c-1.555 0-3.11 0-4.662.026-.112-6.144-.025-12.287-.043-18.434l-.004.017zm-73.407-1.081h4.74c.021 3.877-.044 7.754.03 11.661.082 1.379.263 3.201 1.762 3.783 1.9.599 3.968.332 5.86-.185-.052-5.084 0-10.172 0-15.26 1.572 0 3.15 0 4.74.03-.026 6.122 0 12.244 0 18.37-4.081 1.292-8.55 2.279-12.789 1.189-2.865-.784-4.063-3.877-4.2-6.591-.199-4.308-.04-8.668-.091-12.997h-.052zm20.087 19.498c1.44-6.505 2.852-13.01 4.309-19.511h6.105c1.508 3.795 2.52 7.754 3.637 11.679.965-3.938 2.14-7.82 3.52-11.632 2.055-.12 4.119-.047 6.179-.06 1.434 6.5 2.89 12.997 4.308 19.498h-4.86c-1.099-4.64-2.03-9.314-3.115-13.954-1.349 4.648-2.646 9.31-3.968 13.967-2.103.15-4.283-.862-4.986-2.956-1.124-3.58-2.08-7.263-3.12-10.903-1.175 4.592-2.059 9.258-3.118 13.88l-4.89-.008zM90.53 28.838h4.882c.937 4.256 1.877 8.512 2.823 12.768.24.935.43 1.99 1.171 2.676 1.065.715 2.396.258 3.555.095 1.086-5.17 2.31-10.34 3.382-15.51 1.633-.077 3.271-.055 4.904-.047-1.905 8.725-3.816 17.446-5.735 26.163H100.6c.465-2.146.941-4.29 1.426-6.432-1.9.215-4.072.43-5.679-.819-1.689-1.357-2.305-3.558-2.844-5.561-1.055-4.42-1.99-8.883-2.985-13.333h.013z" fill="#F37021"/><path d="M143.479 22.341a35.051 35.051 0 0120.802 1.81l1.108.534c-3.292 2.227-9.178 3.713-12.927 4.7-3.158-2.284-6.303-4.584-9.479-6.872l.496-.172z" fill="#00529C"/><path d="M165.376 24.685c5.403 2.21 10.147 5.47 14.727 9.08a59.943 59.943 0 015.903 5.282 4899.855 4899.855 0 01-30.032-8.663c-.65-.168-2.878-.956-3.546-1 2.081-.564 9.402-2.3 12.948-4.7z" fill="#00B2D5"/></g><defs><clipPath id="clip0_400_5349"><path fill="#fff" d="M0 0h201v55H0z"/></clipPath></defs></svg>