<svg width="188" height="46" fill="none" xmlns="http://www.w3.org/2000/svg"><g clip-path="url(#clip0_400_5308)"><path d="M109.688.639H97.112L85.426 16.994l6.351 8.88a.296.296 0 00.508 0L110.006 1.15c.063-.192-.064-.511-.318-.511z" fill="url(#paint0_linear_400_5308)"/><path d="M76.788.64c-6.796 0-10.734 7.73-6.796 13.288l8.51 11.883a.296.296 0 00.509 0L97.049.575H76.788V.64z" fill="#E62731"/><path d="M62.434 3.45c-1.334-.958-2.794-1.725-4.51-2.108a18.833 18.833 0 00-4.953-.64h-8.448a.502.502 0 00-.508.512v24.341c0 .256.19.512.508.512h8.447c1.652 0 3.303-.256 4.955-.703 1.65-.511 3.175-1.278 4.51-2.3 1.333-1.023 2.413-2.364 3.238-3.961.826-1.598 1.27-3.514 1.27-5.75 0-2.364-.444-4.409-1.27-6.006-.825-1.597-1.905-2.939-3.239-3.897zm-1.207 14.12c-.571 1.15-1.333 1.98-2.286 2.683-.953.639-1.97 1.15-3.176 1.405-1.143.256-2.35.383-3.493.383h-3.747V4.537h3.747c1.143 0 2.35.128 3.493.383a9.352 9.352 0 013.176 1.342c.953.639 1.715 1.533 2.286 2.683.572 1.15.89 2.62.89 4.409 0 1.66-.318 3.13-.89 4.216zM138.078.639h-3.494a.502.502 0 00-.508.51v18.465h-.063L123.469 2.555c-.698-1.15-2.032-1.916-3.366-1.916h-3.239a.502.502 0 00-.508.51v24.342c0 .256.19.512.508.512h3.493a.502.502 0 00.508-.512V6.39h.064l10.797 17.633c.699 1.214 2.033 1.917 3.366 1.917h2.986a.502.502 0 00.508-.511V1.086c-.064-.192-.254-.447-.508-.447zM109.623 4.6l-3.81 5.303c-.191.255-.254.51-.254.83v14.695c0 .255.19.51.508.51h3.493a.502.502 0 00.508-.51V4.664c-.063-.128-.318-.192-.445-.064zm56.02 6.964h-6.288c-.191 0-.445.128-.572.255l-2.159 2.875c-.191.256 0 .575.254.575h4.89v6.453c-1.397.575-3.112.895-5.017.895-1.397 0-2.668-.256-3.747-.703a8.107 8.107 0 01-1.271-.703c-.571-.383-1.079-.767-1.524-1.278-.762-.83-1.334-1.789-1.778-2.939-.445-1.15-.636-2.363-.636-3.769 0-1.214.191-2.3.509-3.322.063-.128.063-.192.127-.32.444-1.15 1.016-2.108 1.778-2.939.762-.83 1.651-1.469 2.731-1.98a9.384 9.384 0 013.62-.703c1.334 0 2.604.256 3.748.767.825.383 1.587.766 2.096 1.278.19.191.571.127.698-.064l2.096-2.811c.191-.256.127-.575-.127-.703-.889-.64-1.905-1.15-3.112-1.534C160.308.32 158.466 0 156.433 0c-1.969 0-3.747.32-5.398.958-1.652.64-3.113 1.534-4.319 2.62-.635.575-1.207 1.278-1.715 1.98a23.682 23.682 0 00-1.207 2.173c-.699 1.66-1.08 3.45-1.08 5.494 0 .383 0 .767.064 1.086.127 1.533.444 3.003.953 4.345.698 1.66 1.587 3.066 2.858 4.216a13.144 13.144 0 004.319 2.747c1.714.64 3.556.959 5.589.959 1.969 0 3.747-.192 5.271-.511 1.398-.32 2.668-.703 3.811-1.278a.703.703 0 00.381-.639V11.947c.191-.191 0-.383-.317-.383zM12.83 14.63c1.46-.447 2.604-1.022 3.684-2.172 1.016-1.15 1.524-2.683 1.524-4.472 0-1.342-.254-2.492-.762-3.386-.508-.958-1.207-1.661-2.096-2.236-.89-.575-1.842-.959-2.985-1.214a15.678 15.678 0 00-3.43-.383H.508a.502.502 0 00-.508.51V25.62c0 .256.19.512.508.512h3.493a.502.502 0 00.508-.512V15.397h3.875l5.462 10.35a.698.698 0 00.635.384h3.81c.319 0 .509-.32.382-.64l-5.843-10.86zm-1.017-3.769a4.889 4.889 0 01-1.714.511c-.635.128-1.27.128-1.906.128H4.51V4.408h4.065c.572 0 1.144.064 1.779.128.635.128 1.143.256 1.588.511.444.256.889.639 1.143 1.086.317.447.444 1.022.444 1.725 0 .767-.19 1.406-.508 1.853-.317.511-.698.894-1.207 1.15zm175.043 4.6a6.17 6.17 0 00-1.778-2.044c-.699-.575-1.525-.959-2.414-1.342-.889-.32-1.715-.639-2.477-.894-.063 0-.19-.064-.254-.064-.127-.064-.254-.064-.317-.128-.508-.128-.953-.32-1.334-.447a5.682 5.682 0 01-1.524-.767 2.426 2.426 0 01-.953-1.022c-.254-.384-.381-.895-.381-1.47 0-.639.127-1.15.381-1.597.254-.447.635-.767 1.08-1.086a9.297 9.297 0 011.397-.639 6.361 6.361 0 011.588-.192c.889 0 1.778.192 2.604.64.317.127.635.319.889.51.254.128.508.128.699-.127l1.841-2.556c.191-.255.127-.575-.127-.703a15.122 15.122 0 00-1.778-.83C182.664.256 181.394 0 180.124 0c-1.144 0-2.287.128-3.366.447-1.08.32-2.096.767-2.922 1.342a7.197 7.197 0 00-2.096 2.3 6.948 6.948 0 00-.826 3.322c0 1.214.191 2.172.572 3.003.381.83.889 1.47 1.461 2.044.635.575 1.27.959 2.032 1.342.699.32 1.397.575 2.096.767.064 0 .127.064.191.064h.063c.762.255 1.524.51 2.223.766.699.256 1.334.511 1.842.83.508.32.953.704 1.27 1.15.318.448.445 1.023.445 1.662 0 .703-.127 1.278-.381 1.725-.254.447-.635.83-1.08 1.15-.445.32-.953.511-1.461.639a7.153 7.153 0 01-1.588.191c-1.016 0-2.032-.255-3.048-.766a9.973 9.973 0 01-2.096-1.342c-.191-.192-.572-.128-.699.064l-1.905 2.62c-.127.191-.127.51.063.702.508.447 1.588 1.214 2.795 1.661 1.588.575 3.176.895 4.827.895a12.48 12.48 0 003.493-.511c1.143-.32 2.096-.83 2.922-1.534a6.868 6.868 0 001.969-2.491c.508-1.023.762-2.173.762-3.578-.127-1.15-.381-2.172-.826-3.003zM39.188 21.978H26.866v-7.156h11.051a.502.502 0 00.508-.51V11.5a.503.503 0 00-.508-.51H26.866V4.535h12.321a.502.502 0 00.509-.51v-2.94a.502.502 0 00-.508-.51H26.611c-2.35 0-4.256 1.916-4.256 4.28v16.802c0 2.364 1.906 4.281 4.256 4.281h12.576a.502.502 0 00.508-.511v-3.003c0-.192-.254-.447-.508-.447zm32.137 14.95c-.381 0-.699.064-1.08.191a3.393 3.393 0 00-.826.384c-.19.127-.444.32-.635.447l-.38.383c-.064.064-.128.128-.128.192l.762.767.254-.32c.19-.191.445-.383.826-.639.381-.191.762-.32 1.207-.32.571 0 1.08.193 1.46.576.382.383.572.894.572 1.47l-3.175.51c-.763.128-1.398.384-1.779.831-.38.447-.635.958-.635 1.661 0 .639.254 1.214.826 1.661.571.511 1.27.703 2.096.703.317 0 .635-.064.952-.128.318-.064.572-.191.763-.32.19-.127.38-.255.508-.383.19-.127.254-.255.317-.319.064-.064.064-.128.127-.128v1.086h1.207v-5.239c0-.894-.318-1.66-.953-2.236-.571-.51-1.334-.83-2.286-.83zm2.096 4.728c0 .83-.254 1.469-.762 1.98-.509.511-1.144.767-1.906.767-.508 0-.953-.128-1.27-.384a1.118 1.118 0 01-.445-.894c0-.767.508-1.278 1.525-1.47l2.794-.51v.51h.064zm5.081-4.536h-1.207v8.24h1.207v-8.24zm-.571-3.579c-.19 0-.381.064-.572.192-.126.128-.19.32-.19.575 0 .192.064.383.19.575.128.128.318.192.572.192.19 0 .381-.064.572-.192.127-.128.19-.32.19-.575 0-.191-.063-.383-.19-.575a1.02 1.02 0 00-.572-.191zm6.223 3.515a2.113 2.113 0 00-.762.319c-.19.128-.381.255-.508.383-.19.128-.254.256-.318.32-.063.064-.063.127-.127.127V37.12h-1.207v8.242h1.207v-4.536c0-.767.254-1.406.762-1.917.508-.51 1.08-.766 1.842-.766h.508v-1.214h-.317c-.381 0-.762 0-1.08.128zm4.257-3.77h-1.206v12.01h1.206v-12.01zm3.429.255c-.191 0-.382.064-.572.192-.127.128-.19.32-.19.575 0 .192.063.383.19.575.127.128.317.192.571.192.19 0 .381-.064.572-.192.127-.128.19-.32.19-.575 0-.191-.063-.383-.19-.575a1.02 1.02 0 00-.572-.191zm.573 3.579h-1.206v8.24h1.206v-8.24zm6.605-.192c-.317 0-.635.064-.952.128-.318.127-.572.191-.763.319-.19.128-.38.255-.508.447l-.317.32c-.064.063-.064.127-.127.127v-1.213h-1.207v8.241h1.207v-4.536c0-.83.254-1.47.762-1.98.508-.512 1.08-.767 1.842-.767.635 0 1.207.191 1.588.639.444.447.635 1.022.635 1.725v4.92h1.207v-4.92c0-1.086-.318-1.917-.953-2.556-.635-.575-1.46-.894-2.414-.894zm9.463 0c-1.08 0-2.033.447-2.795 1.278-.825.83-1.207 1.852-1.207 3.066 0 1.214.382 2.236 1.207 3.067.826.83 1.779 1.278 2.858 1.278a3.97 3.97 0 001.207-.192c.381-.128.699-.256.953-.383a2.83 2.83 0 00.698-.511c.191-.192.382-.32.445-.384.064-.064.127-.128.127-.191l-.762-.767-.318.32c-.19.255-.508.447-.952.702-.445.256-.89.32-1.398.32-.762 0-1.397-.256-1.969-.831-.571-.511-.889-1.214-.889-1.917h6.669l.064-.639c0-1.213-.381-2.172-1.144-2.938-.762-.895-1.651-1.278-2.794-1.278zm-2.795 3.705c.064-.703.381-1.278.953-1.789.508-.51 1.143-.766 1.905-.766.763 0 1.334.255 1.842.703.508.51.826 1.086.889 1.852h-5.589zm13.592 1.023a4.182 4.182 0 00-1.08-.767c-.445-.128-.889-.32-1.27-.383-.445-.128-.826-.256-1.08-.511-.318-.192-.445-.448-.445-.767 0-.32.127-.575.445-.83.254-.256.635-.384 1.08-.384.381 0 .698.064 1.016.255.317.128.508.256.571.384.064.064.127.191.191.255l.889-.83-.127-.128c-.063-.064-.19-.128-.317-.256a1.381 1.381 0 00-.509-.319c-.19-.128-.444-.192-.762-.255-.317-.064-.635-.128-.952-.128-.763 0-1.461.255-1.969.703-.508.447-.762 1.022-.762 1.597 0 .51.127.958.444 1.277.318.32.699.575 1.143.703.445.128.89.32 1.271.447.444.128.825.32 1.079.512.318.191.445.51.445.83 0 .383-.127.703-.445.959-.317.255-.762.383-1.333.383-.254 0-.509-.064-.763-.128a1.224 1.224 0 01-.571-.32c-.127-.127-.318-.255-.445-.383l-.254-.255c-.063-.064-.063-.128-.063-.128l-.89.83.127.128c.064.128.191.192.382.384.19.127.381.255.571.447.254.128.508.255.826.383.317.128.698.128 1.08.128.889 0 1.651-.256 2.159-.703a2.383 2.383 0 00.826-1.789c-.064-.51-.191-.958-.508-1.341z" fill="#46484D"/></g><defs><linearGradient id="paint0_linear_400_5308" x1="85.406" y1="13.32" x2="110.011" y2="13.32" gradientUnits="userSpaceOnUse"><stop stop-color="#B02224"/><stop offset=".072" stop-color="#B72226"/><stop offset=".309" stop-color="#CC252B"/><stop offset=".544" stop-color="#DA262F"/><stop offset=".776" stop-color="#E32631"/><stop offset="1" stop-color="#E62731"/></linearGradient><clipPath id="clip0_400_5308"><path fill="#fff" d="M0 0h188v46H0z"/></clipPath></defs></svg>