<svg width="209" height="56" viewBox="0 0 209 56" fill="none" xmlns="http://www.w3.org/2000/svg">
<g clip-path="url(#clip0_400_5211)">
<path fill-rule="evenodd" clip-rule="evenodd" d="M116.93 5.76471C117.726 5.7823 119.679 5.31376 119.679 2.76322C119.679 0.689206 118.033 0 116.998 0C116.382 0 114.418 0.22707 114.418 2.87836C114.418 4.26316 115.166 5.72473 116.93 5.76471ZM117.089 0.751571C117.825 0.751571 118.631 1.30805 118.601 3.00308C118.577 4.2056 118.078 4.90919 117.046 4.92199C115.819 4.92998 115.391 3.96254 115.372 2.88155C115.34 1.08098 116.465 0.746773 117.092 0.751571H117.089ZM144.072 5.52484C144.827 5.9518 146.403 5.90862 147.182 5.04512C147.341 5.2181 147.463 5.42225 147.54 5.64477H148.496C148.282 4.77807 148.227 3.40605 148.257 2.28669C148.287 1.16733 148.123 0.725985 147.66 0.36779C147.196 0.00959451 145.857 -0.0815534 145.028 0.12313C144.412 0.283038 143.87 0.625243 143.595 1.68384H144.431C145.514 0.100742 147.183 0.985037 147.183 1.43918V2.16037C145.286 2.38424 144.061 2.4466 143.475 3.59954C143.281 4.13684 143.395 5.14106 144.072 5.52484ZM144.67 3.60594C145.027 3.19657 146.373 3.10063 147.182 3.00468C147.182 3.65711 147.182 4.25837 146.941 4.44386C146.701 4.62935 145.006 5.35214 144.67 4.79726C144.334 4.24238 144.303 4.0233 144.67 3.60434V3.60594ZM83.6876 4.08567C83.6923 3.80729 83.6154 3.53366 83.4664 3.29882C83.3174 3.06398 83.103 2.87828 82.8497 2.76482C83.1014 2.54095 83.498 2.17316 83.4869 1.49834C83.4659 1.12239 83.3008 0.769184 83.0261 0.512795C82.7514 0.256407 82.3885 0.116756 82.0135 0.12313C81.217 0.12313 79.1462 0.12313 79.1462 0.12313V5.64477H82.0135C82.2259 5.65463 82.4382 5.62188 82.638 5.54844C82.8377 5.47499 83.0208 5.36233 83.1767 5.21702C83.3326 5.07172 83.458 4.89669 83.5457 4.70217C83.6334 4.50764 83.6817 4.29751 83.6876 4.08407V4.08567ZM80.1004 0.842718C82.3002 0.842718 82.4993 1.02821 82.4993 1.58469C82.4993 2.28989 82.0565 2.40343 80.1004 2.40343V0.842718ZM80.1004 3.12461C82.7478 3.12461 82.7302 3.61393 82.7302 4.08407C82.7302 4.60857 82.571 4.92359 80.1004 4.92359V3.12461ZM107.602 3.12461C108.618 3.29572 109.22 4.74129 109.636 5.64477H110.592C110.346 4.69332 109.476 3.18378 108.559 2.88315C109.172 2.43381 109.539 1.44397 109.873 0.842718H110.472V0.12313C110.123 0.12313 109.516 0.12313 109.516 0.12313L108.083 2.52176H107.605V0.12313H106.649V5.64477H107.605L107.602 3.12461ZM124.94 1.08258L126.374 5.64477H127.33L129.004 1.32724V5.64477H129.959V0.12313H128.526L126.971 4.44066L125.538 0.12313H123.985V5.64477H124.94V1.08258ZM135.582 0.842718H138.094V5.63998H139.05V0.12313H134.627V5.64477H135.582V0.842718ZM153.874 3.24455H156.505V5.64318H157.461V0.12313H156.505V2.39863H153.874V0.12313H152.918V5.64477H153.874V3.24455ZM165.831 1.56391V5.64477H166.787V0.12313H165.71C164.914 1.44238 163.877 3.00148 163.08 4.32393V0.12313H162.125V5.64477H163.202C164.355 3.90337 164.845 2.93752 165.835 1.56391H165.831ZM172.044 5.64477C172.751 4.75408 172.781 4.29834 173.716 3.60434C173.952 3.44443 174.497 3.46842 174.912 3.48441V5.64477C175.261 5.64477 175.505 5.64477 175.868 5.64477V0.12313C173.638 0.100742 171.782 0.0127927 171.443 0.842718C170.992 1.95089 171.457 3.05745 172.759 3.36448V3.48441C171.833 3.79143 171.58 4.8948 170.965 5.52484V5.64477C171.45 5.64797 171.747 5.64477 172.053 5.64477H172.044ZM172.412 2.39863C172.154 1.96848 172.042 1.61828 172.412 1.07778C173.028 0.825128 173.987 0.815534 174.922 0.837921V2.64329H173.608C172.988 2.63529 172.819 2.52496 172.412 2.39863ZM208.642 32.4135C207.686 33.0643 206.754 33.6224 206.012 34.0941C204.4 35.1159 203.4 35.8531 201.468 36.6143C200.69 36.9197 198.819 37.4618 198.122 37.094C196.866 36.2097 197.939 33.8207 198.482 32.8932C200.66 29.1673 202.315 28.7356 204.58 24.8514C204.562 23.4762 203.156 20.5834 202.309 20.1693C201.568 19.875 201.316 21.2183 200.634 21.0088C200.394 20.9368 199.908 20.4347 199.679 20.2892C198.938 19.8708 198.129 19.5866 197.289 19.4497C196.31 19.3122 193.677 19.2898 192.745 19.5696C191.152 20.0621 189.623 21.0424 188.444 21.9682C185.996 23.8872 183.825 25.6557 182.944 29.1641C182.13 32.4135 184.537 34.2812 187.009 34.4411C187.767 34.4907 188.992 34.4715 190.716 33.4817C189.793 34.4971 187.786 36.4864 185.813 37.6841C183.943 38.8178 182.394 38.6915 181.512 38.6435C181.193 37.8983 181.521 36.6654 181.153 35.8835C180.988 35.5081 180.689 35.2082 180.316 35.0424C179.838 34.8329 178.764 34.7497 177.686 35.2838C178.044 34.9832 178.662 34.3931 179.001 34.0829C179.127 33.2658 178.861 31.9641 178.524 31.4412C177.869 31.8042 175.717 33.6336 175.056 34.0829C172.778 35.6324 170.223 37.7033 168.6 37.2043C166.977 36.7054 166.394 33.7823 174.578 25.7997C174.987 25.3999 175.852 24.6179 176.133 24.119C176.818 22.8685 176.41 20.2604 175.655 19.5584C175.148 19.0787 174.478 19.3441 173.743 19.7983C170.666 21.6964 165.134 27.1077 161.668 30.3618C160.712 31.2589 159.399 32.4646 158.322 33.2402C157.055 34.1821 155.692 34.9861 154.256 35.6388C153.831 35.8307 153.171 36.2273 152.583 35.9986C152.312 35.8931 152.134 34.9097 152.464 33.7183C152.927 32.0393 154.476 30.6945 157.365 28.5565C158.53 27.6946 160.406 25.7837 161.158 24.8786C161.492 24.4788 162.52 23.2955 162.751 22.3073C162.845 21.8979 162.711 21.5573 162.153 21.1079C161.596 20.6586 158.587 20.7513 157.489 21.1079C156.544 21.4493 155.657 21.9347 154.86 22.5471C152.661 24.2214 151.154 26.5592 149.837 29.0298C149.519 29.6183 149.025 30.5521 148.76 31.4284C147.448 32.5334 145.708 33.5073 143.62 34.9097C142.935 35.3686 140.331 37.2811 139.076 36.5903C138.824 36.4528 137.175 36.0482 139.315 32.3895C140.398 30.5378 142.231 29.1657 143.499 27.4675C144.036 26.7495 144.869 26.0027 145.175 25.0689C145.653 23.5865 143.821 21.1079 142.902 20.027C141.796 20.5339 140.143 21.786 139.315 22.4256C133.164 27.1989 129.3 30.3986 126.401 32.6294C126.689 31.7243 127.4 30.8704 127.956 30.1092C129.517 27.9824 130.85 25.8956 131.779 23.8728C132.119 23.1292 132.228 21.8995 131.54 20.6314C130.13 18.0345 126.259 20.641 125.201 21.3526C121.697 23.7065 117.997 27.1445 115.037 30.1156C114.115 31.0415 111.775 33.5216 111.092 34.0765C110.773 34.3404 110.375 34.657 110.136 34.4363C109.897 34.2156 109.532 33.3937 112.493 30.0564C113.952 28.4126 115.893 26.5145 117.071 24.7139C117.334 24.363 117.498 23.9486 117.549 23.513C117.638 22.5823 117.113 22.0418 116.116 21.8323C113.76 21.3366 112.229 22.4288 110.974 23.393C109.489 24.5332 107.187 27.6002 106.195 29.1497C105.813 29.6963 105.53 30.3057 105.357 30.9503C105.212 31.0495 103.036 32.914 101.89 33.9518C100.193 35.4821 98.4903 37.0125 96.848 38.538C95.2854 39.9772 93.6909 41.218 92.4246 42.3758C93.1881 41.0497 94.0263 39.7684 94.935 38.538C96.7939 35.9794 99.2915 32.0569 100.316 30.4962C101.241 29.0874 103.024 26.7255 103.903 24.4932C104.43 23.1468 103.425 21.0136 102.828 20.1757C100.892 20.4011 98.0093 23.6265 96.7286 24.8578C93.8614 27.6146 91.2984 29.9941 88.479 32.5334C87.4803 33.4353 86.4162 34.4235 85.3123 34.9992C84.2833 35.5381 83.3817 35.7652 82.1409 35.8947C82.2747 34.6826 82.0692 33.4081 83.815 31.9338C86.4831 29.679 90.3682 25.7805 90.7505 25.2176C91.7157 23.7784 92.0901 23.1068 92.1841 22.3392C92.1729 20.7529 90.5322 19.576 89.6721 19.0979C87.8148 19.4625 85.9973 21.2007 84.7707 22.3392C82.5853 24.3669 80.3903 26.7319 79.0363 29.3017C78.6289 30.089 78.3003 30.915 78.0551 31.7674C77.2332 32.4439 74.9235 34.326 74.2545 34.8233C71.8874 36.5823 70.9875 37.5625 67.7969 38.4244C65.3136 39.0961 64.2925 37.6249 63.4961 36.5055C62.6742 35.3382 60.8264 33.173 59.1953 32.9044C59.6732 31.9769 60.7292 31.0463 61.4668 30.5058C62.6116 29.6321 63.8097 28.831 65.0539 28.1071C66.1052 27.5043 67.5389 26.5448 68.4946 26.4121C69.4503 26.2794 70.0429 26.628 70.5287 27.3716C73.1395 27.0805 74.847 25.8252 75.5495 24.7315C75.6229 23.8777 75.4742 23.0194 75.1179 22.2407C74.7616 21.462 74.21 20.7896 73.517 20.2892C72.1726 19.2834 68.2222 21.746 67.3047 22.3296C63.5088 24.7283 60.4648 27.1509 56.9015 30.0133C55.452 31.1822 53.2666 33.1011 51.8807 34.5738C51.9158 34.0493 52.0002 33.5089 52.0002 32.7733C53.3478 31.4204 55.1541 29.6822 56.0653 28.9355C56.9764 28.1887 58.093 27.2356 60.4903 24.9745C61.2326 24.2741 63.0389 22.5199 61.9239 21.2535C61.4317 20.6938 59.1857 20.7737 57.2599 21.1335C56.1704 21.3318 54.6444 22.2609 53.9149 22.9325C51.8632 24.8178 50.9696 26.3417 49.4914 28.6892C49.0417 29.36 48.6798 30.0861 48.4146 30.8496C48.1581 31.1854 47.6532 31.6923 46.7405 32.4103C45.1476 33.6608 44.5423 34.0461 42.7949 35.1703C41.965 35.7044 40.4486 36.2897 39.6856 36.4911C38.9226 36.6926 38.6996 36.3105 38.6104 35.7716C38.5753 35.5669 39.0261 34.0126 39.6888 32.7029C41.2339 29.6646 43.851 25.5278 45.0664 23.8872C46.124 22.4608 47.4732 21.0232 48.0562 18.7253C48.5341 16.8352 48.2282 15.0666 47.5783 13.928C47.0033 12.9206 45.7338 12.1371 44.8274 11.6477C43.3938 12.3481 40.4645 15.1945 39.3272 16.2099C36.1079 19.0883 32.731 21.4693 28.3267 23.1724C26.5092 23.8744 22.1144 25.4559 20.4339 22.811C19.3842 20.9256 22.108 16.8096 22.108 16.8096C22.108 16.8096 23.1338 15.0346 25.5757 13.2085C30.2859 9.69046 35.7017 6.92884 42.9144 7.93147C42.2358 9.91913 42.368 10.3301 42.9144 10.8098C43.9306 11.7021 48.9546 8.18892 50.4471 6.84889C51.1241 6.23963 52.04 5.14746 51.1655 3.72747C50.7848 3.11022 47.8459 0.476528 43.1533 0.369389C41.5747 0.331011 38.1118 0.369389 36.6973 0.729183C26.334 3.30371 18.0876 8.50394 14.5736 17.6491C12.6845 22.5647 16.3784 28.4765 20.0739 28.9323C23.5671 29.3624 27.6242 27.5459 29.4162 26.6328C31.1009 25.7779 32.7329 24.8221 34.3032 23.7704C32.8059 25.6078 30.0932 27.4595 28.6835 28.331C24.5786 30.8704 19.8031 33.9278 17.084 34.334C14.7505 34.6778 13.8871 31.7179 10.8718 32.4151C7.34511 33.2274 5.71558 34.5642 3.33898 36.4959C2.11246 37.4874 -0.560412 40.3881 0.105417 41.5363C0.771245 42.6844 1.51672 43.1753 2.61581 43.6966C5.76018 45.2062 10.4481 43.3256 12.78 42.2575C18.1465 39.7965 22.3246 37.1276 26.8899 33.8559C29.1343 32.2472 35.5839 26.6008 36.5746 25.5726C35.8069 27.4067 35.0041 28.654 34.0643 30.0148C32.7629 31.8954 31.6749 33.6112 30.9549 36.0162C30.4245 37.7944 30.2843 40.8694 31.3133 42.2527C32.3949 43.7094 34.9515 44.0037 37.1736 43.2121C39.5747 42.3263 41.8626 41.1577 43.9896 39.7309C45.2567 38.8683 46.4198 37.8611 47.4557 36.7294C47.8045 38.4644 48.1008 39.8684 48.6519 41.4115C48.945 42.2303 49.3974 42.3982 50.2066 42.371C51.6275 42.3246 51.9062 41.3652 54.0295 38.1702C54.4612 37.4989 54.9876 36.8941 55.5922 36.3744C55.9968 37.0908 56.4348 37.7384 56.9079 38.4148C58.2762 40.3737 60.0093 42.7947 62.4082 43.6918C63.7557 44.1987 65.8934 44.0117 66.9511 43.5719C70.7852 41.96 75.7629 36.7214 77.5932 35.2902C77.8273 36.8797 78.1571 38.5907 80.3441 40.8103C80.7535 41.226 81.2377 41.4707 81.8988 41.6514C82.9549 41.9424 84.5605 40.5832 85.7217 39.7325C87.8323 38.1862 92.6046 34.2652 92.8897 33.9758C92.0566 35.626 91.2729 37.046 90.2598 38.6563C88.5714 41.338 87.1346 43.9173 85.4812 46.6997C83.9345 49.2934 82.3973 51.1036 83.1747 53.8316C83.3499 54.4489 83.6844 55.4515 84.5238 55.9424C85.0989 56.2782 86.4098 55.1509 87.9916 53.1824C89.7167 51.0348 92.3147 48.3068 93.1334 47.4257C100.582 39.3487 103.427 36.1234 104.373 34.9416C104.644 38.0487 104.822 39.1888 106.047 41.4243C106.316 41.9136 107.223 42.6908 108.081 42.6252C110.102 42.4653 111.648 40.1403 113.102 38.4228C116.369 34.569 120.907 29.7958 121.473 29.3081C122.498 28.4142 122.53 28.1215 123.147 28.4685C123.701 28.7804 122.223 30.525 121.713 31.3469C120.471 33.3553 119.472 34.8009 118.368 36.9885C117.89 37.9479 117.114 40.6104 118.01 41.7857C119.333 43.5335 122.046 42.7452 123.032 41.7857C124.018 40.8263 128.652 36.6846 130.445 34.9432C132.239 33.2018 133.617 31.9801 135.946 29.783C135.176 31.083 134.842 31.6123 134.512 32.1816C133.164 34.5003 129.822 39.0577 131.882 42.2638C132.686 43.5159 134.512 44.1955 136.661 43.2233C139.595 41.9009 141.831 39.9724 144.307 38.1814C145.514 37.3285 146.672 36.4064 147.774 35.4198C147.375 40.2378 151.076 43.5959 153.872 42.2623C156.204 41.1525 158.053 39.2512 159.852 37.465C160.513 36.8062 161.975 35.4885 162.362 34.5866C160.85 38.215 160.944 41.3828 161.765 42.5085C162.72 43.815 163.995 44.3826 165.352 44.1908C167.717 43.8549 169.551 42.6444 171.929 40.588C174.307 38.5316 175.274 37.7097 176.83 36.0274C176.207 37.3994 175.715 38.6419 175.755 39.3855C175.894 42.3614 178.374 44.1476 182.331 43.2233C185.067 42.5837 186.684 40.9846 188.543 39.3855C189.475 38.586 190.687 37.6265 191.533 36.8637C190.896 38.2453 190.72 38.7459 190.577 39.5054C190.171 41.6338 191.055 43.3288 192.729 44.066C194.403 44.8032 196.88 43.4264 197.871 42.8667C200.763 41.2307 203.558 39.427 206.241 37.465C207.105 36.8413 207.919 36.0994 208.991 35.3046C208.976 33.6816 208.871 33.1634 208.642 32.4135ZM196.326 26.7719C195.423 28.5549 194.204 29.7318 192.981 30.373C192.3 30.728 189.954 31.9178 189.158 31.4524C188.361 30.9871 188.251 30.2547 188.321 29.2921C188.452 27.4595 189.288 25.571 191.431 24.2501C192.477 23.6105 194.12 22.8557 194.897 22.6894C196.283 22.3952 196.941 22.9437 197.049 23.7704C197.101 24.2134 197.084 25.2736 196.326 26.7719ZM102.345 17.889L102.944 12.7271L107.847 11.7677L102.825 11.2879L101.987 6.24603L101.389 11.2879L96.0038 12.1275L101.385 12.7271L102.345 17.889ZM113.586 19.9294C114.86 19.2898 116.453 18.6501 117.771 18.3687C118.639 18.188 125.568 17.2893 131.044 17.1678C137.734 17.0191 141.913 16.8768 145.272 16.808C146.726 16.7776 148.649 16.712 149.339 16.4482C149.657 16.3283 149.877 16.2979 149.936 15.8485C149.756 15.2089 146.432 12.3162 144.436 11.6461C142.784 11.0913 133.923 11.7213 130.804 12.1259C126.407 12.6967 121.919 13.4323 118.129 15.0042C116.085 15.8626 114.124 16.9075 112.27 18.1256C111.851 18.9652 111.973 19.3266 112.27 19.9262L113.586 19.9294ZM171.939 43.4568V48.3788L167.16 49.9395L172.181 50.0594L173.735 54.7415V49.9443L178.514 48.1437H173.492L171.939 43.4568ZM36.9394 44.5377L34.5501 48.7386L29.6488 47.8974L33.8333 50.2961L32.9954 55.338L35.3848 50.8957L40.4071 51.8552L35.9821 49.3334L36.9394 44.5377ZM70.2993 5.52005C71.0544 5.947 72.6313 5.90383 73.4087 5.04032C73.5685 5.21288 73.6906 5.41716 73.7671 5.63998H74.7228C74.5078 4.77327 74.452 3.40126 74.4839 2.2819C74.5157 1.16254 74.3485 0.721188 73.8849 0.362993C73.4214 0.00479725 72.0786 -0.0815534 71.2519 0.12313C70.6354 0.283038 70.0938 0.625243 69.8183 1.68384H70.6561C71.7393 0.100742 73.4055 0.985037 73.4055 1.44238V2.16356C71.5083 2.38744 70.2834 2.4498 69.6988 3.60274C69.5045 4.13684 69.6176 5.14106 70.2945 5.52484L70.2993 5.52005ZM70.8983 3.60114C71.2551 3.19178 72.5995 3.09583 73.4087 2.99989C73.4087 3.65231 73.4087 4.25357 73.1697 4.43906C72.9308 4.62456 71.2296 5.35214 70.8935 4.79726C70.5574 4.24238 70.5271 4.0233 70.8935 3.60434L70.8983 3.60114ZM97.8022 5.52005C98.5572 5.947 100.133 5.90383 100.912 5.04032C101.071 5.2133 101.193 5.41745 101.27 5.63998H102.226C102.012 4.77327 101.955 3.40126 101.987 2.2819C102.019 1.16254 101.853 0.721188 101.389 0.362993C100.926 0.00479725 99.5814 -0.0815534 98.7595 0.12313C98.1431 0.283038 97.6015 0.625243 97.3259 1.68384H98.1638C99.2374 0.100742 100.907 0.985037 100.907 1.43918V2.16037C99.0096 2.38424 97.7847 2.4466 97.1985 3.59954C97.0073 4.13684 97.1204 5.14106 97.8038 5.52484L97.8022 5.52005ZM98.3995 3.60114C98.7563 3.19178 100.101 3.09583 100.912 2.99989C100.912 3.65231 100.912 4.25357 100.671 4.43906C100.43 4.62456 98.7308 5.35214 98.3947 4.79726C98.0586 4.24238 98.0284 4.0233 98.3947 3.60434L98.3995 3.60114ZM91.8177 1.56391V5.64477H92.7734V0.12313H91.6966C90.9002 1.44238 89.8632 3.00148 89.0668 4.32393V0.12313H88.111V5.64477H89.1878C90.3379 3.90337 90.8285 2.93752 91.8177 1.56391Z" fill="#283273"/>
</g>
<defs>
<clipPath id="clip0_400_5211">
<rect width="209" height="56" fill="white"/>
</clipPath>
</defs>
</svg>
