<svg width="205" height="66" fill="none" xmlns="http://www.w3.org/2000/svg"><g clip-path="url(#clip0_400_5255)"><path d="M91.183 60.213c3.795.629 11.053 1.604 19.916 1.801 8.863.234 19.303-.319 29.129-1.829 9.854-1.491 19.104-3.967 25.626-6.678 6.617-2.57 10.308-5.721 10.298-5.75.047.02-3.794 3.668-10.798 6.81-6.937 3.245-16.707 6.35-26.986 8.366-10.288 2.064-21.077 3.002-29.836 3.067-8.778.103-15.593-.731-17.99-1.097-8.231-1.295-14.234-3.555-17.897-5.712-3.719-2.185-4.917-4.164-4.55-4.558.397-.45 2.247.478 5.966 1.67 3.747 1.2 9.401 2.729 17.122 3.91z" fill="#EA7624"/><path d="M149.176 32.563l-8.354-15.11h-5.427l-7.523 15.11h2.785l5.682-11.696h.104l6.267 11.696h6.466zM41.487 25.97l8.901-.122c-.104 2.12-1.246 3.31-1.84 3.798-1.482 1.173-3.568 1.285-4.569 1.285-1.482 0-2.756-.215-4.05-1.003-.82-.47-1.774-1.332-2.246-2.026l-.415-.638-2.888 1.698c.84 1.003 2.18 1.997 3.568 2.71 2.152 1.079 4.134 1.35 6.522 1.35 2.548 0 6.532-.374 9.41-2.569 1.992-1.491 2.908-3.583 2.908-5.43 0-1.83-.916-3.95-2.907-5.44-2.492-1.886-6.108-2.57-9.345-2.57-2.077 0-4.002.215-5.956.966-1.623.563-2.898 1.379-4.2 2.513l2.888 1.66.717-.76c.548-.646 1.53-1.275 2.417-1.622 1.17-.544 2.407-.694 3.68-.694 2.568 0 4.04.854 4.871 1.66.548.516 1.275 1.51 1.444 3.04l-8.9-.113-.01 2.307zm117.921 7.044c2.708 0 6.484-.638 8.985-2.561 2.001-1.5 2.955-3.62 2.955-5.44 0-1.8-.944-3.94-2.955-5.44-2.501-1.913-6.277-2.57-8.985-2.57-2.681 0-6.476.657-9.024 2.57-2.001 1.491-2.917 3.64-2.917 5.44 0 1.81.906 3.94 2.917 5.44 2.548 1.923 6.343 2.56 9.024 2.56zm0-14.163c1.444 0 3.105.319 4.36 1.988 1.048 1.304 1.208 2.842 1.208 4.174 0 1.332-.16 2.851-1.208 4.174-1.255 1.66-2.916 1.96-4.36 1.96-1.454 0-3.106-.3-4.38-1.96-1.01-1.332-1.208-2.842-1.208-4.174 0-1.332.198-2.87 1.208-4.174 1.265-1.67 2.926-1.988 4.38-1.988zm-38.162 2.41c.5.17.953.376 1.303.685.679.553 1.236 1.463 1.236 2.945 0 1.5-.557 2.42-1.236 2.973-.35.31-.803.526-1.303.685a6.562 6.562 0 01-1.878.29h-.623v-7.868h.623c.679 0 1.312.103 1.878.29zm0 9.492c3.228-.206 4.937-1.003 5.833-1.576 1.699-1.078 2.473-2.626 2.473-4.286 0-2.204-1.378-3.545-2.473-4.258-1.529-1.013-3.662-1.454-5.833-1.594-.566-.038-1.152-.038-1.708-.038h-.633V16.92h-5.776V19h-.605c-.575 0-1.151 0-1.717.038-2.181.13-4.323.581-5.834 1.594-1.095.713-2.473 2.054-2.473 4.258 0 1.66.784 3.208 2.473 4.286.888.563 2.587 1.36 5.834 1.576.528.01 1.085.047 1.717.047h.605v2.223h5.776V30.8h.633c.623-.01 1.179-.047 1.708-.047zm-10.439-9.491a5.814 5.814 0 011.84-.291h.68v7.869h-.68a6.347 6.347 0 01-1.84-.291c-.491-.16-.944-.375-1.303-.685-.651-.562-1.236-1.472-1.236-2.973 0-1.482.585-2.391 1.236-2.945.359-.31.812-.525 1.303-.684zM89.324 33.014c2.68 0 6.465-.638 8.967-2.561 1.991-1.5 2.907-3.62 2.907-5.44 0-1.8-.925-3.94-2.907-5.44-2.511-1.913-6.287-2.57-8.967-2.57-2.719 0-6.504.657-9.014 2.57-2.011 1.491-2.945 3.64-2.945 5.44 0 1.81.934 3.94 2.945 5.44 2.51 1.923 6.295 2.56 9.014 2.56zm0-14.163c1.425 0 3.096.319 4.37 1.988 1.02 1.304 1.208 2.842 1.208 4.174 0 1.332-.189 2.851-1.208 4.174-1.274 1.66-2.945 1.96-4.37 1.96-1.454 0-3.144-.3-4.408-1.96-1.01-1.332-1.161-2.842-1.161-4.174 0-1.332.141-2.87 1.16-4.174 1.265-1.67 2.955-1.988 4.409-1.988zm-21.795.92c.718.027 1.595.159 2.256.571.878.582 1 1.35 1 1.839 0 .478-.113 1.322-1.057 1.913-.632.46-1.444.581-2.199.638h-3.285v-5h2.69l.595.038zm0 7.24h1.086c2.775 0 4.71-.319 6.078-1.163 1.7-1.07 2.096-2.551 2.096-3.705 0-1.135-.397-2.58-2.096-3.63-1.378-.806-3.237-1.078-6.343-1.078h-9.863v15.11h5.757V27h3.285v.01zm-40.625 1.21l2.473 4.342h6.447l-8.731-15.11h-5.37l-7.92 15.11h2.85l2.266-4.342h7.985zm-4.05-7.232l2.88 5.168h-5.758l2.718-5.261h.095l.066.093zm159.547-1.256h6.229v-2.289h-18.188v2.289h6.192v12.83h5.767v-12.83zM26.394 45.347l-.179-.535-9.288.535 1.878.966 7.59-.966zm1.275 1.735l-.227-.178-.396-.46-4.663.938 1.982.694 3.304-.994zm3.671-.384c.218-.038.548-.17.822-.376l-1.37-2.813 1.407-.694-1.18-1.07-.49.226-2.02.966.594 1.435.963-.46 1.274 2.786zm2.294-5.881c.52.656.897 1.444 1.104 2.363h-.877a2.916 2.916 0 00-.236-.787c-.576-1.576-1.747-2.711-3.096-3.64l-.491-.337.49.187c1.247.526 2.342 1.239 3.106 2.214zm0 8.516l.255.497-.255.15-.68.32-.783-1.651c-.5.187-1.057.29-1.623.3a4.489 4.489 0 01-1.728-.244l-.67 1.585-.708-.14-.236-.33.236-.412.567-1.088-.5-.375.48-.61c.812.544 1.718.816 2.558.816.888.028 1.756-.262 2.568-.853l.529.14.217.104-.217.178-.548.478.538 1.135zm11.11-4.249l2.454-1.64h-13.31c0 .59-.065 1.106-.254 1.528-.51 1.388-1.784 2.035-3.096 2.035-1.255-.056-2.539-.731-3.105-1.998a3.767 3.767 0 01-.321-1.566H13.794l2.425 1.641 10.175-.534c.208.74.557 1.416 1.039 1.904.811.89 1.963 1.416 3.105 1.416 1.152.019 2.294-.422 3.096-1.379.453-.497.765-1.144.972-1.922l10.138.515zm-.699.263l-1.869.928-7.532-.928.189-.535 9.212.535zm-5.408 2.045l-2.058.703-2.945-.928-.255-.085.255-.253.34-.366 4.663.929zm.962-.122l1.671-.807-6.777-.853-.359.6 5.465 1.06zm-18.235 0l-1.643-.741 6.796-.9.387.58-5.54 1.06zm42.918-2.702h1.643c.538 0 .972-.187 1.236-.384.368-.3.717-.844.755-1.322.057-.47-.113-.695-.18-.788-.197-.207-.566-.32-.943-.32H65.14l-.859 2.815zm2.653-3.732c.462 0 1.302.028 1.83.553.331.385.416.853.331 1.313-.104.797-.538 1.604-1.218 2.11-.547.404-1.378.695-2.237.695h-1.66l-1.105 3.582H61.79l2.54-8.244h2.605v-.01zm6.144 5.12c.151-.45.35-1.172.104-1.575-.132-.234-.444-.394-.84-.394-.434 0-.84.216-1.123.478-.434.385-.651.985-.812 1.482l-.17.507c-.132.44-.359 1.135-.094 1.604.094.15.34.375.82.375.435 0 .784-.16 1.077-.375.52-.45.708-1.05.897-1.604l.141-.497zm1.048-1.978c.189.328.245.778.18 1.369-.114.891-.586 2.28-1.577 3.105-.595.487-1.312.75-1.992.75-1.047 0-1.453-.582-1.557-.75-.264-.432-.217-.948-.198-1.323.123-.957.585-2.317 1.585-3.151a3.23 3.23 0 012.002-.732c.82 0 1.34.338 1.557.732zm4.993 4.642c-.189.094-.481.244-.755.338a3.76 3.76 0 01-1.35.244c-.68 0-1.198-.244-1.463-.572-.274-.366-.368-1.004-.292-1.482.132-1.041.726-2.683 1.878-3.414.538-.32 1.227-.47 1.756-.47.368 0 .84.095 1.123.292.292.215.406.506.359.881l-.218.675-.962.104c.15-.338.245-.694.094-.9-.085-.17-.32-.291-.736-.291a1.4 1.4 0 00-.821.234c-.652.366-.878.985-1.048 1.566l-.236.76c-.17.46-.227 1.004-.066 1.341.113.197.368.479 1.01.479.33 0 .557-.047.897-.16l.726-.262.104.637zm5.767 0c-.189.094-.5.244-.774.338a3.88 3.88 0 01-1.35.244c-.679 0-1.189-.244-1.453-.572-.293-.366-.368-1.004-.311-1.482.122-1.041.755-2.683 1.878-3.414.51-.32 1.218-.47 1.746-.47.387 0 .85.095 1.133.292.302.215.406.506.349.881l-.208.675-.963.104c.161-.338.246-.694.104-.9-.056-.17-.33-.291-.736-.291-.264 0-.538.047-.821.234-.642.366-.859.985-1.067 1.566l-.217.76c-.16.46-.226 1.004-.047 1.341.123.197.35.479 1.01.479.32 0 .557-.047.878-.16.283-.066.49-.14.727-.262l.122.637zm6.645-4.014L87.53 49.09h-1.18l1.775-5.75h1.01l-1.378 4.484 3.992-4.483h1.17l-1.774 5.75h-.99l1.377-4.484zm8.156-3.667l-.085.356c-.114.328-.274.666-.784.929a2.5 2.5 0 01-1.095.262c-.264 0-.68-.009-.953-.262a.81.81 0 01-.283-.685l.236-.6h.764l-.028.14.028.526.453.169.548-.17.368-.515.038-.15h.793zm-1.624 8.15h-.991l1.388-4.483-4.012 4.483h-1.161l1.765-5.75h.982l-1.378 4.484 3.992-4.483h1.17l-1.755 5.75zm6.258-.469c-.198.094-.5.244-.783.338a3.82 3.82 0 01-1.36.244c-.66 0-1.189-.244-1.453-.572-.274-.366-.359-1.004-.293-1.482.132-1.041.746-2.683 1.879-3.414.509-.32 1.208-.47 1.736-.47.378 0 .859.095 1.152.292a.886.886 0 01.349.881l-.236.675-.934.104c.132-.338.226-.694.075-.9-.075-.17-.302-.291-.727-.291a1.38 1.38 0 00-.821.234c-.623.366-.868.985-1.057 1.566l-.236.76c-.142.46-.208 1.004-.047 1.341.123.197.368.479 1.019.479.321 0 .548-.047.897-.16l.727-.262.113.637zm5.069.47l-.255-1.82-.227-.638-.528-.169h-.793l-.802 2.626h-1.01l1.784-5.75h.991l-.708 2.29h.708l.717-.198.453-.562.415-.629c.246-.366.435-.731.916-.9l.462-.085.491.085-.349.75-.444.066-.33.413-.321.487c-.141.235-.236.45-.538.657l-.557.29-.028.047.5.32.227.58.292 2.149-1.066-.01zm7.532-4.484l-4.002 4.483h-1.161l1.765-5.75h.982l-1.378 4.484 4.011-4.483h1.18l-1.784 5.75h-1.001l1.388-4.484zm5.833 1.097l.038-.234c.113-.385.236-.807.057-1.116-.133-.31-.444-.357-.642-.357-.406 0-.736.132-1.02.394-.264.244-.547.638-.726 1.182l-.038.14 2.331-.009zm-2.614.92c-.114.384-.227.928-.029 1.266.151.281.567.478 1.105.478.339 0 .604-.056.878-.16l.717-.271.113.684c-.198.094-.5.244-.764.338a4.05 4.05 0 01-1.35.244c-1.048 0-1.51-.525-1.671-.825-.538-.967.123-3.32 1.331-4.38a2.881 2.881 0 011.916-.742c.784 0 1.208.357 1.397.676.349.638.113 1.425-.151 2.279l-.085.262h-3.37l-.037.15zm13.894-.207h-.878c-.566 0-.944.113-1.237.282-.33.243-.519.61-.575.947l.113.525.67.253c.349 0 .585-.075.897-.281l.642-.507.368-1.219zm-.51 1.96h-.057a3.444 3.444 0 01-.774.582 2.123 2.123 0 01-1.047.244c-.34 0-.755-.038-1.057-.29a1.072 1.072 0 01-.34-1.033c.056-.544.34-1.219 1.066-1.688.378-.244 1.001-.478 2.077-.478h.859l.245-.722c.047-.17.161-.563-.132-.788-.085-.075-.283-.197-.698-.197-.208 0-.567.028-.859.197-.255.122-.378.319-.51.675l-.897-.047c.038-.431.283-.89.812-1.21.585-.328 1.397-.356 1.746-.356.604 0 1.208.14 1.463.506.114.188.17.45.132.835-.037.281-.113.497-.217.779l-1.132 3.723h-.907l.227-.731zm4.587-2.588h1.265c.189 0 .519-.047.802-.225.274-.207.435-.507.491-.835l-.207-.478-.538-.132h-1.312l-.501 1.67zm-.793 2.542h1.331c.397 0 .652-.122.85-.244.292-.197.453-.526.519-.91l-.189-.488-.547-.16h-1.407l-.557 1.802zm.548-4.99h2.501c.434 0 .859.056 1.161.44.132.17.198.432.151.788-.028.376-.217.732-.509 1.042a1.878 1.878 0 01-.774.431v.028a.818.818 0 01.538.385c.085.169.169.365.132.675-.047.385-.255.976-.897 1.463-.538.385-1.029.497-1.605.497h-2.444l1.746-5.75zm9.477 1.266l-3.974 4.483h-1.161l1.765-5.75h.991l-1.369 4.484 3.955-4.483h1.161l-1.765 5.75h-1l1.397-4.484zm5.493 1.81h-.897c-.557 0-.944.113-1.217.282-.35.243-.557.61-.595.947l.123.525.67.253c.359 0 .566-.075.906-.281l.623-.507.387-1.219zm-.491 1.96h-.056c-.218.197-.463.413-.803.582a2.007 2.007 0 01-1.01.244c-.368 0-.774-.038-1.076-.29-.207-.188-.415-.507-.34-1.033a2.34 2.34 0 011.048-1.688c.406-.244 1.01-.478 2.096-.478h.849l.236-.722c.047-.17.17-.563-.113-.788-.104-.075-.264-.197-.689-.197-.217 0-.576.028-.869.197-.264.122-.396.319-.528.675l-.869-.047c.019-.431.265-.89.793-1.21.586-.328 1.397-.356 1.747-.356.575 0 1.179.14 1.444.506.104.188.17.45.132.835a4.674 4.674 0 01-.208.779l-1.142 3.723h-.878l.236-.731zm6.381.713h-.991l1.52-4.896h-1.586l-.198.62c-.255.75-.529 1.5-.822 2.241-.264.59-.575 1.276-1.255 1.735-.378.263-.859.394-1.246.45v-.825c.264-.056.632-.206.887-.385.406-.29.642-.75.793-1.172.246-.563.718-1.838.916-2.551l.321-.957h3.407l-1.746 5.74zm7.126-4.483l-3.973 4.483h-1.152l1.756-5.75h.981l-1.368 4.484 3.973-4.483h1.161l-1.765 5.75h-.981l1.368-4.484zm2.568 4.483h-.982l1.775-5.75h.972l-.708 2.327h2.473l.717-2.326h.963l-1.746 5.75h-.963l.774-2.599h-2.454l-.821 2.598zm10.59-4.483l-3.983 4.483h-1.142l1.746-5.75h.982l-1.369 4.484 3.955-4.483h1.18l-1.756 5.75h-.982l1.369-4.484zm6.73 0l-3.983 4.483h-1.152l1.747-5.75h1l-1.378 4.484 3.964-4.483h1.161l-1.765 5.75h-.991l1.397-4.484z" fill="#0E4D92"/></g><defs><clipPath id="clip0_400_5255"><path fill="#fff" d="M0 0h205v66H0z"/></clipPath></defs></svg>