<svg width="222" height="35" fill="none" xmlns="http://www.w3.org/2000/svg"><g clip-path="url(#clip0_400_5240)"><mask id="a" style="mask-type:luminance" maskUnits="userSpaceOnUse" x="0" y="0" width="223" height="35"><path d="M0 0h222.001v35H0V0z" fill="#fff"/></mask><g mask="url(#a)"><path d="M28.634 18.797c8.368-.297 13.45-3.858 13.45-8.05 0-4.467-5.538-8.088-14.97-8.088H25.76L28.536 0 24.41.016l-6.802 2.643H6.77c-3.807 0-5.923.937-6.77 2.764h22.275c6.142 0 10.27.935 10.27 5.188 0 4.584-4.963 5.476-10.27 5.476H12.272l8.855 9.564C28.633 33.588 35.672 35 44.41 35L28.634 18.797z" fill="#E3132C"/></g><mask id="b" style="mask-type:luminance" maskUnits="userSpaceOnUse" x="0" y="0" width="223" height="35"><path d="M0 0h222.001v35H0V0z" fill="#fff"/></mask><g mask="url(#b)"><path d="M69.989 20.945c-1.677 0-3.034-.203-4.067-.446v-9.22a34.14 34.14 0 014.067-.24c3.873 0 6.132 1.57 6.132 4.84 0 3.333-2.42 5.065-6.132 5.065M70.57 9.05c-3.26 0-6.423.391-9.814.52v18.52h5.166v-5.402c1.477.139 3.102.242 4.649.242 6.941 0 11.331-2.05 11.331-7.052 0-5.001-4.391-6.827-11.333-6.827m29.022 17.535c-4.1 0-6.941-3.013-6.941-7.79 0-4.744 2.841-7.854 6.94-7.854 4.133 0 6.941 3.11 6.941 7.853 0 4.744-2.808 7.79-6.94 7.79m0-17.631c-7.651 0-12.72 4.007-12.72 9.84 0 5.834 5.069 9.777 12.72 9.777 7.65 0 12.719-3.944 12.719-9.778 0-5.832-5.068-9.84-12.719-9.84" fill="#E3132C"/></g><path d="M187.621 9.552l-11.459 14.66V9.552h-5.166v18.624h5.166l11.459-14.692v14.692h5.165V9.552h-2.099" fill="#E3132C"/><mask id="c" style="mask-type:luminance" maskUnits="userSpaceOnUse" x="0" y="0" width="223" height="35"><path d="M0 0h222.001v35H0V0z" fill="#fff"/></mask><g mask="url(#c)"><path d="M131.259 11.008c4.002 0 6.392 2.147 6.392 2.147l1.064-2.758s-3.002-1.442-8.102-1.442c-7.36 0-12.525 4.008-12.525 9.841 0 5.834 4.841 9.776 12.847 9.776 4.908 0 7.748-1.538 7.748-1.538v-2.965s-2.389 2.275-7.199 2.275c-4.907 0-7.618-2.837-7.618-7.548 0-4.68 2.775-7.789 7.391-7.789m80.768 8.687c-3.358 0-5.391-1.603-5.391-4.486 0-2.821 2.033-4.168 5.391-4.168 1.822 0 3.519.156 4.81.322v8.333h-4.81zm-.582-10.642c-6.261 0-10.587 1.57-10.587 6.187 0 3.05 1.756 4.85 4.843 5.721l-6.877 7.489h.645c4.713 0 7.038-.994 10.073-4.648l1.802-2.186.101.002h5.392v6.474h5.164V9.557c-4.356-.128-7.294-.505-10.555-.505m-55.039 1.956c4.002 0 6.39 2.147 6.39 2.147l1.066-2.758s-3.003-1.442-8.103-1.442c-7.359 0-12.524 4.008-12.524 9.841 0 5.834 4.842 9.776 12.847 9.776 4.907 0 7.748-1.538 7.748-1.538v-2.965s-2.39 2.275-7.199 2.275c-4.908 0-7.62-2.837-7.62-7.548.002-4.68 2.778-7.789 7.394-7.789" fill="#E3132C"/></g></g><defs><clipPath id="clip0_400_5240"><path fill="#fff" d="M0 0h222v35H0z"/></clipPath></defs></svg>