<svg width="186" height="86" fill="none" xmlns="http://www.w3.org/2000/svg"><g clip-path="url(#clip0_400_5215)" fill-rule="evenodd" clip-rule="evenodd"><path d="M6.809 24.956c2.7-1.392 5.86-1.709 8.873-1.36 1.225.131 2.416.48 3.518 1.031v4.715a10.723 10.723 0 00-4.155-1.484c-1.813-.205-3.73-.074-5.374.772a6.953 6.953 0 00-3.256 3.776 11.611 11.611 0 00-.459 6.237c.386 1.932 1.316 3.822 2.898 5.023a7.032 7.032 0 005.034 1.365 11.672 11.672 0 004.822-1.5c.452 1.245.93 2.481 1.377 3.73a14.308 14.308 0 01-6.014 2.202 14.596 14.596 0 01-6.384-.626 10.803 10.803 0 01-5.016-3.598 13.21 13.21 0 01-2.542-6.4 15.029 15.029 0 01.934-7.666 12.164 12.164 0 015.744-6.217zm152.078 6.731c1.744-.526 3.472-1.07 5.224-1.592v6.743c1.69.043 3.395-.108 5.069.182 1.566.263 3.167.827 4.29 1.998a5.067 5.067 0 011.408 3.091 6.584 6.584 0 01-.59 3.613c-.687 1.364-2.03 2.269-3.438 2.755-2.314.812-4.787.773-7.194.739h-4.769V31.687zm5.216 8.795v5.09c.965 0 1.929.027 2.901-.07a3.583 3.583 0 001.929-.738c.741-.65.876-1.778.602-2.682a2.312 2.312 0 00-1.802-1.418c-1.196-.259-2.43-.186-3.649-.182h.019zM22.286 32.754a9.702 9.702 0 00-2.723 5.889 11.367 11.367 0 001.1 6.57 7.81 7.81 0 003.514 3.423c1.848.904 3.973 1.066 5.995.862 2.03-.23 3.982-.92 5.705-2.021-.385-1.117-.771-2.222-1.157-3.34a11.464 11.464 0 01-4.46 1.295 5.645 5.645 0 01-4.089-1.12 3.864 3.864 0 01-1.466-2.817h11.782a28.062 28.062 0 00-.085-3.173c-.29-2.597-1.6-5.174-3.858-6.57a8.787 8.787 0 00-5.74-1.159 7.737 7.737 0 00-4.506 2.145l-.011.016zm3.715 2.233a3.153 3.153 0 014.09.26 4.29 4.29 0 011.072 2.623h-6.558a3.761 3.761 0 011.404-2.898l-.008.015zm36.287-4.324a9.01 9.01 0 015.532.773 7.776 7.776 0 013.364 3.343 10.695 10.695 0 011.157 4.9c.035.595 0 1.194.024 1.789H60.564a3.87 3.87 0 001.392 2.766 5.63 5.63 0 004.132 1.183 11.706 11.706 0 004.51-1.271l1.157 3.319a13.21 13.21 0 01-5.96 2.056 11.212 11.212 0 01-5.401-.73 7.758 7.758 0 01-3.596-3.134 11.008 11.008 0 01-1.388-6.6c.13-2.125.928-4.154 2.28-5.797a7.735 7.735 0 014.629-2.597h-.031zm-.409 4.309a3.697 3.697 0 00-1.416 2.917h6.559a4.254 4.254 0 00-1.092-2.643 3.15 3.15 0 00-4.043-.263l-.008-.011zm21.025-4.363a7.128 7.128 0 015.44 1.426 7.76 7.76 0 012.476 3.717 12.94 12.94 0 01.506 4.892 11.267 11.267 0 01-1.609 5.051 8.14 8.14 0 01-3.55 3.165 8.694 8.694 0 01-4.663.645 6.796 6.796 0 01-2.276-.676v7.702c-1.744.53-3.472 1.078-5.228 1.592V30.887h4.39c.197.549.386 1.105.583 1.658 1.157-.916 2.469-1.716 3.947-1.932l-.016-.004zm-1.543 4.096a5.174 5.174 0 00-2.157 1.731v8.622a4.165 4.165 0 005.401-.596c.93-1.047 1.32-2.457 1.462-3.825.12-1.16.072-2.332-.142-3.478-.19-.885-.563-1.809-1.339-2.319a3.36 3.36 0 00-3.206-.135h-.019zm17.784-3.79a11.316 11.316 0 014.028-.33 7.555 7.555 0 013.225.936c.158.062.089.263.108.386v3.865a6.048 6.048 0 00-4.166-1.272 4.492 4.492 0 00-3.326 1.685c-.976 1.252-1.257 2.921-1.103 4.471.078 1.4.66 2.726 1.64 3.73a4.566 4.566 0 003.815 1.062 9.84 9.84 0 002.82-1.001c.386 1.16.829 2.268 1.234 3.408a11.093 11.093 0 01-3.394 1.403c-2.466.638-5.236.386-7.423-.97a8.4 8.4 0 01-3.522-4.892c-.814-2.987-.556-6.395 1.211-9a8.662 8.662 0 014.853-3.482zm24.347 1.622a12.138 12.138 0 016.346-1.974c2.018-.07 4.19 0 5.96 1.097a5.302 5.302 0 012.315 3.717c.239 1.287.135 2.605.158 3.907v9.94h-4.054c-.301-.534-.56-1.09-.845-1.635a7.102 7.102 0 01-2.874 1.7c-1.898.518-4.062.386-5.737-.727a5.527 5.527 0 01-2.388-3.694 6.3 6.3 0 01.513-3.938c.772-1.464 2.265-2.388 3.812-2.84 2.064-.637 4.243-.475 6.377-.614a2.768 2.768 0 00-.525-1.932c-.633-.773-1.663-1.017-2.612-1.055a9.035 9.035 0 00-4.849 1.279l-1.605-3.22.008-.01zm6.269 8.59c-.802.128-1.709.453-2.076 1.245a2.228 2.228 0 00.487 2.477 3.031 3.031 0 001.994.645 4.668 4.668 0 002.889-.827v-3.706c-1.099.058-2.202 0-3.294.167zM38.15 30.915h7.237c1.929-.066 3.939-.077 5.74.703a3.792 3.792 0 012.315 2.505 4.706 4.706 0 01-.266 3.048 3.585 3.585 0 01-2.365 1.855c-.131.055-.309.05-.386.19 1.104.212 2.25.606 2.998 1.495.868 1.02 1.007 2.454.849 3.737a4.642 4.642 0 01-2.037 3.27c-1.752 1.159-3.931 1.464-5.995 1.499h-8.102V30.895l.012.02zm5.374 3.505v3.579h2.364c.73-.062 1.52-.143 2.122-.607a1.639 1.639 0 00.348-2.006c-.34-.599-1.065-.803-1.702-.896-1.038-.116-2.087-.035-3.132-.058v-.012zm-.108 6.844v4.467c1.104.04 2.21.006 3.31-.1a3.222 3.222 0 001.848-.84 2.026 2.026 0 00.1-2.584 2.907 2.907 0 00-1.779-.835 23.82 23.82 0 00-3.472-.108h-.007zm64.004-10.38c-.019 1.38 0 2.763 0 4.143 1.694.038 3.388 0 5.081 0V49.2h5.224V35.018h4.405c.432-1.383.867-2.767 1.304-4.15h-16.006l-.008.015zm35.265 0h14.046v18.333h-5.22c-.023-4.727 0-9.456 0-14.186h-4.047a55.942 55.942 0 01-.482 7.597c-.258 1.77-.864 3.559-2.114 4.88a6.556 6.556 0 01-4.583 2.068c-.467-1.302-.964-2.593-1.447-3.891a3.803 3.803 0 002.666-1.774 8.36 8.36 0 00.826-2.836c.436-3.378.324-6.79.343-10.187l.012-.004zM4.787 70.145c.085-.201.22-.453.463-.456h1.814c.223 0 .35.204.416.386 1.543 3.823 3.086 7.644 4.63 11.462.077.177.112.494-.135.54-.664.02-1.335 0-1.999 0a.536.536 0 01-.536-.405c-.351-.881-.66-1.774-1.015-2.651-1.604.023-3.21-.02-4.81.023-.297.885-.648 1.75-.96 2.632-.066.193-.198.413-.433.386-.667 0-1.335.023-1.998 0a.456.456 0 01-.02-.525c1.544-3.798 3.071-7.6 4.583-11.408v.016zm1.258 2.19c-.536 1.662-1.157 3.282-1.751 4.928h3.499c-.587-1.639-1.204-3.27-1.748-4.924v-.003zm32.375 2.246c1.28-1.642 4.047-2.014 5.54-.46.042-.259-.039-.65.266-.773.532-.023 1.068 0 1.6 0a.29.29 0 01.321.31c.023 2.175-.023 4.35 0 6.522 0 .468.59.182.795.437.034.414.034.83 0 1.244-.047.255-.351.217-.54.22-.587-.034-1.243.112-1.767-.224a1.44 1.44 0 01-.575-.877 3.822 3.822 0 01-2.16 1.268 4.01 4.01 0 01-2.809-.541 3.885 3.885 0 01-1.655-2.705c-.258-1.52-.054-3.215.945-4.444l.039.023zm2.519.637c-.841.487-1.157 1.546-1.157 2.45 0 .905.208 1.956 1.018 2.485 1.01.634 2.438.081 2.99-.912.027-1.16 0-2.291 0-3.435-.694-.773-1.929-1.14-2.87-.588h.019zm22.834-1.043a3.996 3.996 0 015.382 0 4.692 4.692 0 011.261 3.3 5.23 5.23 0 01-.991 3.339 3.835 3.835 0 01-3.133 1.503 3.36 3.36 0 01-2.368-.82v4.085a.356.356 0 01-.355.406h-1.597a.361.361 0 01-.36-.421V73.808a.34.34 0 01.356-.417c.522-.02 1.045-.012 1.566.023.316.127.205.53.235.773l.004-.012zm1.624.827a2.88 2.88 0 00-1.446.773 71.736 71.736 0 000 3.864 2.375 2.375 0 002.97.522c.772-.487 1.05-1.43 1.061-2.288.012-.858-.089-1.747-.679-2.38a2.033 2.033 0 00-1.898-.506l-.008.015zm8.488-.24a4.63 4.63 0 013.745-1.619 3.786 3.786 0 012.986 1.218c.876.896 1.003 2.237.976 3.427a.387.387 0 01-.385.387h-5.853a2.525 2.525 0 001.848 2.195c1.196.297 2.411-.074 3.557-.387.217.393.369.818.448 1.26a.387.387 0 01-.282.475 8.705 8.705 0 01-3.73.576 4.626 4.626 0 01-3.044-1.248 4.328 4.328 0 01-1.22-2.744 4.795 4.795 0 01.95-3.543l.004.003zm2.384.499a2.45 2.45 0 00-.876 1.565h3.9a2.032 2.032 0 00-.606-1.569 1.973 1.973 0 00-2.418 0v.004zm34.562-1.067a4.002 4.002 0 015.335-.058 4.368 4.368 0 011.25 2.59 5.714 5.714 0 01-.637 3.659 3.855 3.855 0 01-2.075 1.727c-1.231.387-2.728.298-3.723-.606v3.976c0 .197-.031.464-.266.502-.563.039-1.127 0-1.69 0a.36.36 0 01-.355-.42v-11.78a.343.343 0 01.359-.42h1.482c.385.054.293.529.312.807l.008.023zm1.62.827a2.882 2.882 0 00-1.439.773 64.658 64.658 0 000 3.865c.721.834 2.087 1.159 3.025.483.744-.522 1.018-1.488 1.01-2.358-.007-.87-.131-1.73-.74-2.318a2.06 2.06 0 00-1.844-.448l-.012.003zm54.256-.915a4.919 4.919 0 013.16-.943 3.76 3.76 0 012.878 1.217c.875.892 1.003 2.233.976 3.424a.403.403 0 01-.106.285.388.388 0 01-.28.12h-5.856a2.517 2.517 0 001.848 2.188c1.195.301 2.407-.066 3.556-.387.218.391.369.816.448 1.256a.392.392 0 01-.146.42.39.39 0 01-.143.063 8.67 8.67 0 01-3.685.56 5.076 5.076 0 01-2.353-.691 4.002 4.002 0 01-1.774-2.442c-.483-1.786-.043-3.934 1.493-5.078l-.016.008zm1.755 1.128a2.407 2.407 0 00-.941 1.611h3.9a2.009 2.009 0 00-.605-1.565 1.955 1.955 0 00-2.354-.046zM14.744 73.893c-.027-.243.093-.541.386-.522h3.792c1.003 0 2.095.124 2.913.773a1.882 1.882 0 01-.023 2.852 2.938 2.938 0 01-.938.421 2.517 2.517 0 011.887.94 2.23 2.23 0 01.235 1.65 2.25 2.25 0 01-1.238 1.568 6.11 6.11 0 01-2.855.526h-3.796c-.281.02-.386-.275-.386-.514v-7.69l.024-.004zm2.338.842v2.103c.845-.024 1.736.08 2.531-.252a.953.953 0 00.336-1.383 1.422 1.422 0 00-.942-.386 16.786 16.786 0 00-1.929-.07l.004-.012zm0 3.478v2.524c.828.032 1.656-.005 2.477-.112.56-.105 1.157-.526 1.127-1.16-.031-.633-.525-.985-1.042-1.105a11.557 11.557 0 00-2.558-.15l-.004.003zm8.904-4.328c-.027-.236.104-.521.386-.514h1.597a.358.358 0 01.363.414v4.556c1.23-1.187 2.4-2.442 3.65-3.61 0-.343-.02-.691 0-1.035a.36.36 0 01.385-.325h1.597a.387.387 0 01.359.425v7.88a.388.388 0 01-.359.425h-1.612a.386.386 0 01-.386-.418V77.1c-1.216 1.202-2.435 2.4-3.642 3.614v1.074a.336.336 0 01-.34.309h-1.38c-.155 0-.329.02-.452-.085-.123-.105-.147-.363-.158-.549v-7.585l-.008.007zm23.841 0c-.027-.243.097-.54.386-.518h7.264a.386.386 0 01.463.425v7.891a.387.387 0 01-.355.414H55.9c-.243-.031-.305-.31-.298-.514V74.84h-3.44v6.828a.365.365 0 01-.204.387.363.363 0 01-.152.034c-.563 0-1.126.02-1.685 0a.456.456 0 01-.294-.51v-7.694zm36.264-.205a.388.388 0 01.455-.316h5.787a.385.385 0 01.436.413v6.844h.914c.135.042.281.15.262.317v3.454c.027.201-.177.325-.355.317-.459 0-.922.02-1.38 0-.163 0-.352-.116-.329-.301v-2.319H85.79v2.384c-.035.228-.313.248-.49.248-.45.016-.899.006-1.347-.031-.277-.062-.227-.387-.231-.603.02-1.082-.027-2.168.023-3.246.116-.367.621-.073.772-.386a7.934 7.934 0 001.435-3.27c.227-1.159.088-2.345.142-3.512l-.003.007zm2.249 1.16a9.8 9.8 0 01-1.516 5.761h3.614V74.84H88.34zm8.533-.95c-.023-.244.097-.542.386-.519h7.268a.387.387 0 01.463.425v7.891a.382.382 0 01-.094.282.385.385 0 01-.265.132h-1.678c-.243-.031-.305-.302-.297-.507v-6.743h-3.445v6.832a.385.385 0 01-.363.422h-1.674a.448.448 0 01-.3-.507V73.89zm23.637 0a.45.45 0 01.293-.507c.563-.027 1.127 0 1.686 0a.357.357 0 01.276.13.365.365 0 01.079.295v4.537c1.238-1.179 2.403-2.439 3.653-3.602a10.6 10.6 0 010-1.04.362.362 0 01.363-.32h1.593a.388.388 0 01.379.262.374.374 0 01.018.163v7.899a.386.386 0 01-.354.41h-1.69c-.235-.051-.301-.302-.289-.51V77.13a578.013 578.013 0 00-3.642 3.602c-.023.386.023.792-.031 1.182a.43.43 0 01-.444.213h-1.574a.453.453 0 01-.293-.514v-7.69l-.023-.035zm12.7.34c.675-.615 1.616-.774 2.492-.832 1.331-.061 2.666 0 4-.027.205-.027.517.043.521.302v8.014a.346.346 0 01-.308.41c-.533.02-1.061 0-1.594 0a.384.384 0 01-.404-.256.39.39 0 01-.02-.17c-.023-.977 0-1.958 0-2.94-.71.02-1.586-.116-2.106.495-.43.646-.816 1.32-1.158 2.017-.189.336-.347.835-.806.85-.633 0-1.269.023-1.902 0-.22-.066-.146-.32-.054-.464.413-.707.841-1.402 1.258-2.106a2.873 2.873 0 011.003-1.059 2.316 2.316 0 01-1.578-1.406 2.743 2.743 0 01.644-2.825l.012-.004zm2.241.772c-.895.282-.849 1.805.039 2.064.771.27 1.605.158 2.403.181v-2.415c-.814 0-1.655-.077-2.442.17zm7.361-1.434a.298.298 0 01.351-.212h7.469c.146-.02.385.03.385.22.018.346.018.693 0 1.04 0 .127-.146.22-.258.212h-2.674v6.848a.378.378 0 01-.231.382.386.386 0 01-.154.031h-1.27c-.204 0-.451.039-.597-.135a1.158 1.158 0 01-.093-.595v-6.523c-.895-.027-1.79 0-2.701 0-.158 0-.277-.166-.262-.31v-.946l.035-.012zm10.89.317a.456.456 0 01.297-.518c.56-.027 1.123 0 1.683 0a.359.359 0 01.354.414v4.548c1.243-1.178 2.404-2.438 3.654-3.601a6.868 6.868 0 01.031-1.102.385.385 0 01.463-.263h1.489a.382.382 0 01.275.145.395.395 0 01.08.3v7.895a.387.387 0 01-.355.413c-.564 0-1.127.02-1.686 0-.239-.046-.305-.301-.293-.51v-4.479c-1.216 1.202-2.439 2.4-3.642 3.614v1.074c0 .232-.262.336-.455.313h-1.578a.447.447 0 01-.293-.506c-.011-2.587-.015-5.162-.012-7.725l-.012-.012z" fill="#00579C"/><path d="M177.679.124c-.186 0-1.821.146-2.006.166a30.771 30.771 0 00-15.169 5.866 3.596 3.596 0 00-1.416 2.284 4.386 4.386 0 00.386 2.562 31.972 31.972 0 002.376 3.914c1.759-5.634 12.808-8.115 19.266-8.165l-.471-3.501-2.966-3.126z" fill="url(#paint0_linear_400_5215)"/><path d="M182.13 21.188c.078-.17 1.085-1.546 1.158-1.735a30.899 30.899 0 002.511-16.095 3.593 3.593 0 00-1.265-2.369 4.366 4.366 0 00-2.404-.95 32.15 32.15 0 00-4.571.1c3.989 4.347.621 15.175-2.573 20.797l7.144.252z" fill="url(#paint1_linear_400_5215)"/><path d="M161.842 14.916a30.596 30.596 0 0013.807 10.797 3.873 3.873 0 002.539.1 4.38 4.38 0 002.01-1.43 24.207 24.207 0 003.121-5c-3.295 3.644-14.05-5.213-16.45-9.444-2.473 1.268-4.379 2.906-5.027 4.977z" fill="url(#paint2_linear_400_5215)"/></g><defs><linearGradient id="paint0_linear_400_5215" x1="180.36" y1="6.156" x2="159.627" y2="8.732" gradientUnits="userSpaceOnUse"><stop stop-color="#851112"/><stop offset=".62" stop-color="#E30F15"/><stop offset="1" stop-color="#E40F17"/></linearGradient><linearGradient id="paint1_linear_400_5215" x1="180.572" y1="19.379" x2="180.324" y2="1.916" gradientUnits="userSpaceOnUse"><stop stop-color="#221F5C"/><stop offset=".6" stop-color="#0072BA"/><stop offset="1" stop-color="#0274BB"/></linearGradient><linearGradient id="paint2_linear_400_5215" x1="166.236" y1="11.983" x2="178.793" y2="23.192" gradientUnits="userSpaceOnUse"><stop stop-color="#867C8E"/><stop offset=".63" stop-color="#DDDEDF"/><stop offset="1" stop-color="#DFE0E2"/></linearGradient><clipPath id="clip0_400_5215"><path fill="#fff" d="M0 0h186v86H0z"/></clipPath></defs></svg>