<svg width="209" height="68" fill="none" xmlns="http://www.w3.org/2000/svg"><g clip-path="url(#clip0_400_5223)"><path d="M105.847 16.367h5.611v5.073h-5.611v-5.073zm0 8.024h5.611v21.331h-5.611V24.391zm14.151 3.409h.124c1.279-2.412 2.723-3.66 5.198-3.66.619 0 .991.043 1.321.167v4.948h-.124c-3.672-.374-6.313 1.58-6.313 6.071v10.396h-5.611V24.39h5.405v3.41zm17.575-11.433h5.611v5.073h-5.611v-5.073zm0 8.024h5.611v21.331h-5.611V24.391zm14.233 2.911h.124c1.444-2.287 3.382-3.493 6.271-3.493 4.374 0 7.302 3.326 7.302 7.983v13.93h-5.61V32.624c0-2.287-1.321-3.909-3.673-3.909-2.475 0-4.29 1.996-4.29 4.907v12.1h-5.611V24.391h5.487v2.91zm16.007 7.734c0-6.32 4.249-11.227 10.438-11.227 6.807 0 10.438 5.239 10.438 12.848h-15.348c.413 3.285 2.228 5.323 5.405 5.323 2.186 0 3.465-.998 4.084-2.62h5.529c-.784 3.784-4.126 6.986-9.572 6.986-7.013 0-10.974-4.949-10.974-11.31zm5.611-2.287h9.406c-.165-2.704-1.939-4.575-4.497-4.575-2.97 0-4.414 1.788-4.909 4.575zm16.557 6.071h5.198c.372 2.453 2.104 3.534 4.622 3.534 2.475 0 3.878-.957 3.878-2.453 0-2.038-2.682-2.246-5.57-2.828-3.796-.748-7.509-1.788-7.509-6.445 0-4.616 3.796-6.82 8.623-6.82 5.57 0 8.664 2.787 9.076 7.07h-5.074c-.248-2.288-1.692-3.12-4.085-3.12-2.186 0-3.63.832-3.63 2.37 0 1.83 2.805 1.997 5.817 2.62 3.548.75 7.468 1.747 7.468 6.737 0 4.283-3.631 6.861-8.912 6.861-6.148 0-9.571-2.994-9.902-7.527zM92.608 16.367h-6.53L74.27 45.722h6.684l2.186-6.03h12.048l2.227 6.03h6.725L92.608 16.367zm-7.859 18.377l4.332-12.474 4.456 12.474h-8.788zm49.689-18.377h-5.611v29.355h5.611V16.367z" fill="#747679"/><path d="M66.988 33.986c0 18.65-14.985 33.75-33.484 33.75-18.5 0-33.504-15.1-33.504-33.75S15.003.221 33.504.221c18.499 0 33.484 15.115 33.484 33.765z" fill="#BED600"/><path d="M31.063 16.366c-5.275 0-8.698.294-11.176 1.22-4.163 1.635-7.039 5.061-7.039 9.564 0 3.75 1.733 6.465 6.747 9.589 5.35 3.268 6.417 4.348 6.417 6.318 0 2.155-2.096 4.609-7.488 4.609-1.881 0-4.716-.263-6.527-.71l-.864-.219c-.482 1.303-1.577 4.384-1.91 5.502l.855.254c1.63.523 5.496.932 8.266.932 9.215 0 14.714-5.61 14.714-11.487 0-3.61-1.627-6.354-7.123-9.811-2.758-1.71-4.163-2.818-5.016-3.676-.692-.896-.769-1.563-.769-2.267 0-.672.149-1.447.588-2.015.476-.701 1.349-1.149 2.53-1.518 1.213-.405 3.462-.416 6.965-.416h3.26l2.33-5.869h-4.76zm24.646 0H39.321l-2.329 5.868h5.432c3.656 0 4.359-.079 5.276-.079-1.325 3.055-9.31 23.566-9.31 23.566h6.758s10.11-25.532 11.182-28.21c.297-.596.15-1.145-.62-1.145z" fill="#fff"/></g><defs><clipPath id="clip0_400_5223"><path fill="#fff" d="M0 0h209v68H0z"/></clipPath></defs></svg>