<svg width="49" height="46" viewBox="0 0 49 46" fill="none" xmlns="http://www.w3.org/2000/svg">
<path d="M30.2909 16.6312H44.5454C45.7269 16.6312 46.8599 17.1072 47.6953 17.9545C48.5307 18.8019 49 19.9511 49 21.1494V25.9027C49.0006 26.4931 48.8871 27.078 48.6659 27.6241L41.7725 44.6016C41.6043 45.0155 41.3187 45.3694 40.9519 45.6184C40.5851 45.8674 40.1536 46.0002 39.7123 46H2.22727C1.63656 46 1.07005 45.762 0.652353 45.3383C0.234658 44.9146 0 44.34 0 43.7409V21.1494C0 20.5503 0.234658 19.9757 0.652353 19.552C1.07005 19.1283 1.63656 18.8903 2.22727 18.8903H9.98264C10.3392 18.8904 10.6906 18.8036 11.0073 18.6374C11.3239 18.4711 11.5966 18.2301 11.8023 17.9347L23.9476 0.478306C24.1012 0.257617 24.3276 0.100036 24.5858 0.0341366C24.8441 -0.0317632 25.1171 -0.00161945 25.3553 0.119102L29.3955 2.16814C30.5326 2.74459 31.4409 3.69829 31.9697 4.87079C32.4984 6.04329 32.6157 7.36399 32.3021 8.61347L30.2909 16.6312ZM13.3636 22.4778V41.4817H38.22L44.5454 25.9027V21.1494H30.2909C29.6125 21.1493 28.943 20.9921 28.3336 20.6896C27.7243 20.3872 27.191 19.9475 26.7747 19.4042C26.3583 18.8609 26.0697 18.2284 25.9311 17.5548C25.7924 16.8811 25.8072 16.1843 25.9745 15.5174L27.9857 7.50198C28.0486 7.25195 28.0253 6.9876 27.9195 6.75291C27.8137 6.51822 27.6319 6.32733 27.4044 6.21201L25.9321 5.46649L15.4417 20.5395C14.8849 21.3392 14.1721 21.9944 13.3636 22.4778ZM8.90909 23.4086H4.45455V41.4817H8.90909V23.4086Z" fill="#1550A2"/>
</svg>
