<svg width="12" height="17" viewBox="0 0 12 17" fill="none" xmlns="http://www.w3.org/2000/svg">
<path d="M12 16.9999H10.5V15.3808C10.5 14.7367 10.2629 14.119 9.84099 13.6636C9.41903 13.2081 8.84674 12.9523 8.25 12.9523H3.75C3.15326 12.9523 2.58097 13.2081 2.15901 13.6636C1.73705 14.119 1.5 14.7367 1.5 15.3808V16.9999H0V15.3808C0 14.3073 0.395088 13.2778 1.09835 12.5187C1.80161 11.7597 2.75544 11.3332 3.75 11.3332H8.25C9.24456 11.3332 10.1984 11.7597 10.9017 12.5187C11.6049 13.2778 12 14.3073 12 15.3808V16.9999ZM6 9.71416C5.40905 9.71416 4.82389 9.58853 4.27792 9.34444C3.73196 9.10034 3.23588 8.74257 2.81802 8.29154C2.40016 7.84051 2.06869 7.30506 1.84254 6.71577C1.6164 6.12647 1.5 5.49487 1.5 4.85702C1.5 4.21917 1.6164 3.58757 1.84254 2.99827C2.06869 2.40898 2.40016 1.87353 2.81802 1.4225C3.23588 0.971475 3.73196 0.6137 4.27792 0.369606C4.82389 0.125512 5.40905 -0.00012208 6 -0.00012207C7.19347 -0.000122051 8.33807 0.511611 9.18198 1.4225C10.0259 2.33339 10.5 3.56883 10.5 4.85702C10.5 6.14522 10.0259 7.38065 9.18198 8.29154C8.33807 9.20243 7.19347 9.71416 6 9.71416ZM6 8.09512C6.79565 8.09512 7.55871 7.75396 8.12132 7.1467C8.68393 6.53944 9 5.71582 9 4.85702C9 3.99822 8.68393 3.1746 8.12132 2.56734C7.55871 1.96008 6.79565 1.61893 6 1.61893C5.20435 1.61893 4.44129 1.96008 3.87868 2.56734C3.31607 3.1746 3 3.99822 3 4.85702C3 5.71582 3.31607 6.53944 3.87868 7.1467C4.44129 7.75396 5.20435 8.09512 6 8.09512Z" fill="#828282"/>
</svg>
