<svg width="46" height="46" viewBox="0 0 46 46" fill="none" xmlns="http://www.w3.org/2000/svg">
<path d="M39.4286 42.3327V46H35.0476V43.0675L18.7987 45.7866C18.6418 45.8128 18.4812 45.8044 18.3279 45.7619C18.1747 45.7195 18.0324 45.6441 17.9111 45.5409C17.7898 45.4376 17.6923 45.3092 17.6255 45.1643C17.5586 45.0195 17.5239 44.8617 17.5238 44.702V41.6001H8.7619V46H4.38095V41.6001H2.19048C1.60953 41.6001 1.05237 41.3684 0.641576 40.9558C0.230782 40.5432 0 39.9837 0 39.4002V6.40129C0 5.81783 0.230782 5.25827 0.641576 4.8457C1.05237 4.43314 1.60953 4.20136 2.19048 4.20136H17.5238V1.09946C17.5239 0.939788 17.5586 0.782048 17.6255 0.637196C17.6923 0.492344 17.7898 0.363853 17.9111 0.26065C18.0324 0.157446 18.1747 0.0820045 18.3279 0.0395654C18.4812 -0.00287376 18.6418 -0.0112927 18.7987 0.0148932L41.9783 3.89557C42.4898 3.98097 42.9545 4.24582 43.2898 4.64301C43.6251 5.04019 43.8093 5.54396 43.8095 6.0647V10.8011H46V15.201H43.8095V30.6005H46V35.0004H43.8095V39.7368C43.8093 40.2575 43.6251 40.7613 43.2898 41.1585C42.9545 41.5557 42.4898 41.8205 41.9783 41.9059L39.4286 42.3327ZM4.38095 8.60122V37.2003H17.5238V8.60122H4.38095ZM21.9048 40.8082L39.4286 37.8735V7.92804L21.9048 4.99553V40.806V40.8082ZM31.7619 28.4006C29.9482 28.4006 28.4762 25.9367 28.4762 22.9008C28.4762 19.8649 29.9482 17.4009 31.7619 17.4009C33.5756 17.4009 35.0476 19.8649 35.0476 22.9008C35.0476 25.9367 33.5756 28.4006 31.7619 28.4006Z" fill="#1550A2"/>
</svg>
