<?xml version="1.0" encoding="utf-8"?><svg xmlns="http://www.w3.org/2000/svg" xmlns:xlink="http://www.w3.org/1999/xlink"><symbol viewBox="0 0 14 8" id="arrow-down" xmlns="http://www.w3.org/2000/svg"><path d="M7.243 4.95L12.193 0l1.414 1.414-6.364 6.364L.879 1.414 2.293 0l4.95 4.95z"/></symbol><symbol viewBox="0 0 31 14" id="arrow-right-long" xmlns="http://www.w3.org/2000/svg"><path d="M27.15 6.1l-4.693-4.827L23.694 0 30.5 7l-6.806 7-1.237-1.273L27.151 7.9H0V6.1h27.15z"/></symbol><symbol viewBox="0 0 42 46" id="arrows" xmlns="http://www.w3.org/2000/svg"><path d="M30.45 23.116L42 34.558 30.45 46l-3.3-3.269 5.918-5.864-30.735.002v-4.623h30.735l-5.917-5.862 3.299-3.268zM11.55 0l3.3 3.269L8.931 9.13h30.735v4.623H8.932l5.917 5.862-3.299 3.268L0 11.442 11.55 0z"/></symbol><symbol viewBox="0 0 18 20" id="exit" xmlns="http://www.w3.org/2000/svg"><path d="M2 13h2v5h12V2H4v5H2V1a1 1 0 0 1 1-1h14a1 1 0 0 1 1 1v18a1 1 0 0 1-1 1H3a1 1 0 0 1-1-1v-6zm6-4V6l5 4-5 4v-3H0V9h8z"/></symbol><symbol viewBox="0 0 49 46" id="like" xmlns="http://www.w3.org/2000/svg"><path d="M30.29 16.631h14.255c1.182 0 2.315.476 3.15 1.323A4.551 4.551 0 0 1 49 21.15v4.754c0 .59-.113 1.175-.334 1.721l-6.893 16.978a2.253 2.253 0 0 1-.821 1.016 2.205 2.205 0 0 1-1.24.382H2.227c-.59 0-1.157-.238-1.575-.662A2.276 2.276 0 0 1 0 43.741V21.149c0-.599.235-1.173.652-1.597a2.211 2.211 0 0 1 1.575-.662h7.756c.356 0 .708-.086 1.024-.253.317-.166.59-.407.795-.702L23.948.478a1.1 1.1 0 0 1 1.408-.36l4.04 2.05a5.613 5.613 0 0 1 2.574 2.703 5.723 5.723 0 0 1 .332 3.742l-2.011 8.018zm-16.926 5.847v19.004H38.22l6.325-15.58V21.15H30.291a4.403 4.403 0 0 1-1.957-.46 4.467 4.467 0 0 1-1.56-1.285 4.58 4.58 0 0 1-.8-3.887l2.012-8.015c.063-.25.04-.514-.067-.75a1.123 1.123 0 0 0-.515-.54l-1.472-.746-10.49 15.073a6.755 6.755 0 0 1-2.078 1.939zm-4.455.93H4.455v18.074h4.454V23.409z"/></symbol><symbol viewBox="0 0 12 11" id="list-2" xmlns="http://www.w3.org/2000/svg"><path d="M0 0h12v1.375H0V0zm0 4.813h12v1.375H0V4.813zm0 4.812h12V11H0V9.625z"/></symbol><symbol viewBox="0 0 12 17" id="man" xmlns="http://www.w3.org/2000/svg"><path d="M12 17h-1.5v-1.62a2.53 2.53 0 0 0-.659-1.716 2.17 2.17 0 0 0-1.591-.712h-4.5a2.17 2.17 0 0 0-1.591.712A2.53 2.53 0 0 0 1.5 15.38V17H0v-1.62c0-1.073.395-2.102 1.098-2.861.704-.76 1.657-1.186 2.652-1.186h4.5c.995 0 1.948.427 2.652 1.186A4.217 4.217 0 0 1 12 15.38V17zM6 9.714a4.215 4.215 0 0 1-1.722-.37 4.494 4.494 0 0 1-1.46-1.052 4.9 4.9 0 0 1-.975-1.576A5.194 5.194 0 0 1 1.5 4.857c0-.638.116-1.27.343-1.859a4.9 4.9 0 0 1 .975-1.576A4.494 4.494 0 0 1 4.278.37 4.215 4.215 0 0 1 6 0c1.193 0 2.338.512 3.182 1.423.844.91 1.318 2.146 1.318 3.434 0 1.288-.474 2.524-1.318 3.435-.844.91-1.989 1.422-3.182 1.422zm0-1.619c.796 0 1.559-.341 2.121-.948.563-.608.879-1.431.879-2.29s-.316-1.682-.879-2.29A2.893 2.893 0 0 0 6 1.62c-.796 0-1.559.341-2.121.948A3.373 3.373 0 0 0 3 4.857c0 .859.316 1.682.879 2.29A2.893 2.893 0 0 0 6 8.095z"/></symbol><symbol viewBox="0 0 16 16" id="minus" xmlns="http://www.w3.org/2000/svg"><rect x="2" y="7" width="12" height="2" rx="1"/></symbol><symbol viewBox="0 0 16 16" id="plus" xmlns="http://www.w3.org/2000/svg"><path d="M2 8a1 1 0 0 1 1-1h10a1 1 0 1 1 0 2H3a1 1 0 0 1-1-1z"/><path d="M8 2a1 1 0 0 1 1 1v10a1 1 0 1 1-2 0V3a1 1 0 0 1 1-1z"/></symbol><symbol viewBox="0 0 14 9" id="pyramid" xmlns="http://www.w3.org/2000/svg"><path d="M5.444 9h3.112V7.5H5.444V9zM0 0v1.5h14V0H0zm2.333 5.25h9.334v-1.5H2.333v1.5z"/></symbol><symbol viewBox="0 0 46 46" id="safe" xmlns="http://www.w3.org/2000/svg"><path d="M39.429 42.333V46h-4.381v-2.932l-16.25 2.719a1.09 1.09 0 0 1-1.172-.623 1.104 1.104 0 0 1-.102-.462V41.6H8.762V46H4.38v-4.4h-2.19a2.186 2.186 0 0 1-1.55-.644A2.205 2.205 0 0 1 0 39.4V6.401c0-.583.23-1.143.642-1.555.41-.413.968-.645 1.548-.645h15.334V1.1a1.104 1.104 0 0 1 .804-1.06c.153-.042.314-.05.47-.024l23.18 3.88c.512.086.977.35 1.312.748.335.397.52.901.52 1.422V10.8H46v4.4h-2.19v15.4H46V35h-2.19v4.736c0 .52-.185 1.024-.52 1.421-.335.398-.8.663-1.312.748l-2.55.427zM4.38 8.6v28.6h13.143V8.6H4.38zm17.524 32.207l17.524-2.934V7.927L21.905 4.996V40.808zm9.857-12.407c-1.814 0-3.286-2.464-3.286-5.5s1.472-5.5 3.286-5.5 3.286 2.464 3.286 5.5-1.472 5.5-3.286 5.5z"/></symbol><symbol viewBox="0 0 14 14" id="search" xmlns="http://www.w3.org/2000/svg"><path d="M11.048 10.074L14 13.024l-.975.976-2.951-2.952A6.205 6.205 0 0 1 0 6.202 6.205 6.205 0 0 1 6.203 0a6.205 6.205 0 0 1 4.845 10.074zm-1.382-.512a4.808 4.808 0 0 0 1.36-3.36 4.823 4.823 0 0 0-4.823-4.824 4.822 4.822 0 0 0-4.825 4.825 4.823 4.823 0 0 0 4.825 4.824 4.808 4.808 0 0 0 3.36-1.361l.103-.104z"/></symbol><symbol viewBox="0 0 31 64" id="slider-arrow" xmlns="http://www.w3.org/2000/svg"><path d="M0 63.904l3.463-5.3 12.225-18.763c1.556-2.398 3.087-4.796 4.667-7.134a1.059 1.059 0 0 0 0-1.378c-2.807-4.293-5.602-8.549-8.41-12.913L2.905 4.544C1.931 3.057.934 1.583.06 0L31 32.024.097 64 0 63.904z"/></symbol><symbol viewBox="0 0 20 19" id="star" xmlns="http://www.w3.org/2000/svg"><path d="M9.51 14.5l-5.878 3.59 1.598-6.7L0 6.91l6.865-.55L9.51 0l2.645 6.36 6.866.55-5.231 4.48 1.598 6.7L9.51 14.5z"/></symbol><symbol viewBox="0 0 12 12" id="tile" xmlns="http://www.w3.org/2000/svg"><path d="M0 0h5.333v5.333H0V0zm0 6.667h5.333V12H0V6.667zM6.667 0H12v5.333H6.667V0zm0 6.667H12V12H6.667V6.667z"/></symbol></svg>